<?xml version="1.0" encoding="utf-8"?>
<!-- Generator: Adobe Illustrator 25.4.1, SVG Export Plug-In . SVG Version: 6.00 Build 0)  -->
<svg version="1.1" id="Layer_1" xmlns="http://www.w3.org/2000/svg" xmlns:xlink="http://www.w3.org/1999/xlink" x="0px" y="0px"
	 viewBox="0 0 520.3 54.1" style="enable-background:new 0 0 520.3 54.1;" xml:space="preserve">
<style type="text/css">
	.st0{fill:#FFFFFF;}
	.st1{fill:#EEB0B3;}
</style>
<g>
	<g>
		<path class="st0" d="M26.3,3.5c0.6,0,1,0.2,1,0.7c0,0.5-0.3,1-1.1,2.8c-2.2,5.3,1.5,28.9-15,28.9c-5.1,0-8.2-3-8.2-7.1
			c0-4.5,4.1-7,7.4-7c1.2,0,1.6,0.3,1.6,0.6c0,0.4-0.2,0.6-0.7,0.8c-1.1,0.5-2.2,1.5-2.2,2.9c0,1.5,1,2.6,2.7,2.6
			c7.2,0,5.2-18.6,8-20.6c-3,1.4-6,3.2-6,6.9c0,1.2,0.4,2,1.2,2.5c0.5,0.3,0.7,0.4,0.7,0.8c0,0.3-0.5,0.7-1.4,0.7
			c-2.8,0-6.9-1.8-6.9-5.2c0-4.9,6.8-6.8,11.8-8.3c1.4-0.4,2.1-1.3,3-1.6C23.7,3.6,25.7,3.5,26.3,3.5 M26.3,0.5
			c-0.8,0-3,0.2-4.7,0.6c-0.9,0.2-1.6,0.7-2.1,1c-0.4,0.3-0.7,0.5-1,0.6L18,2.8c-5.4,1.6-13.5,4-13.5,11c0,2.1,0.9,4,2.6,5.5
			C3.3,20.6,0,24,0,28.8c0,5.9,4.6,10.1,11.2,10.1c6.6,0,11.5-3.3,14.2-9.6c2.1-4.9,2.5-10.7,2.9-15.3c0.2-2.3,0.4-4.9,0.7-5.8
			c0.2-0.4,0.3-0.7,0.4-1c0.5-1.2,0.8-2,0.8-3C30.2,2.4,28.9,0.5,26.3,0.5L26.3,0.5z"/>
		<path class="st0" d="M63.1,3c0.3,0,0.5,0.1,0.5,0.5c0,0.6-0.4,1.7-0.8,2.2c-1.1,1.4-2.6,2.5-4.7,2.7c-3.6,2.5,0.5,27.6-15.2,27.6
			c-5.6,0-8.4-3.1-8.4-7.2c0-4.7,4.5-7.2,7.8-7.2c1.2,0,1.6,0.3,1.6,0.7s-0.3,0.6-0.6,0.8c-1.2,0.5-2.3,1.6-2.3,3
			c0,1.6,1.1,2.6,2.7,2.6c5.1,0,5.2-12.4,7.5-18.1c0.5-1.3,1.3-2.3,2.2-2.8c-1.7-0.6-2.9-0.9-4.8-0.9c-2.7,0-4.5,1.6-4.5,3.4
			c0,1.4,0.8,2,2,2c0.8,0,1.1-0.5,1.5-0.5c0.3,0,0.5,0.2,0.5,0.5c0,2-2.3,5.1-5.8,5.1c-3.3,0-5.7-2.4-5.7-5.7
			c0-5.2,5.2-8.2,10.7-8.2c5.4,0,8.2,1.1,10.6,1.1C60.9,4.5,62.4,3,63.1,3 M63.1,0c-0.9,0-1.7,0.4-2.3,0.7c-0.8,0.4-1.6,0.8-3.1,0.8
			c-0.7,0-1.6-0.1-2.8-0.3c-1.8-0.3-4.4-0.7-7.9-0.7c-7.8,0-13.7,4.8-13.7,11.2c0,3.4,1.8,6.3,4.5,7.7c-3.6,1.5-6.5,4.8-6.5,9.3
			c0,7.1,5.8,10.2,11.4,10.2c4.1,0,9.7-1.5,13-8.6c2-4.4,2.7-9.7,3.2-13.9c0.2-1.8,0.5-4.1,0.8-5.2c2-0.5,3.8-1.7,5.3-3.6
			c0.8-1,1.4-2.8,1.4-4C66.6,1.5,65.1,0,63.1,0L63.1,0z M45.7,19.6c0.1,0,0.1-0.1,0.2-0.1c0,0.1,0,0.1,0,0.2
			C45.8,19.7,45.8,19.7,45.7,19.6L45.7,19.6z"/>
		<path class="st0" d="M66,7.6c2.5,0,4.3,1.3,4.3,3.7c0,2.7-2.1,9.6-2.7,11.7c1.2-1.3,3.4-2.7,6.1-2.7c2.6,0,4.3,1.2,4.3,3.3
			c0,2.4-1.4,4.3-1.4,6.8c0,0.7,0.6,1.2,1.2,1.2c0.8,0,1.2-0.4,1.8-1c0.3-0.3,0.5-0.5,0.8-0.5c0.4,0,0.7,0.4,0.7,0.7
			c0,0.5-0.3,0.9-0.8,1.5c-1,1.3-3.1,3.2-6.1,3.2c-2.9,0-4.9-1.5-4.9-3.7c0-2.6,1.5-5.1,1.5-6.9c0-0.6-0.3-0.9-0.9-0.9
			c-0.9,0-1.7,0.8-2.6,2.7c-0.9,1.6-1.9,6.3-1.9,7.5c0,0.8-0.3,1-1,1c-1.5,0-4.2,0.2-5,0.2c-0.6,0-0.9-0.2-0.9-1.1
			c0-4.1,4.2-14.7,4.2-21.4c0-1.6-0.6-2.4-1.6-2.4c-0.4,0-0.7-0.2-0.7-0.6C60.5,9.1,63.3,7.6,66,7.6 M66,4.6c-3.6,0-8.5,2.1-8.5,5.6
			c0,1.5,0.9,2.8,2.3,3.3c-0.1,3.4-1.3,7.9-2.4,12c-1,3.7-1.8,6.8-1.8,9c0,2.4,1.6,4.1,3.9,4.1c0.4,0,1,0,1.9-0.1
			c1-0.1,2.3-0.1,3-0.1c1.7,0,3-0.8,3.6-2.2c1.4,1.5,3.6,2.4,6.2,2.4c4.6,0,7.5-3,8.5-4.3c0.6-0.8,1.4-1.8,1.4-3.4
			c0-2-1.6-3.7-3.7-3.7c0,0-0.1,0-0.1,0c0.3-1,0.6-2.2,0.6-3.6c0-3.1-2.3-6.3-7.3-6.3c-0.5,0-1,0-1.4,0.1c0.6-2.3,1-4.6,1-6.1
			C73.3,7.3,70.3,4.6,66,4.6L66,4.6z"/>
		<path class="st0" d="M86.3,11.3c1.7,0,3.2,1.1,3.2,2.5c0,2.4-2,4-3.8,4c-2,0-3.2-1.2-3.2-2.6C82.5,13.3,84,11.3,86.3,11.3
			 M87,20.3c1.1,0,1.6,0.4,1.6,1.2c0,1.9-1.5,4.9-1.5,8.5c0,1,0.8,1.6,1.4,1.6c0.7,0,1.1-0.4,1.7-1c0.3-0.3,0.5-0.5,0.8-0.5
			c0.4,0,0.7,0.4,0.7,0.7c0,0.5-0.3,0.9-0.8,1.5c-1,1.3-3.1,3.2-6.1,3.2c-3.2,0-5.2-1.8-5.2-4c0-3.1,1.6-6.2,1.6-7.9
			c0-0.8-0.3-0.9-0.3-1.5C81,21,84.3,20.3,87,20.3 M86.3,8.3c-4.2,0-6.8,3.6-6.8,6.9c0,1.2,0.4,2.4,1.1,3.3
			c-1.5,0.7-2.6,1.8-2.6,3.6c0,0.8,0.2,1.3,0.3,1.6c0,0.4-0.3,1.3-0.5,2c-0.5,1.6-1.1,3.7-1.1,5.9c0,4,3.5,7,8.2,7
			c4.6,0,7.5-3,8.5-4.3c0.6-0.8,1.4-1.8,1.4-3.4c0-2-1.6-3.7-3.7-3.7c-0.2,0-0.4,0-0.6,0.1c0.1-0.6,0.3-1.3,0.5-1.9
			c0.4-1.3,0.7-2.6,0.7-3.8c0-1-0.4-2.1-1.1-2.9c1.2-1.2,1.9-2.9,1.9-4.9C92.5,10.7,89.8,8.3,86.3,8.3L86.3,8.3z"/>
		<path class="st0" d="M105.4,20.3c2.6,0,3.9,1.2,3.9,3c0,2.2-1.3,4.8-1.3,6.8c0,0.9,0.6,1.5,1.3,1.5c0.8,0,1.2-0.4,1.8-1
			c0.3-0.3,0.5-0.5,0.8-0.5c0.4,0,0.7,0.4,0.7,0.7c0,0.5-0.3,0.9-0.8,1.5c-1,1.3-3.1,3.2-6.1,3.2c-2.7,0-4.9-1.6-4.9-3.7
			c0-2.9,1.5-5,1.5-6.9c0-0.6-0.3-1-0.9-1c-0.8,0-1.5,0.6-2.5,2.7c-0.8,1.6-2.1,5.7-2.1,7.6c0,0.8-0.3,1-1.1,1c-1.4,0-4,0.2-4.8,0.2
			c-0.6,0-1-0.2-1-1.1c0-1.8,2-8.3,2-10.8c0-0.8-0.3-0.9-0.3-1.5c0-1.1,3.2-1.8,6-1.8c1.1,0,1.6,0.4,1.6,1.2c0,0.8-0.3,1.8-0.3,1.8
			C100,22.3,102.6,20.3,105.4,20.3 M105.4,17.3c-1.6,0-3.1,0.4-4.5,1.1c-0.8-0.6-1.8-1.1-3.2-1.1c-2.1,0-9,0.3-9,4.8
			c0,0.8,0.2,1.4,0.3,1.7c-0.1,1.2-0.6,3.7-1.1,5.5c-0.6,2.6-0.9,4.1-0.9,5.2c0,2.4,1.6,4.1,4,4.1c0.4,0,0.9,0,1.8-0.1
			c1-0.1,2.2-0.1,2.9-0.1c1.8,0,3.1-0.9,3.7-2.2c1.4,1.5,3.7,2.5,6.2,2.5c4.6,0,7.5-3,8.5-4.3c0.6-0.8,1.4-1.8,1.4-3.4
			c0-2-1.6-3.7-3.7-3.7c-0.1,0-0.2,0-0.2,0c0.3-1.2,0.6-2.5,0.6-3.8C112.4,19.2,108.9,17.3,105.4,17.3L105.4,17.3z"/>
		<path class="st0" d="M118.1,7.6c2.5,0,4.3,1.3,4.3,3.7c0,3-3.4,13.3-3.4,15.2c1.1,0,2.9-1.6,2.9-2.5c0-0.5-0.3-0.6-0.3-1.1
			c0-1,3.5-2.5,5.7-2.5c1,0,1.6,0.4,1.6,1.1c0,2-2.4,4.6-6,6.5c0.5,1.7,2.3,3.1,3.8,3.1c1.4,0,1.6-1,2.4-1c0.4,0,0.6,0.2,0.6,0.6
			c0,0.5-0.3,1.2-0.8,2c-1,1.4-2.5,2.9-5.1,2.9c-4.2,0-4.7-6.4-5.2-6.4c0,0-1.2,4.1-1.2,5.1c0,0.8-0.3,1-1,1c-1.4,0-4.1,0.2-4.8,0.2
			c-0.6,0-0.9-0.2-0.9-1.1c0-4.2,4.2-14.3,4.2-21.4c0-1.6-0.6-2.4-1.6-2.4c-0.4,0-0.7-0.2-0.7-0.6C112.6,9.1,115.4,7.6,118.1,7.6
			 M118.1,4.6c-3.6,0-8.5,2.1-8.5,5.6c0,1.5,0.9,2.8,2.3,3.3c-0.1,3.6-1.3,8.2-2.4,12.2c-1,3.5-1.8,6.6-1.8,8.8
			c0,2.4,1.6,4.1,3.9,4.1c0.4,0,1,0,1.9-0.1c1-0.1,2.2-0.1,2.9-0.1c1.3,0,2.4-0.5,3.1-1.3c1.1,0.9,2.4,1.5,4.3,1.5
			c2.2,0,5.3-0.7,7.6-4.3c0.9-1.3,1.3-2.5,1.3-3.6c0-2-1.6-3.6-3.6-3.6c1.5-1.5,2.7-3.5,2.7-5.6c0-2-1.6-4.1-4.6-4.1
			c-0.7,0-1.8,0.2-3,0.5c0.7-2.9,1.2-5.1,1.2-6.5C125.5,7.3,122.5,4.6,118.1,4.6L118.1,4.6z"/>
		<path class="st0" d="M155.7,3.5c4.6,0,7.8,2.1,7.8,6c0,5.7-3.3,10.8-3.3,15.9c0,1.2,0.8,2,2,2c1.8,0,3.6-2,5-4.7
			c1.8-3.8,3.5-11.2,4.6-15.3c0.3-1.3,3.9-2.7,7.1-2.7c0.6,0,0.9,0.3,0.9,0.7c0,0.5-0.6,1.1-1.2,2.6c-1.1,2.6-3.1,10.5-4.8,18.8
			c-2.7,13.2-6.1,24.3-17,24.3c-5.6,0-9.6-3.2-9.6-7.8c0-4.9,4.3-7.8,8.8-7.8c1.6,0,2.4,0.4,2.4,0.9c0,0.4-0.2,0.6-0.7,0.7
			c-1.2,0.2-2.6,1.2-2.6,3c0,2,1.1,3.1,3.4,3.1c3.2,0,6.3-4.9,8.6-15.6c-1.9,2.8-5.2,5.6-9,5.6c-3.8,0-5.9-2.4-5.9-5.9
			c0-5.2,3.9-11.3,3.9-18.5c0-1.2-0.7-2-2-2c-3.7,0-6.6,4.1-6.6,8c0,1.6,0.9,2.3,1.9,2.3c0.6,0,1.2-0.4,1.5-0.4
			c0.3,0,0.5,0.2,0.5,0.5c0,1.9-2.8,5.4-6.3,5.4c-3.1,0-5.3-2.4-5.3-5.7C139.8,8.8,148.3,3.5,155.7,3.5 M155.7,0.5
			c-9.1,0-18.9,6.6-18.9,16.5c0,5,3.5,8.7,8.3,8.7c1.5,0,3-0.4,4.3-1.1c-0.2,0.9-0.3,1.9-0.3,2.8c0,2.4,0.8,4.5,2.1,6.1
			c-4.2,1.6-7,5.3-7,9.9c0,6.3,5.3,10.8,12.6,10.8c14.5,0,17.9-16.7,20-26.7c1.8-9.1,3.8-16.2,4.6-18.3c0.2-0.6,0.5-1,0.6-1.3
			c0.3-0.6,0.8-1.4,0.8-2.5c0-2.1-1.7-3.7-3.9-3.7c-2.8,0-9,1.2-10,5c-0.2,0.9-0.5,2-0.8,3.2c-1,3.8-2.3,8.9-3.5,11.6
			c-0.4,0.7-0.7,1.3-1,1.7c0.3-1.4,0.7-2.9,1.2-4.5c0.9-2.7,1.8-5.9,1.8-9.2C166.5,4.1,162.2,0.5,155.7,0.5L155.7,0.5z M150.6,13.8
			c0.3-1.6,1.3-3,2.4-3.6c-0.1,1.3-0.3,2.6-0.7,3.9c-0.4-0.2-0.9-0.3-1.4-0.3C150.8,13.8,150.7,13.8,150.6,13.8L150.6,13.8z
			 M161.3,35.7c0.1,0,0.2-0.1,0.3-0.1c-0.1,0.2-0.1,0.3-0.2,0.5C161.3,35.9,161.3,35.8,161.3,35.7L161.3,35.7z M158,40.1
			c0.1-0.1,0.2-0.1,0.3-0.1c0.2,0,0.5-0.1,0.7-0.2c-0.3,0.3-0.6,0.3-0.6,0.3C158.2,40.2,158.1,40.2,158,40.1
			C158,40.2,158,40.2,158,40.1L158,40.1z"/>
		<path class="st0" d="M186.5,20.1c4,0,6.3,2.5,6.3,5.9c0,5.4-3,9.7-9.4,9.7c-4.2,0-7.4-2.4-7.4-6.3
			C175.9,24.8,179.9,20.1,186.5,20.1 M185.6,32.1c1.8,0,2.9-1.8,2.9-3.5c0-0.8-0.3-1.5-1-1.8c-1.5-0.6-1.8-1.1-1.8-1.8
			c0-1.1,0.8-1.6,0.8-2c0-0.2-0.1-0.3-0.3-0.3c-0.2,0-0.8,0.2-1.4,0.8c-1,0.9-1.7,2.5-1.7,5.2C183.1,30.8,183.9,32.1,185.6,32.1
			 M186.5,17.1c-3.8,0-7.3,1.3-9.8,3.8c-2.4,2.3-3.7,5.4-3.7,8.6c0,5.4,4.4,9.3,10.4,9.3c7.4,0,12.4-5.1,12.4-12.7
			C195.8,20.8,192,17.1,186.5,17.1L186.5,17.1z"/>
		<path class="st0" d="M211.2,20.3c1.1,0,1.6,0.4,1.6,1.2c0,1.9-1.7,5.9-1.7,8.6c0,1.2,0.5,1.7,1.2,1.7c0.6,0,0.9-0.2,1.3-0.5
			c0.3-0.2,0.5-0.4,0.7-0.4c0.3,0,0.5,0.2,0.5,0.5c0,0.4-0.2,0.8-0.6,1.2c-1.1,1.4-2.9,2.7-5.4,2.7c-3.8,0-4.6-2.6-4.6-2.6
			s-2.2,2.6-6.8,2.6c-2.4,0-4-1.4-4-3.7c0-3,1.6-6.5,1.6-8.2c0-0.8-0.3-0.9-0.3-1.5c0-1.1,3.3-1.8,6.1-1.8c1.1,0,1.6,0.4,1.6,1.2
			c0,2.2-1.8,5.2-1.8,8.7c0,0.7,0.5,1.2,1.2,1.2c0.8,0,1.2-0.6,1.8-1.7c1.1-1.9,1.7-4.3,1.7-6.1c0-0.8-0.3-0.9-0.3-1.5
			C205.1,21,208.4,20.3,211.2,20.3 M211.2,17.3c-1.3,0-4.5,0.1-6.8,1.3c-0.8-0.8-1.9-1.3-3.5-1.3c-2.1,0-9.1,0.3-9.1,4.8
			c0,0.8,0.2,1.3,0.3,1.7c-0.1,0.4-0.3,1.4-0.5,2.1c-0.5,1.7-1.1,3.9-1.1,6c0,3.9,3,6.7,7,6.7c2.7,0,4.8-0.7,6.3-1.5
			c1.2,0.9,2.8,1.5,5.1,1.5c3.1,0,5.8-1.4,7.8-3.9c0.5-0.7,1.2-1.7,1.2-3c0-2-1.5-3.5-3.4-3.5c0.2-0.7,0.4-1.5,0.6-2.2
			c0.4-1.6,0.8-3.1,0.8-4.3C215.9,19.5,214.4,17.3,211.2,17.3L211.2,17.3z"/>
		<path class="st0" d="M242.6,3.5c3.9,0,6.4,1.8,6.4,5.2c0,2.3-1.5,4.2-3.5,4.2c-1.3,0-2.4-0.9-2.4-2.3c0-1.6,1.6-2.2,1.6-3.4
			c0-0.7-0.4-1.2-1.3-1.2c-1.3,0-2.7,1.4-2.7,3.6c0,5.6,6.8,8.2,6.8,15.2c0,6.4-6,11.2-12.9,11.2c-5.1,0-9.6-2.7-9.6-7.4
			c0-4.4,5-6.5,8.4-6.5c1.6,0,2.1,0.4,2.1,0.9c0,0.5-0.3,0.8-0.9,1.2c-1.3,1-2.6,2.5-2.6,4.8s1.5,3.5,3.5,3.5c2.3,0,3.8-2.2,3.8-5.5
			c0-7.2-6.3-9.6-6.3-15.3C233,6.3,238.6,3.5,242.6,3.5 M242.6,0.5c-5.3,0-12.6,3.8-12.6,11c0,3.2,1.4,5.5,2.8,7.6
			c-5.3,0.2-10.8,3.8-10.8,9.5c0,6,5.3,10.4,12.6,10.4c8.7,0,15.9-6.4,15.9-14.2c0-4-1.7-6.8-3.4-9.1c2.8-0.8,5-3.6,5-7
			C252,3.7,248.3,0.5,242.6,0.5L242.6,0.5z M235,29.3c0,0,0-0.1,0-0.4c0-0.9,0.4-1.7,1.3-2.3c0,0.1,0,0.2,0,0.3
			c0,1.6-0.5,2.5-0.8,2.5C235.2,29.3,235.1,29.3,235,29.3L235,29.3z"/>
		<path class="st0" d="M255.8,7.6c2.5,0,4.3,1.3,4.3,3.7c0,2.7-2.1,9.6-2.7,11.7c1.2-1.3,3.4-2.7,6.1-2.7c2.6,0,4.3,1.2,4.3,3.3
			c0,2.4-1.4,4.3-1.4,6.8c0,0.7,0.6,1.2,1.2,1.2c0.8,0,1.2-0.4,1.8-1c0.3-0.3,0.5-0.5,0.8-0.5c0.4,0,0.7,0.4,0.7,0.7
			c0,0.5-0.3,0.9-0.8,1.5c-1,1.3-3.1,3.2-6.1,3.2c-2.9,0-4.9-1.5-4.9-3.7c0-2.6,1.5-5.1,1.5-6.9c0-0.6-0.3-0.9-0.9-0.9
			c-0.9,0-1.7,0.8-2.6,2.7c-0.9,1.6-1.9,6.3-1.9,7.5c0,0.8-0.3,1-1,1c-1.5,0-4.2,0.2-5,0.2c-0.6,0-0.9-0.2-0.9-1.1
			c0-4.1,4.2-14.7,4.2-21.4c0-1.6-0.6-2.4-1.6-2.4c-0.4,0-0.7-0.2-0.7-0.6C250.3,9.1,253.1,7.6,255.8,7.6 M255.8,4.6
			c-3.6,0-8.5,2.1-8.5,5.6c0,1.5,0.9,2.8,2.3,3.3c-0.1,3.4-1.3,7.9-2.4,12c-1,3.7-1.8,6.8-1.8,9c0,2.4,1.6,4.1,3.9,4.1
			c0.4,0,1,0,1.9-0.1c1-0.1,2.3-0.1,3-0.1c1.7,0,3-0.8,3.6-2.2c1.4,1.5,3.6,2.4,6.2,2.4c4.6,0,7.5-3,8.5-4.3
			c0.6-0.8,1.4-1.8,1.4-3.4c0-2-1.6-3.7-3.7-3.7c0,0-0.1,0-0.1,0c0.3-1,0.6-2.2,0.6-3.6c0-3.1-2.3-6.3-7.3-6.3c-0.5,0-1,0-1.4,0.1
			c0.6-2.3,1-4.6,1-6.1C263.1,7.3,260.1,4.6,255.8,4.6L255.8,4.6z"/>
		<path class="st0" d="M280,20.1c4,0,6.3,2.5,6.3,5.9c0,5.4-3,9.7-9.4,9.7c-4.2,0-7.4-2.4-7.4-6.3C269.5,24.8,273.4,20.1,280,20.1
			 M279.2,32.1c1.8,0,2.9-1.8,2.9-3.5c0-0.8-0.3-1.5-1-1.8c-1.5-0.6-1.8-1.1-1.8-1.8c0-1.1,0.8-1.6,0.8-2c0-0.2-0.1-0.3-0.3-0.3
			c-0.2,0-0.8,0.2-1.4,0.8c-1,0.9-1.7,2.5-1.7,5.2C276.7,30.8,277.5,32.1,279.2,32.1 M280,17.1c-3.8,0-7.3,1.3-9.8,3.8
			c-2.4,2.3-3.7,5.4-3.7,8.6c0,5.4,4.4,9.3,10.4,9.3c7.4,0,12.4-5.1,12.4-12.7C289.3,20.8,285.5,17.1,280,17.1L280,17.1z"/>
		<path class="st0" d="M304.7,20.3c1.1,0,1.6,0.4,1.6,1.2c0,1.9-1.7,5.6-1.7,8.4c0,1,0.6,1.7,1.3,1.7c0.8,0,1.2-0.4,1.8-1
			c0.3-0.3,0.5-0.5,0.8-0.5c0.4,0,0.7,0.4,0.7,0.7c0,0.5-0.3,0.9-0.8,1.5c-1,1.3-3,3.2-6,3.2c-3.8,0-4.6-2.6-4.6-2.6
			s-2.2,2.6-6.8,2.6c-2.4,0-4-1.4-4-3.7c0-3,1.6-6.5,1.6-8.2c0-0.8-0.3-0.9-0.3-1.5c0-1.1,3.3-1.8,6.1-1.8c1.1,0,1.6,0.4,1.6,1.2
			c0,2.2-1.8,5.2-1.8,8.7c0,0.7,0.5,1.2,1.2,1.2c0.8,0,1.2-0.6,1.8-1.7c1.1-1.9,1.7-4.3,1.7-6.1c0-0.8-0.3-0.9-0.3-1.5
			C298.6,21,301.9,20.3,304.7,20.3 M304.7,17.3c-1.3,0-4.5,0.1-6.8,1.3c-0.8-0.8-1.9-1.3-3.5-1.3c-2.1,0-9.1,0.3-9.1,4.8
			c0,0.8,0.2,1.3,0.3,1.7c-0.1,0.4-0.3,1.4-0.5,2.1c-0.5,1.7-1.1,3.9-1.1,6c0,3.9,3,6.7,7,6.7c2.7,0,4.8-0.7,6.3-1.5
			c1.2,0.9,2.8,1.5,5.1,1.5c4.4,0,7.2-2.7,8.4-4.3c0.6-0.8,1.4-1.8,1.4-3.4c0-2-1.6-3.7-3.7-3.7c-0.2,0-0.3,0-0.5,0
			c0.1-0.5,0.3-1,0.4-1.4c0.4-1.6,0.8-2.9,0.8-4.2C309.3,19.5,307.9,17.3,304.7,17.3L304.7,17.3z"/>
		<path class="st0" d="M314.7,7.6c2.5,0,4.3,1.3,4.3,3.7c0,4-3.8,14.1-3.8,18.7c0,1,0.5,1.7,1.3,1.7c0.8,0,1.2-0.4,1.8-1
			c0.3-0.3,0.5-0.5,0.8-0.5c0.4,0,0.7,0.4,0.7,0.7c0,0.5-0.3,0.9-0.8,1.5c-1,1.3-3,3.2-6,3.2c-3.2,0-5.2-2-5.2-4.5
			c0-4.4,3.7-10.5,3.7-18c0-1.6-0.6-2.4-1.6-2.4c-0.4,0-0.7-0.2-0.7-0.6C309.2,9.1,312,7.6,314.7,7.6 M314.7,4.6
			c-3.6,0-8.5,2.1-8.5,5.6c0,1.6,0.9,2.8,2.3,3.3c-0.1,3.6-1.1,7-2.1,10c-0.8,2.7-1.6,5.2-1.6,7.5c0,4.4,3.4,7.5,8.2,7.5
			c4.4,0,7.2-2.7,8.4-4.3c0.6-0.8,1.4-1.8,1.4-3.4c0-2-1.6-3.7-3.7-3.7c-0.2,0-0.4,0-0.6,0c0.4-1.9,1-4.2,1.6-6.4
			c1-3.7,1.9-7.2,1.9-9.5C322,7.3,319,4.6,314.7,4.6L314.7,4.6z"/>
		<path class="st0" d="M335.8,7.6c2.5,0,4.1,1.3,4.1,3.7c0,4.3-4,12.6-4,18.4c0,1.6,0.6,2.3,1.2,2.3c0.6,0,0.9-0.2,1.3-0.5
			c0.3-0.2,0.5-0.4,0.7-0.4c0.3,0,0.5,0.2,0.5,0.5c0,0.4-0.2,0.8-0.6,1.2c-1.1,1.4-2.9,2.7-5.4,2.7c-2.9,0-4-2.4-4-2.4
			s-2.5,2.4-6,2.4c-3.4,0-5.4-2-5.4-5.6c0-5.4,4-9.6,9.4-9.6c1.7,0,3.1,0.5,3.5,0.8c0.7-2.8,1.2-5.5,1.2-8.1c0-1.6-0.6-2.4-1.6-2.4
			c-0.5,0-0.7-0.2-0.7-0.6C330.1,9.1,333.1,7.6,335.8,7.6 M326.7,32.2c1.7,0,3-5.3,3-8.3c0-0.6-0.3-0.9-0.9-0.9
			c-1.6,0-3.3,4.3-3.3,7.4C325.6,31.4,326,32.2,326.7,32.2 M335.8,4.6c-3.1,0-8.8,1.9-8.8,5.6c0,1.6,0.9,2.8,2.3,3.3
			c0,1.2-0.2,2.5-0.4,3.9c-0.4,0-0.8-0.1-1.3-0.1c-6.9,0-12.4,5.6-12.4,12.6c0,5.1,3.4,8.6,8.4,8.6c2.2,0,4.1-0.7,5.5-1.4
			c1.1,0.8,2.6,1.4,4.5,1.4c3.1,0,5.8-1.4,7.8-3.9c0.3-0.4,1.2-1.5,1.2-3c0-2-1.5-3.5-3.5-3.5c-0.1,0-0.1,0-0.2,0
			c0.3-2.4,1.2-5.4,2-8.1c1-3.2,1.9-6.3,1.9-8.7C342.9,7.3,340.1,4.6,335.8,4.6L335.8,4.6z"/>
		<path class="st0" d="M375.9,3.5c3.9,0,6,2.1,6,5.8c0,4.9-4.9,10.1-11,11.1c-0.6,2.1-1.2,4-1.9,5.9c2.4,1.5,4.8,2.6,7.4,2.6
			c2.2,0,3.7-0.8,4.7-2c0.4-0.5,0.7-0.8,1-0.8c0.5,0,0.7,0.3,0.7,0.9c0,2-2.4,8.8-7.3,8.8c-3.3,0-6.3-2.7-8.8-5.5
			c-2,3.4-5.2,5.5-9.5,5.5c-5.1,0-8.3-2.6-8.3-7.1c0-4.4,3.9-7.2,7.9-7.2c2.4,0,4.8,0.7,6.8,1.7c0.4-0.9,0.6-1.6,0.9-2.8
			c-5.6-0.9-11.9-4-11.9-9.5c0-3.6,2.7-6.4,6.3-6.4c4.4,0,6,3.5,6,5.1c0,0.4-0.2,0.7-0.7,0.7c-0.4,0-1-0.3-1.6-0.3
			c-1.2,0-2.3,1.2-2.3,2.7c0,2.1,1.8,3.4,4.9,4.4C367.5,8.1,370.8,3.5,375.9,3.5 M371.7,16.9c2.9-0.7,5.7-3.7,5.7-5.9
			c0-1-0.5-1.4-1.2-1.4C374.8,9.5,373.4,10.5,371.7,16.9 M358.3,29c1.8,0,3.1-1.2,4-2.6c-1.2-0.8-2.4-1.7-3.8-1.7
			c-1.4,0-2.5,1-2.5,2.2C356,28.2,357.1,29,358.3,29 M375.9,0.5c-4.2,0-7.2,2.3-9.2,5.1c-1.4-2.2-4.1-4.1-7.8-4.1
			c-5.2,0-9.3,4.1-9.3,9.4c0,3,1.4,5.8,3.9,8c-4.8,1.4-7.6,5.6-7.6,9.8c0,6.1,4.4,10.1,11.3,10.1c3.8,0,7.2-1.4,9.8-4
			c2.4,2.2,5.3,4,8.6,4c6.8,0,10.3-8.3,10.3-11.8c0-2.2-1.6-3.9-3.7-3.9c-1.8,0-2.8,1.3-3.3,1.9c-0.2,0.2-0.7,0.9-2.4,0.9
			c-1.1,0-2.3-0.3-3.7-1c0.2-0.6,0.4-1.3,0.6-1.9C379.9,21,385,15.2,385,9.2C385,3.9,381.4,0.5,375.9,0.5L375.9,0.5z"/>
		<path class="st0" d="M391.6,20.2c3.3,0,5,1.6,5,3.7c0,2.9-2.9,5.6-7.5,5.6c0,1.4,1.7,2.5,4,2.5c1.9,0,3.2-1,4.4-2.1
			c0.4-0.4,0.7-0.6,1-0.6c0.4,0,0.7,0.2,0.7,0.6c0,0.5-0.3,0.9-1,1.6c-1.6,1.6-4.1,4-8.9,4c-4.5,0-8.1-2-8.1-6.6
			C381.3,24.4,385.3,20.2,391.6,20.2 M388.9,27.2c2.4-0.5,3.5-2.6,3.5-3.6c0-0.6-0.3-0.9-0.8-0.9C390.3,22.7,388.9,25.1,388.9,27.2
			 M391.6,17.2c-7.6,0-13.4,5.1-13.4,11.8c0,5.8,4.3,9.6,11.1,9.6c6.1,0,9.3-3.2,11.1-4.9l0.1-0.1l0.1-0.1c0.8-0.9,1.7-1.9,1.7-3.6
			c0-1.8-1.3-3.3-3-3.6c0.3-0.8,0.4-1.6,0.4-2.5C399.6,20.6,397.2,17.2,391.6,17.2L391.6,17.2z"/>
		<path class="st0" d="M416.3,20.3c0.4,0,0.7,0.2,0.7,0.7c0,1.2-1.7,4.9-1.7,8.6c0,1.2,0.8,2,1.6,2c0.8,0,1.2-0.4,1.8-1
			c0.3-0.3,0.5-0.5,0.8-0.5c0.4,0,0.7,0.4,0.7,0.7c0,0.5-0.3,0.9-0.8,1.5c-1,1.3-3.3,3.2-6.3,3.2c-2.7,0-3.8-2.3-3.9-2.5
			c-0.1,0.1-2,2.5-5.8,2.5c-3,0-5.6-1.9-5.6-5.6c0-4.8,2.9-9.6,9.7-9.6c2.5,0,3.5,0.9,4.3,0.9C413.1,21.2,415.2,20.3,416.3,20.3
			 M406.2,32.2c1.7,0,3-5.3,3-8.3c0-0.6-0.3-0.9-0.9-0.9c-1.6,0-3.3,4.3-3.3,7.4C405,31.4,405.5,32.2,406.2,32.2 M416.3,17.3
			c-0.9,0-1.9,0.3-2.9,0.5c-0.4,0.1-1,0.3-1.3,0.3c0,0,0,0-0.1,0c-0.8-0.3-2.2-0.9-4.4-0.9c-5.1,0-8.1,2.2-9.7,4c-2,2.2-3,5.3-3,8.6
			c0,5,3.6,8.6,8.6,8.6c2.3,0,4.1-0.6,5.4-1.4c1.1,0.8,2.5,1.4,4.3,1.4c3.9,0,7.1-2.2,8.7-4.3c0.6-0.8,1.4-1.8,1.4-3.4
			c0-2-1.6-3.7-3.7-3.7c-0.4,0-0.7,0.1-1,0.1c0.2-1.2,0.6-2.4,0.8-3.3c0.4-1.2,0.6-2.1,0.6-2.9C420,18.9,418.4,17.3,416.3,17.3
			L416.3,17.3z"/>
		<path class="st0" d="M433.1,20.3c2,0,3.3,1.2,3.3,3.3c0,5-6.9,12-13.3,12c-2.6,0-4.2-1.4-4.2-3.7c0-3.2,1.6-6.5,1.6-8.2
			c0-0.8-0.3-0.9-0.3-1.5c0-1.1,3.3-1.8,6-1.8c1.1,0,1.6,0.4,1.6,1.2c0,2.1-1.7,5.8-1.7,8.7c0,0.8,0.4,1.2,1.1,1.2
			c1.7,0,4-3.1,4-5.5c0-0.9-1.2-1.2-1.2-2.9C430,21.3,431.5,20.3,433.1,20.3 M433.1,17.3c-1.4,0-2.6,0.4-3.6,1.1
			c-0.8-0.7-1.8-1.1-3.2-1.1c-2.1,0-9,0.3-9,4.8c0,0.8,0.2,1.3,0.3,1.6c0,0.4-0.3,1.3-0.5,2c-0.5,1.7-1.1,3.9-1.1,6.1
			c0,4,2.9,6.7,7.2,6.7c3.8,0,7.8-1.8,11.2-4.9c3.3-3,5.2-6.8,5.2-10C439.4,19.9,436.8,17.3,433.1,17.3L433.1,17.3z"/>
		<path class="st0" d="M447.3,20.2c3.3,0,5,1.6,5,3.7c0,2.9-3.2,5.6-7.8,5.6c0.1,1.6,1.4,2.9,3.2,2.9c1.6,0,2.8-0.7,3.6-1.2
			c0.5-0.3,0.8-0.6,1.1-0.6c0.4,0,0.6,0.3,0.6,0.6c0,0.5-0.3,0.9-1.1,1.6c-1.1,1.1-3.6,2.8-7.2,2.8c-4.5,0-7.9-2-7.9-6.6
			C437,24.4,440.9,20.2,447.3,20.2 M444.6,27.2c2.4-0.5,3.5-2.6,3.5-3.6c0-0.6-0.3-0.9-0.8-0.9C446,22.7,444.6,25.1,444.6,27.2
			 M447.3,17.2c-7.6,0-13.4,5.1-13.4,11.8c0,5.8,4.3,9.6,10.9,9.6c4.1,0,7.5-1.9,9.3-3.7c0.8-0.8,1.9-1.9,1.9-3.8
			c0-1.4-0.8-2.6-2-3.2c0.8-1.2,1.2-2.6,1.2-4C455.3,20.6,452.8,17.2,447.3,17.2L447.3,17.2z"/>
		<path class="st0" d="M484.4,3.5c7.7,0,14.6,3.3,14.6,12.3c0,4-0.4,7.2-1.6,10.2c-2.5,6.4-7.5,9.7-12.5,9.7c-3.2,0-6-1.7-6.8-1.7
			c-1.1,0-3.6,1.7-4.9,1.7c-0.5,0-0.8-0.2-0.8-0.6c0-0.6,0.7-1.1,1.6-3.4c0.8-2.1,3.1-15.3,4.4-20.5c0.8-3.3,2.2-4.3,3.5-5.2
			c-6.3,0.4-10.6,5.1-10.6,8.4c0,1.5,0.9,2.1,2,2.1c0.8,0,1.2-0.5,1.6-0.5s0.5,0.2,0.5,0.5c0,1.6-2.5,5.4-6.7,5.4
			c-3.1,0-5.4-2.2-5.4-5.5C463.4,8.8,473.7,3.5,484.4,3.5 M484,32.7c2.1,0,4.4-2.8,5.8-7.2c1-3.3,1.7-7.2,1.7-11.2
			c0-5.5-1.9-7.5-3.6-7.8c-0.8,1-1.3,2.2-2.1,4.9c-1.6,5.7-3.7,18-3.7,19.2C482,31.9,482.7,32.7,484,32.7 M484.4,0.5
			c-5.8,0-11.6,1.5-16,4c-5.2,3-8,7.2-8,11.8c0,4.9,3.5,8.5,8.4,8.5c1.4,0,2.8-0.3,4-0.9c-0.6,3-1.2,6-1.5,6.6c-0.4,1-0.7,1.6-1,2
			c-0.3,0.6-0.8,1.4-0.8,2.5c0,2.1,1.6,3.6,3.8,3.6c1.4,0,2.7-0.6,4-1.2c0.3-0.1,0.6-0.3,0.9-0.4c0.1,0,0.2,0.1,0.4,0.1
			c1.4,0.6,3.8,1.5,6.5,1.5c6.6,0,12.4-4.5,15.3-11.6c1.3-3.2,1.8-6.7,1.8-11.3C502,6.3,495.3,0.5,484.4,0.5L484.4,0.5z M475,12.9
			C475,12.9,475,12.8,475,12.9C475,12.8,475,12.9,475,12.9C475,12.9,475,12.9,475,12.9L475,12.9z M485.3,28.1
			c0.6-3.9,1.9-10.8,3-15.1c0,0.4,0,0.8,0,1.2c0,3.4-0.5,7-1.5,10.4C486.4,26.1,485.8,27.3,485.3,28.1L485.3,28.1z"/>
		<path class="st0" d="M506.2,7.6c2.5,0,4.1,1.3,4.1,3.7c0,2.4-2.2,8.5-2.6,10.8c0.6-0.7,2.2-1.7,4.3-1.7c3,0,5.3,1.3,5.3,4.9
			c0,4.7-3.6,10.3-10.2,10.3c-4.9,0-7.6-2.5-7.6-6.2c0-4.6,3.3-10,3.3-16.3c0-1.6-0.6-2.4-1.6-2.4c-0.5,0-0.7-0.2-0.7-0.6
			C500.5,9.1,503.5,7.6,506.2,7.6 M507.4,32.7c1.5,0,3.1-5.7,3.1-7.6c0-0.9-0.3-1.3-1.1-1.3c-1.2,0-3,4.7-3,7.8
			C506.4,32.2,506.7,32.7,507.4,32.7 M506.2,4.6c-3.6,0-8.7,2.1-8.7,5.6c0,1.5,0.9,2.8,2.3,3.3c-0.1,2.8-0.9,5.5-1.7,8.1
			c-0.8,2.7-1.6,5.2-1.6,7.8c0,5.5,4.3,9.2,10.6,9.2c8.2,0,13.2-6.9,13.2-13.3c0-4.8-3.1-7.9-8.2-7.9c0.7-2.6,1.2-4.6,1.2-6
			C513.3,7.3,510.5,4.6,506.2,4.6L506.2,4.6z"/>
	</g>
</g>
<g>
	<path class="st1" d="M11.2,35.9c-5.1,0-8.2-3-8.2-7.1c0-4.5,4.1-7,7.4-7c1.2,0,1.6,0.3,1.6,0.6c0,0.4-0.2,0.6-0.7,0.8
		c-1.1,0.5-2.2,1.5-2.2,2.9c0,1.5,1,2.6,2.7,2.6c7.2,0,5.2-18.6,8-20.6c-3,1.4-6,3.2-6,6.9c0,1.2,0.4,2,1.2,2.5
		c0.5,0.3,0.7,0.4,0.7,0.8c0,0.3-0.5,0.7-1.4,0.7c-2.8,0-6.9-1.8-6.9-5.2c0-4.9,6.8-6.8,11.8-8.3c1.4-0.4,2.1-1.3,3-1.6
		c1.3-0.4,3.3-0.5,3.9-0.5c0.6,0,1,0.2,1,0.7c0,0.5-0.3,1-1.1,2.8C24,12.4,27.7,35.9,11.2,35.9z"/>
	<path class="st1" d="M62.9,5.7c-1.1,1.4-2.6,2.5-4.7,2.7c-3.6,2.5,0.5,27.6-15.2,27.6c-5.6,0-8.4-3.1-8.4-7.2
		c0-4.7,4.5-7.2,7.8-7.2c1.2,0,1.6,0.3,1.6,0.7s-0.3,0.6-0.6,0.8c-1.2,0.5-2.3,1.6-2.3,3c0,1.6,1.1,2.6,2.7,2.6
		c5.1,0,5.2-12.4,7.5-18.1c0.5-1.3,1.3-2.3,2.2-2.8c-1.7-0.6-2.9-0.9-4.8-0.9c-2.7,0-4.5,1.6-4.5,3.4c0,1.4,0.8,2,2,2
		c0.8,0,1.1-0.5,1.5-0.5c0.3,0,0.5,0.2,0.5,0.5c0,2-2.3,5.1-5.8,5.1c-3.3,0-5.7-2.4-5.7-5.7c0-5.2,5.2-8.2,10.7-8.2
		c5.4,0,8.2,1.1,10.6,1.1c3.2,0,4.7-1.5,5.4-1.5c0.3,0,0.5,0.1,0.5,0.5C63.6,4.1,63.2,5.2,62.9,5.7z"/>
	<path class="st1" d="M69.4,31.9c0-2.6,1.5-5.1,1.5-6.9c0-0.6-0.3-0.9-0.9-0.9c-0.9,0-1.7,0.8-2.6,2.7c-0.9,1.6-1.9,6.3-1.9,7.5
		c0,0.8-0.3,1-1,1c-1.5,0-4.2,0.2-5,0.2c-0.6,0-0.9-0.2-0.9-1.1c0-4.1,4.2-14.7,4.2-21.4c0-1.6-0.6-2.4-1.6-2.4
		c-0.4,0-0.7-0.2-0.7-0.6c0-1,2.8-2.6,5.5-2.6c2.5,0,4.3,1.3,4.3,3.7c0,2.7-2.1,9.6-2.7,11.7c1.2-1.3,3.4-2.7,6.1-2.7
		c2.6,0,4.3,1.2,4.3,3.3c0,2.4-1.4,4.3-1.4,6.8c0,0.7,0.6,1.2,1.2,1.2c0.8,0,1.2-0.4,1.8-1c0.3-0.3,0.5-0.5,0.8-0.5
		c0.4,0,0.7,0.4,0.7,0.7c0,0.5-0.3,0.9-0.8,1.5c-1,1.3-3.1,3.2-6.1,3.2C71.4,35.5,69.4,34.1,69.4,31.9z"/>
	<path class="st1" d="M79.7,31.6c0-3.1,1.6-6.2,1.6-7.9c0-0.8-0.3-0.9-0.3-1.5c0-1.1,3.3-1.8,6-1.8c1.1,0,1.6,0.4,1.6,1.2
		c0,1.9-1.5,4.9-1.5,8.5c0,1,0.8,1.6,1.4,1.6c0.7,0,1.1-0.4,1.7-1c0.3-0.3,0.5-0.5,0.8-0.5c0.4,0,0.7,0.4,0.7,0.7
		c0,0.5-0.3,0.9-0.8,1.5c-1,1.3-3.1,3.2-6.1,3.2C81.8,35.5,79.7,33.8,79.7,31.6z M86.3,11.3c1.7,0,3.2,1.1,3.2,2.5c0,2.4-2,4-3.8,4
		c-2,0-3.2-1.2-3.2-2.6C82.5,13.3,84,11.3,86.3,11.3z"/>
	<path class="st1" d="M100.9,31.9c0-2.9,1.5-5,1.5-6.9c0-0.6-0.3-1-0.9-1c-0.8,0-1.5,0.6-2.5,2.7c-0.8,1.6-2.1,5.7-2.1,7.6
		c0,0.8-0.3,1-1.1,1c-1.4,0-4,0.2-4.8,0.2c-0.6,0-1-0.2-1-1.1c0-1.8,2-8.3,2-10.8c0-0.8-0.3-0.9-0.3-1.5c0-1.1,3.2-1.8,6-1.8
		c1.1,0,1.6,0.4,1.6,1.2c0,0.8-0.3,1.8-0.3,1.8c0.9-1.1,3.5-3.1,6.3-3.1c2.6,0,3.9,1.2,3.9,3c0,2.2-1.3,4.8-1.3,6.8
		c0,0.9,0.6,1.5,1.3,1.5c0.8,0,1.2-0.4,1.8-1c0.3-0.3,0.5-0.5,0.8-0.5c0.4,0,0.7,0.4,0.7,0.7c0,0.5-0.3,0.9-0.8,1.5
		c-1,1.3-3.1,3.2-6.1,3.2C103,35.5,100.9,33.9,100.9,31.9z"/>
	<path class="st1" d="M126.7,31c1.4,0,1.6-1,2.4-1c0.4,0,0.6,0.2,0.6,0.6c0,0.5-0.3,1.2-0.8,2c-1,1.4-2.5,2.9-5.1,2.9
		c-4.2,0-4.7-6.4-5.2-6.4c0,0-1.2,4.1-1.2,5.1c0,0.8-0.3,1-1,1c-1.4,0-4.1,0.2-4.8,0.2c-0.6,0-0.9-0.2-0.9-1.1
		c0-4.2,4.2-14.3,4.2-21.4c0-1.6-0.6-2.4-1.6-2.4c-0.4,0-0.7-0.2-0.7-0.6c0-1,2.8-2.6,5.5-2.6c2.5,0,4.3,1.3,4.3,3.7
		c0,3-3.4,13.3-3.4,15.2c1.1,0,2.9-1.6,2.9-2.5c0-0.5-0.3-0.6-0.3-1.1c0-1,3.5-2.5,5.7-2.5c1,0,1.6,0.4,1.6,1.1c0,2-2.4,4.6-6,6.5
		C123.5,29.6,125.3,31,126.7,31z"/>
	<path class="st1" d="M160.2,25.4c0,1.2,0.8,2,2,2c1.8,0,3.6-2,5-4.7c1.8-3.8,3.5-11.2,4.6-15.3c0.3-1.3,3.9-2.7,7.1-2.7
		c0.6,0,0.9,0.3,0.9,0.7c0,0.5-0.6,1.1-1.2,2.6c-1.1,2.6-3.1,10.5-4.8,18.8c-2.7,13.2-6.1,24.3-17,24.3c-5.6,0-9.6-3.2-9.6-7.8
		c0-4.9,4.3-7.8,8.8-7.8c1.6,0,2.4,0.4,2.4,0.9c0,0.4-0.2,0.6-0.7,0.7c-1.2,0.2-2.6,1.2-2.6,3c0,2,1.1,3.1,3.4,3.1
		c3.2,0,6.3-4.9,8.6-15.6c-1.9,2.8-5.2,5.6-9,5.6c-3.8,0-5.9-2.4-5.9-5.9c0-5.2,3.9-11.3,3.9-18.5c0-1.2-0.7-2-2-2
		c-3.7,0-6.6,4.1-6.6,8c0,1.6,0.9,2.3,1.9,2.3c0.6,0,1.2-0.4,1.5-0.4c0.3,0,0.5,0.2,0.5,0.5c0,1.9-2.8,5.4-6.3,5.4
		c-3.1,0-5.3-2.4-5.3-5.7c0-8.2,8.5-13.5,15.9-13.5c4.6,0,7.8,2.1,7.8,6C163.5,15.1,160.2,20.2,160.2,25.4z"/>
	<path class="st1" d="M192.8,26c0,5.4-3,9.7-9.4,9.7c-4.2,0-7.4-2.4-7.4-6.3c0-4.7,3.9-9.3,10.5-9.3C190.5,20.1,192.8,22.7,192.8,26
		z M187.6,26.8c-1.5-0.6-1.8-1.1-1.8-1.8c0-1.1,0.8-1.6,0.8-2c0-0.2-0.1-0.3-0.3-0.3c-0.2,0-0.8,0.2-1.4,0.8c-1,0.9-1.7,2.5-1.7,5.2
		c0,2.2,0.8,3.4,2.5,3.4c1.8,0,2.9-1.8,2.9-3.5C188.6,27.8,188.3,27,187.6,26.8z"/>
	<path class="st1" d="M212.4,31.9c0.6,0,0.9-0.2,1.3-0.5c0.3-0.2,0.5-0.4,0.7-0.4c0.3,0,0.5,0.2,0.5,0.5c0,0.4-0.2,0.8-0.6,1.2
		c-1.1,1.4-2.9,2.7-5.4,2.7c-3.8,0-4.6-2.6-4.6-2.6s-2.2,2.6-6.8,2.6c-2.4,0-4-1.4-4-3.7c0-3,1.6-6.5,1.6-8.2c0-0.8-0.3-0.9-0.3-1.5
		c0-1.1,3.3-1.8,6.1-1.8c1.1,0,1.6,0.4,1.6,1.2c0,2.2-1.8,5.2-1.8,8.7c0,0.7,0.5,1.2,1.2,1.2c0.8,0,1.2-0.6,1.8-1.7
		c1.1-1.9,1.7-4.3,1.7-6.1c0-0.8-0.3-0.9-0.3-1.5c0-1.1,3.3-1.8,6.1-1.8c1.1,0,1.6,0.4,1.6,1.2c0,1.9-1.7,5.9-1.7,8.6
		C211.2,31.4,211.7,31.9,212.4,31.9z"/>
	<path class="st1" d="M239.3,26.8c0-7.2-6.3-9.6-6.3-15.3c0-5.2,5.6-8,9.6-8c3.9,0,6.4,1.8,6.4,5.2c0,2.3-1.5,4.2-3.5,4.2
		c-1.3,0-2.4-0.9-2.4-2.3c0-1.6,1.6-2.2,1.6-3.4c0-0.7-0.4-1.2-1.3-1.2c-1.3,0-2.7,1.4-2.7,3.6c0,5.6,6.8,8.2,6.8,15.2
		c0,6.4-6,11.2-12.9,11.2c-5.1,0-9.6-2.7-9.6-7.4c0-4.4,5-6.5,8.4-6.5c1.6,0,2.1,0.4,2.1,0.9c0,0.5-0.3,0.8-0.9,1.2
		c-1.3,1-2.6,2.5-2.6,4.8s1.5,3.5,3.5,3.5C237.8,32.3,239.3,30.1,239.3,26.8z"/>
	<path class="st1" d="M259.2,31.9c0-2.6,1.5-5.1,1.5-6.9c0-0.6-0.3-0.9-0.9-0.9c-0.9,0-1.7,0.8-2.6,2.7c-0.9,1.6-1.9,6.3-1.9,7.5
		c0,0.8-0.3,1-1,1c-1.5,0-4.2,0.2-5,0.2c-0.6,0-0.9-0.2-0.9-1.1c0-4.1,4.2-14.7,4.2-21.4c0-1.6-0.6-2.4-1.6-2.4
		c-0.4,0-0.7-0.2-0.7-0.6c0-1,2.8-2.6,5.5-2.6c2.5,0,4.3,1.3,4.3,3.7c0,2.7-2.1,9.6-2.7,11.7c1.2-1.3,3.4-2.7,6.1-2.7
		c2.6,0,4.3,1.2,4.3,3.3c0,2.4-1.4,4.3-1.4,6.8c0,0.7,0.6,1.2,1.2,1.2c0.8,0,1.2-0.4,1.8-1c0.3-0.3,0.5-0.5,0.8-0.5
		c0.4,0,0.7,0.4,0.7,0.7c0,0.5-0.3,0.9-0.8,1.5c-1,1.3-3.1,3.2-6.1,3.2C261.2,35.5,259.2,34.1,259.2,31.9z"/>
	<path class="st1" d="M286.3,26c0,5.4-3,9.7-9.4,9.7c-4.2,0-7.4-2.4-7.4-6.3c0-4.7,3.9-9.3,10.5-9.3C284,20.1,286.3,22.7,286.3,26z
		 M281.2,26.8c-1.5-0.6-1.8-1.1-1.8-1.8c0-1.1,0.8-1.6,0.8-2c0-0.2-0.1-0.3-0.3-0.3c-0.2,0-0.8,0.2-1.4,0.8c-1,0.9-1.7,2.5-1.7,5.2
		c0,2.2,0.8,3.4,2.5,3.4c1.8,0,2.9-1.8,2.9-3.5C282.1,27.8,281.8,27,281.2,26.8z"/>
	<path class="st1" d="M297.9,32.9c0,0-2.2,2.6-6.8,2.6c-2.4,0-4-1.4-4-3.7c0-3,1.6-6.5,1.6-8.2c0-0.8-0.3-0.9-0.3-1.5
		c0-1.1,3.3-1.8,6.1-1.8c1.1,0,1.6,0.4,1.6,1.2c0,2.2-1.8,5.2-1.8,8.7c0,0.7,0.5,1.2,1.2,1.2c0.8,0,1.2-0.6,1.8-1.7
		c1.1-1.9,1.7-4.3,1.7-6.1c0-0.8-0.3-0.9-0.3-1.5c0-1.1,3.3-1.8,6.1-1.8c1.1,0,1.6,0.4,1.6,1.2c0,1.9-1.7,5.6-1.7,8.4
		c0,1,0.6,1.7,1.3,1.7c0.8,0,1.2-0.4,1.8-1c0.3-0.3,0.5-0.5,0.8-0.5c0.4,0,0.7,0.4,0.7,0.7c0,0.5-0.3,0.9-0.8,1.5
		c-1,1.3-3,3.2-6,3.2C298.6,35.5,297.9,32.9,297.9,32.9z"/>
	<path class="st1" d="M307.8,31c0-4.4,3.7-10.5,3.7-18c0-1.6-0.6-2.4-1.6-2.4c-0.4,0-0.7-0.2-0.7-0.6c0-1,2.8-2.6,5.5-2.6
		c2.5,0,4.3,1.3,4.3,3.7c0,4-3.8,14.1-3.8,18.7c0,1,0.5,1.7,1.3,1.7c0.8,0,1.2-0.4,1.8-1c0.3-0.3,0.5-0.5,0.8-0.5
		c0.4,0,0.7,0.4,0.7,0.7c0,0.5-0.3,0.9-0.8,1.5c-1,1.3-3,3.2-6,3.2C309.8,35.5,307.8,33.5,307.8,31z"/>
	<path class="st1" d="M337.1,31.9c0.6,0,0.9-0.2,1.3-0.5c0.3-0.2,0.5-0.4,0.7-0.4c0.3,0,0.5,0.2,0.5,0.5c0,0.4-0.2,0.8-0.6,1.2
		c-1.1,1.4-2.9,2.7-5.4,2.7c-2.9,0-4-2.4-4-2.4s-2.5,2.4-6,2.4c-3.4,0-5.4-2-5.4-5.6c0-5.4,4-9.6,9.4-9.6c1.7,0,3.1,0.5,3.5,0.8
		c0.7-2.8,1.2-5.5,1.2-8.1c0-1.6-0.6-2.4-1.6-2.4c-0.5,0-0.7-0.2-0.7-0.6c0-1,3-2.6,5.8-2.6c2.5,0,4.1,1.3,4.1,3.7
		c0,4.3-4,12.6-4,18.4C335.9,31.3,336.5,31.9,337.1,31.9z M328.9,23c-1.6,0-3.3,4.3-3.3,7.4c0,1,0.4,1.8,1.2,1.8c1.7,0,3-5.3,3-8.3
		C329.7,23.3,329.4,23,328.9,23z"/>
	<path class="st1" d="M369,26.2c2.4,1.5,4.8,2.6,7.4,2.6c2.2,0,3.7-0.8,4.7-2c0.4-0.5,0.7-0.8,1-0.8c0.5,0,0.7,0.3,0.7,0.9
		c0,2-2.4,8.8-7.3,8.8c-3.3,0-6.3-2.7-8.8-5.5c-2,3.4-5.2,5.5-9.5,5.5c-5.1,0-8.3-2.6-8.3-7.1c0-4.4,3.9-7.2,7.9-7.2
		c2.4,0,4.8,0.7,6.8,1.7c0.4-0.9,0.6-1.6,0.9-2.8c-5.6-0.9-11.9-4-11.9-9.5c0-3.6,2.7-6.4,6.3-6.4c4.4,0,6,3.5,6,5.1
		c0,0.4-0.2,0.7-0.7,0.7c-0.4,0-1-0.3-1.6-0.3c-1.2,0-2.3,1.2-2.3,2.7c0,2.1,1.8,3.4,4.9,4.4c2.2-8.9,5.5-13.5,10.6-13.5
		c3.9,0,6,2.1,6,5.8c0,4.9-4.9,10.1-11,11.1C370.3,22.4,369.7,24.4,369,26.2z M362.3,26.4c-1.2-0.8-2.4-1.7-3.8-1.7
		c-1.4,0-2.5,1-2.5,2.2c0,1.2,1.1,2.1,2.4,2.1C360.2,29,361.5,27.8,362.3,26.4z M371.7,16.9c2.9-0.7,5.7-3.7,5.7-5.9
		c0-1-0.5-1.4-1.2-1.4C374.8,9.5,373.4,10.5,371.7,16.9z"/>
	<path class="st1" d="M397.6,30c0.4-0.4,0.7-0.6,1-0.6c0.4,0,0.7,0.2,0.7,0.6c0,0.5-0.3,0.9-1,1.6c-1.6,1.6-4.1,4-8.9,4
		c-4.5,0-8.1-2-8.1-6.6c0-4.7,4-8.8,10.4-8.8c3.3,0,5,1.6,5,3.7c0,2.9-2.9,5.6-7.5,5.6c0,1.4,1.7,2.5,4,2.5
		C395,32,396.4,31,397.6,30z M392.4,23.6c0-0.6-0.3-0.9-0.8-0.9c-1.3,0-2.7,2.4-2.7,4.5C391.4,26.8,392.4,24.6,392.4,23.6z"/>
	<path class="st1" d="M413.2,35.5c-2.7,0-3.8-2.3-3.9-2.5c-0.1,0.1-2,2.5-5.8,2.5c-3,0-5.6-1.9-5.6-5.6c0-4.8,2.9-9.6,9.7-9.6
		c2.5,0,3.5,0.9,4.3,0.9c1.2,0,3.4-0.9,4.5-0.9c0.4,0,0.7,0.2,0.7,0.7c0,1.2-1.7,4.9-1.7,8.6c0,1.2,0.8,2,1.6,2c0.8,0,1.2-0.4,1.8-1
		c0.3-0.3,0.5-0.5,0.8-0.5c0.4,0,0.7,0.4,0.7,0.7c0,0.5-0.3,0.9-0.8,1.5C418.5,33.7,416.2,35.5,413.2,35.5z M408.4,23
		c-1.6,0-3.3,4.3-3.3,7.4c0,1,0.4,1.8,1.2,1.8c1.7,0,3-5.3,3-8.3C409.2,23.3,408.9,23,408.4,23z"/>
	<path class="st1" d="M420.2,22.1c0-1.1,3.3-1.8,6-1.8c1.1,0,1.6,0.4,1.6,1.2c0,2.1-1.7,5.8-1.7,8.7c0,0.8,0.4,1.2,1.1,1.2
		c1.7,0,4-3.1,4-5.5c0-0.9-1.2-1.2-1.2-2.9c0-1.7,1.5-2.7,3.1-2.7c2,0,3.3,1.2,3.3,3.3c0,5-6.9,12-13.3,12c-2.6,0-4.2-1.4-4.2-3.7
		c0-3.2,1.6-6.5,1.6-8.2C420.4,22.8,420.2,22.7,420.2,22.1z"/>
	<path class="st1" d="M447.8,32.5c1.6,0,2.8-0.7,3.6-1.2c0.5-0.3,0.8-0.6,1.1-0.6c0.4,0,0.6,0.3,0.6,0.6c0,0.5-0.3,0.9-1.1,1.6
		c-1.1,1.1-3.6,2.8-7.2,2.8c-4.5,0-7.9-2-7.9-6.6c0-4.7,4-8.8,10.4-8.8c3.3,0,5,1.6,5,3.7c0,2.9-3.2,5.6-7.8,5.6
		C444.6,31.2,445.9,32.5,447.8,32.5z M448.1,23.6c0-0.6-0.3-0.9-0.8-0.9c-1.3,0-2.7,2.4-2.7,4.5C447,26.8,448.1,24.6,448.1,23.6z"/>
	<path class="st1" d="M473.4,16.4c0.8,0,1.2-0.5,1.6-0.5s0.5,0.2,0.5,0.5c0,1.6-2.5,5.4-6.7,5.4c-3.1,0-5.4-2.2-5.4-5.5
		c0-7.5,10.4-12.8,21-12.8c7.7,0,14.6,3.3,14.6,12.3c0,4-0.4,7.2-1.6,10.2c-2.5,6.4-7.5,9.7-12.5,9.7c-3.2,0-6-1.7-6.8-1.7
		c-1.1,0-3.6,1.7-4.9,1.7c-0.5,0-0.8-0.2-0.8-0.6c0-0.6,0.7-1.1,1.6-3.4c0.8-2.1,3.1-15.3,4.4-20.5c0.8-3.3,2.2-4.3,3.5-5.2
		c-6.3,0.4-10.6,5.1-10.6,8.4C471.4,15.9,472.3,16.4,473.4,16.4z M487.8,6.5c-0.8,1-1.3,2.2-2.1,4.9c-1.6,5.7-3.7,18-3.7,19.2
		c0,1.2,0.7,2,2,2c2.1,0,4.4-2.8,5.8-7.2c1-3.3,1.7-7.2,1.7-11.2C491.4,8.7,489.5,6.7,487.8,6.5z"/>
	<path class="st1" d="M507.7,22.1c0.6-0.7,2.2-1.7,4.3-1.7c3,0,5.3,1.3,5.3,4.9c0,4.7-3.6,10.3-10.2,10.3c-4.9,0-7.6-2.5-7.6-6.2
		c0-4.6,3.3-10,3.3-16.3c0-1.6-0.6-2.4-1.6-2.4c-0.5,0-0.7-0.2-0.7-0.6c0-1,3-2.6,5.7-2.6c2.5,0,4.1,1.3,4.1,3.7
		C510.3,13.7,508.1,19.8,507.7,22.1z M507.4,32.7c1.5,0,3.1-5.7,3.1-7.6c0-0.9-0.3-1.3-1.1-1.3c-1.2,0-3,4.7-3,7.8
		C506.4,32.2,506.7,32.7,507.4,32.7z"/>
</g>
</svg>
