<?xml version="1.0" encoding="UTF-8"?>
<svg width="176px" height="31px" viewBox="0 0 176 31" version="1.1" xmlns="http://www.w3.org/2000/svg" xmlns:xlink="http://www.w3.org/1999/xlink">
    <title>logo-mobile</title>
    <g id="Page-1" stroke="none" stroke-width="1" fill="none" fill-rule="evenodd">
        <g id="logo-mobile" transform="translate(0.336000, 0.840000)" fill-rule="nonzero">
            <path d="M84.4224966,0 C85.7979638,0 86.9856507,0.219589927 88.8041311,0.701826768 L89.718,0.947 L89.7758575,0.921348096 C90.2322276,0.718516962 90.6171721,0.587092512 91.0489649,0.530782073 L91.3146086,0.50603915 L91.5555556,0.499314129 C92.9420736,0.499314129 94.4527056,1.56171467 95.6013709,3.08607406 C96.2899539,1.77533723 97.801317,0.991803046 99.7732789,0.551778498 C101.263076,0.219344422 102.864911,0.106995885 104.537723,0.106995885 L105.260693,0.111346548 C105.378452,0.112804661 105.49485,0.11463322 105.609897,0.116838145 L106.284048,0.134631429 L106.926263,0.161741576 C107.030664,0.167052123 107.133755,0.172762709 107.235545,0.178879254 L107.830767,0.220497375 L108.39527,0.272142596 C108.853025,0.319437154 109.279287,0.377472539 109.675327,0.44698858 L110.136148,0.535965893 C112.740593,1.08769846 113.888956,2.21648383 114.016328,4.17608324 L114.024756,4.34608947 L114.027435,4.53223594 C114.027435,5.46417621 113.715835,6.2748431 113.087847,6.88020022 C112.70759,7.24675429 112.372699,7.43554809 111.848608,7.64537387 L111.229893,7.88391624 C111.204077,7.8980847 111.195711,7.9156291 111.194966,7.95770842 L111.208694,8.27183955 L111.20972,20.403291 L111.21374,20.7051107 L111.22504,20.9483856 C111.259889,21.4166035 111.370169,21.5168912 111.712984,21.5373467 L111.88829,21.5421681 L112.170096,21.5418381 C113.968468,21.5418381 114.502006,21.1847189 114.885318,20.2816603 L114.93727,20.1540561 L115.158164,19.524153 L115.224175,19.3273534 C115.820651,17.573968 116.614811,16.5843621 118.447188,16.5843621 C120.044201,16.5843621 121.192711,17.3741212 121.882929,18.5477439 L122.118347,8.30959486 L122.119629,8.16202487 L122.113251,7.91918334 L122.09855,7.74107516 C122.095645,7.71645172 122.092574,7.6942756 122.089426,7.67442186 L122.067,7.57 L122.007611,7.55132008 L121.688314,7.41414907 C120.317637,6.81380094 119.514403,5.85489131 119.514403,4.1399177 C119.514403,2.47934137 120.503,1.30231779 121.966198,0.72091473 C122.732915,0.416258888 123.583166,0.280861696 124.489026,0.254534614 L124.831276,0.249657064 L136.458162,0.249657064 C142.040208,0.249657064 146.110497,2.07280658 148.619565,5.19210701 C149.958896,2.23821782 155.723247,0.499314129 160.211248,0.499314129 C161.459129,0.499314129 162.480545,1.13986295 162.904208,2.2696324 C163.040743,2.63372369 163.098027,2.99327324 163.112656,3.38825377 L163.116014,3.70449386 L163.101915,4.09506795 L162.979,8.037 L163.253181,7.92067361 C164.059713,7.59346852 164.909761,7.38163954 165.814791,7.30638757 L166.206061,7.2825604 L166.559671,7.27572016 C171.623067,7.27572016 175.550069,11.5322606 175.550069,17.1577503 C175.550069,24.3930421 170.058586,30 162.85048,30 C160.569559,30 158.640686,29.4998268 156.900497,28.6297323 L156.565555,28.457682 C156.513069,28.4298604 156.46171,28.402169 156.410667,28.3741629 L156.101705,28.1987912 L155.761359,27.9945139 L155.472,27.814 L155.444629,27.8247431 C154.754045,28.0805149 154.134999,28.2167353 153.363512,28.2167353 C151.756205,28.2167353 150.293553,27.4536125 150.293553,25.5034294 C150.293553,25.277063 150.317869,25.0812955 150.366363,24.8489427 L150.407265,24.6667685 L150.632186,23.7518124 L150.685529,23.4796852 C150.801102,22.872925 150.889516,22.1663879 150.944071,21.3185603 L150.978534,20.6555489 C150.987836,20.4252821 150.994917,20.1855359 150.999673,19.9356618 L151.006161,19.52002 C149.328661,25.6004064 144.275042,29.6790123 136.707819,29.6790123 L135.69953,29.6736336 L134.761195,29.6575473 C134.610625,29.6539781 134.462962,29.6499659 134.318201,29.6455122 L133.48444,29.6135048 C133.351274,29.6072914 133.221004,29.6006397 133.093624,29.5935511 L132.720154,29.5709767 L130.710264,29.5108136 L129.998711,29.501648 L129.162688,29.5038561 L128.372335,29.518725 L126.828365,29.5669339 C125.777753,29.6419776 124.731521,29.6790123 123.654321,29.6790123 C122.295004,29.6790123 120.983683,29.2437493 120.08517,28.4095471 C119.193501,29.3803933 118.136054,30 117.020576,30 C116.604646,30 116.225603,29.9612343 115.790161,29.8863927 L114.82529,29.7074425 C114.235977,29.5833766 113.655598,29.516509 112.86795,29.5031813 L112.562444,29.5006859 L100.158101,29.5003335 L99.872128,29.4954303 L99.6138147,29.4843522 L99.481526,29.4759206 C97.3140027,29.3243713 95.6899863,28.295004 95.6899863,25.9314129 C95.6899863,25.7418995 95.6999634,25.5624653 95.7196121,25.3923999 C93.4144168,28.2067209 89.4132391,30 84.2085048,30 C81.1627784,30 77.00762,29.2261166 74.8109727,28.0312169 C72.5312884,26.7488945 71.2592593,22.8245492 71.2592593,19.7256516 C71.2592593,18.0368055 72.0494754,16.5224287 73.5469875,15.9964224 L73.7378543,15.9358783 L73.857,15.905 L73.7932054,15.8205017 C72.7389176,14.3704525 72.0930787,12.7318654 71.9618024,10.9779459 L71.9424395,10.625646 L71.9368999,10.3100137 C71.9368999,9.32328438 72.103931,8.35962192 72.4198412,7.44235541 C72.0830389,7.57525413 71.7062517,7.68353712 71.2935378,7.77373143 L70.676134,7.91349827 L70.5263009,7.95276076 L70.404778,7.98983001 L70.2359204,8.05199334 C70.0350988,8.13181819 69.8745956,8.22672123 69.7368404,8.34955449 L69.6375148,8.44711717 L65.305,13.202 L65.2102626,13.320543 C64.4204889,14.3281733 64.1825989,14.868282 64.1179582,16.2062616 L64.1028627,16.6567794 L64.0966354,17.1691966 L64.0985624,18.0856354 L64.1118699,18.9581792 L64.1354714,19.7138181 L64.1562746,20.1544619 L64.180678,20.5458956 L64.2082916,20.8892181 L64.2387254,21.1855286 L64.2715895,21.4359261 C64.2772477,21.4738939 64.2829909,21.5099946 64.288811,21.5442508 L64.3245893,21.7278394 L64.337,21.776 L64.8072248,22.0131072 C66.1657912,22.7118872 66.9849108,23.6709002 66.9849108,25.3251029 C66.9849108,27.6517663 65.2404838,28.8847001 62.6730916,29.4630774 C61.3889313,29.7523707 60.0324539,29.8644451 58.4377495,29.8879847 L57.9520254,29.8924792 L57.6021948,29.8930041 C57.094741,29.8930041 56.607393,29.8844213 56.1400065,29.8672354 L55.4538798,29.8350015 C55.3420145,29.8285529 55.2313922,29.821566 55.1220108,29.8140404 L54.4805943,29.7624207 C49.8858001,29.3364368 47.6844993,27.866382 47.6844993,25.3251029 C47.6844993,24.3176239 48.0131821,23.4553617 48.6715086,22.8095117 C49.0713868,22.4172119 49.4153761,22.2174748 49.9860718,21.9785616 L50.5135124,21.7627854 L50.57,21.737 L50.603212,21.6263697 L50.6530135,21.4235821 L50.6995487,21.1810323 L50.7425631,20.8977878 L50.781802,20.5729159 L50.8170106,20.2054841 L50.8479342,19.7945598 L50.8743182,19.3392104 L50.8959079,18.8385033 L50.9124487,18.291506 L50.9272358,17.3821758 L50.9300412,16.7297668 L50.9291041,16.5060331 L50.9193647,16.1113465 C50.8809156,15.2630725 50.7161173,14.8793686 50.0830464,14.0349471 L49.812,13.679 L45.8139564,9.04588509 C45.7178753,8.93411731 45.6173486,8.83335291 45.5104392,8.74097792 L45.3450458,8.60838075 L45.301,8.577 L45.3004115,8.59807956 C45.3004115,11.424268 43.5725707,13.4465693 40.7886108,13.5538184 L40.5541838,13.558299 C38.7727091,13.558299 37.5856336,12.8389938 36.5892898,11.5140638 L36.42,11.278 L36.4195967,20.817584 C36.4197907,20.9080125 36.4205293,20.9870457 36.4227075,21.0565082 L36.4344556,21.2380084 C36.4582645,21.4465916 36.5194263,21.5312383 36.6752213,21.6087249 L36.8107063,21.6673218 L37.2949073,21.8499665 C38.8010427,22.4314847 39.7009602,23.4124598 39.7009602,25.218107 C39.7009602,28.318821 36.94426,29.8354327 30.7165041,29.8915594 L29.8117317,29.8930202 C27.7958177,29.8869492 26.1225634,29.7810887 24.5621241,29.4568918 C21.7453522,28.8716793 19.8655693,27.643018 19.8655693,25.218107 C19.8655693,24.1538186 20.2591429,23.2500394 21.01598,22.6170295 C21.406178,22.2906724 21.7351209,22.1179783 22.2466349,21.9348218 L22.998395,21.6834856 L23.042,21.667 L23.0743312,21.5039753 L23.12702,21.170548 C23.1357663,21.108532 23.1444637,21.0435663 23.1530653,20.97606 L23.2031479,20.5438081 L23.2486745,20.0702195 C23.2557573,19.9889343 23.2625563,19.9067449 23.2690245,19.8240605 L23.3034888,19.325286 L23.3170393,19.0775799 L23.608,11.106 L23.4553548,11.2974854 C22.3751707,12.6248651 21.2718838,13.3934725 19.7520775,13.5345927 L19.4794726,13.5529686 L19.2263374,13.558299 C17.6194333,13.558299 16.3492892,12.6840552 15.6399525,11.4233163 L15.63025,12.2080211 L15.6280938,12.5694079 L15.6275374,17.1819043 L15.6348028,18.1368263 L15.6568137,19.2354798 L15.6729922,19.7131865 L15.7035906,20.3442188 L15.7416411,20.8768821 C15.7462769,20.9307796 15.7510477,20.9829443 15.7559525,21.0334059 L15.7869809,21.3159734 L15.8211766,21.5590854 L15.849,21.714 L16.4344933,22.0295124 C17.6960957,22.7096956 18.4390103,23.5460243 18.5101478,24.9857091 L18.5127711,25.4064858 L18.4941317,25.7006056 L18.4754106,25.8640753 C18.1621904,28.1420408 16.2419787,29.3397386 12.1001772,29.7387658 L11.4933121,29.790367 C11.2859418,29.8057766 11.0734676,29.8194056 10.855823,29.8312844 L10.1873119,29.8617003 C10.0732861,29.8659047 9.95795107,29.869679 9.8412986,29.8730273 L9.12550776,29.8880332 L8.37769936,29.8929939 L8.04386707,29.8919095 C6.54674471,29.8807571 5.26568011,29.7740431 4.07392555,29.4653781 C1.90076704,28.9025291 0.392318244,27.6969188 0.392318244,25.5747599 C0.392318244,24.2020109 0.985887278,23.4052435 2.05234024,22.6740896 L2.24542209,22.5456396 L2.601,22.314 L2.61406742,22.269112 C2.64072668,22.1759254 2.66803147,22.0565118 2.69491561,21.9095871 L2.72162004,21.7534445 L2.77138855,21.3999674 L2.81461486,21.0056372 C2.82137659,20.9357605 2.82791524,20.8637886 2.83422818,20.7896945 L2.86937625,20.3194522 L2.89898102,19.796998 L2.92291626,19.2210489 L2.94105573,18.5903221 L2.95327319,17.9035343 L2.95944241,17.1594028 L2.95806319,12.614628 L2.94731896,11.7789176 L2.92866942,11.0510797 L2.90335932,10.4253014 L2.87263344,9.89577019 L2.83773652,9.45667323 L2.79991332,9.10219782 L2.7604086,8.82653123 L2.72046713,8.62386075 L2.69421153,8.52643 L2.66868385,8.45713624 C2.66033693,8.43853646 2.6521728,8.42433912 2.64425293,8.41425719 C2.59093383,8.34702876 2.50710576,8.27153056 2.36052835,8.16555442 L1.88722846,7.84554237 C0.664133855,7.02311902 0,6.16967759 0,4.67489712 C0,2.22946926 1.96829775,1.10947389 4.98561311,0.529419251 C6.34765145,0.267578319 7.79059596,0.14943571 9.17728045,0.116666912 L9.7677294,0.107680067 L9.98902606,0.106995885 C11.8809795,0.106995885 13.1971676,0.189386372 14.5129484,0.49898185 C15.8624824,0.816519261 16.9712204,1.36514546 17.6768217,2.19694718 C18.8167332,0.879131418 20.2080356,0 21.6159122,0 C21.8490058,0 22.0557569,0.0238034602 22.3163458,0.0723273883 L22.5816972,0.125873908 L23.304,0.283 L23.6058939,0.328547845 C24.1626729,0.409235546 24.6484375,0.459560832 25.196681,0.483223901 L25.6216642,0.496029851 L26.0027435,0.499314129 L35.0425907,0.498106178 L35.511207,0.488023553 L35.9149543,0.466787482 C36.2310934,0.444133105 36.5048295,0.40869662 36.7990846,0.357568191 L37.1170366,0.295367633 L37.3541149,0.226984475 L37.5371925,0.177670984 C38.0119523,0.0560086174 38.4537825,0 39.0205761,0 C40.2061945,0 41.4289189,0.655172062 42.4768245,1.71424126 C43.7740191,0.697084286 46.1843698,0.206154297 50.0367659,0.120661513 L50.8844713,0.108503283 C51.0294742,0.107496517 51.1763464,0.106995885 51.3251029,0.106995885 L52.14766,0.112837049 L52.927705,0.130607008 L53.665901,0.160675458 C56.8946177,0.324209636 58.8723157,0.872540055 59.8709308,1.95726579 L59.9778727,2.08000596 L60.013,2.125 L60.0942772,2.01775561 C60.8081233,1.13267984 62.015529,0.621253625 63.516079,0.349937314 L63.8200382,0.29883595 L64.0685945,0.262405433 C64.7804283,0.164523606 65.4000164,0.124889215 66.1712679,0.112107601 L66.8751715,0.106995885 L67.5173427,0.111442265 L68.1287215,0.12518297 C68.3274218,0.131379187 68.5210491,0.139224849 68.7096627,0.148820349 L69.2605212,0.182956748 L69.781652,0.228194516 C72.9887582,0.551126337 74.4285987,1.57823176 74.506901,3.9980947 C76.7261824,1.59270755 80.2340881,0 84.4224966,0 Z M84.4224966,4 C79.292446,4 75.9368999,7.08301449 75.9368999,10.3100137 C75.9368999,12.0442701 76.8784612,13.7042079 78.5762065,15.0624057 C79.0673441,15.4562007 79.6015622,15.7988255 80.1894225,16.1045168 C80.7007141,16.3703919 81.241499,16.6038803 81.8644797,16.8339512 L82.332428,17.0007424 L83.1062005,17.2573184 L84.3067428,17.6491026 C86.8674838,18.5166589 88.170096,19.5080606 88.170096,21.7229081 C88.170096,24.3638161 85.7353749,25.4705075 83.4238683,25.4705075 C79.9232965,25.4705075 77.6806793,24.1777844 75.9610861,21.8105521 L75.7128268,21.4527672 L75.369,20.936 L75.3994647,21.1295527 C75.4477987,21.4083398 75.5078082,21.6955513 75.5781989,21.9797453 L75.691409,22.4023427 L75.7859516,22.7111578 C76.1166675,23.7314516 76.5327534,24.4103286 76.7470391,24.531098 C78.2377159,25.341817 81.7716523,26 84.2085048,26 C90.5458964,26 93.9423868,22.9551462 93.9423868,19.1193416 C93.9423868,17.209119 93.2561039,16.0136583 91.5194311,14.8652098 C91.0857747,14.5773517 90.6204979,14.3218522 90.1160954,14.0906627 C89.511505,13.8135527 88.8646494,13.5763124 88.0935092,13.3388695 L86.0572852,12.754233 C83.0566283,11.8824755 81.6021948,10.8707757 81.6021948,8.38408779 C81.6021948,5.91680153 83.5967247,4.60082305 85.8847737,4.60082305 C87.9793108,4.60082305 89.460643,5.36728233 91.2215704,6.93002938 L91.6880576,7.3553969 L92.2516894,7.87652893 L92.571554,8.15826549 L92.6645809,8.2357536 C93.0675678,8.56586214 93.2773569,8.66666667 93.3744856,8.66666667 C93.3859903,8.66666667 93.478738,8.54987326 93.478738,8.24142661 C93.478738,7.35468503 93.0717987,6.34315022 92.3960313,5.47845863 C92.1539062,5.16864261 91.894974,4.90289788 91.6559567,4.70868349 L91.51523,4.60095817 L91.449,4.555 L91.1851891,4.67264978 C91.0730461,4.72176352 90.9745266,4.76212533 90.8698287,4.80019727 C90.594639,4.90026626 90.3233388,4.9672207 90.0312788,4.98999971 L89.8079561,4.99862826 L89.6850311,4.99638925 C89.578304,4.99233378 89.4766717,4.982571 89.3667165,4.96550077 L89.1317331,4.92114293 L88.8507011,4.8544539 L88.4997666,4.76258898 L87.8228959,4.57998992 L87.2064487,4.42114958 C87.1089541,4.3969248 87.013948,4.37381283 86.9212284,4.35179644 L86.3907318,4.23270702 C85.6312934,4.07337939 85.0243216,4 84.4224966,4 Z M118.658436,21.6515775 L118.658,21.622 L118.567357,21.84454 C117.687064,23.9184505 116.065352,25.1911741 113.393445,25.4792098 L113.087,25.507 L113.336844,25.514746 C113.949692,25.5380872 114.486299,25.5902589 114.98442,25.669531 L115.278977,25.7203325 L115.566109,25.7775551 L115.83405,25.8248415 L116.467726,25.9441971 L116.676413,25.9761094 L116.848,25.992 L116.884088,25.964022 L116.939916,25.9156289 C117.180306,25.6983166 117.457011,25.3363512 117.715942,24.8807649 C118.244059,23.9515459 118.595918,22.8248427 118.650894,21.8988465 L118.658436,21.6515775 Z M38.905,4.001 L38.7957575,4.00699952 C38.7293304,4.01232148 38.6737393,4.02042379 38.6171834,4.03212125 L38.4833376,4.06482772 L38.1077413,4.17270496 L37.9505313,4.21081842 C37.0214951,4.39662566 36.3017903,4.48420283 35.1128163,4.49750869 L34.776406,4.49931413 L26.0027435,4.49931413 C24.8698494,4.49931413 24.0329703,4.43163324 23.0534228,4.29028735 L22.623603,4.225183 L21.59,4.003 L21.5495208,4.0079167 C20.8547332,4.1650341 19.2386444,6.62951135 19.0360717,8.5975234 L19.0202539,8.79922491 L19.0150892,8.99039781 C19.0150892,9.38147292 19.1542579,9.55829904 19.2263374,9.55829904 C19.5809889,9.55829904 19.9326251,9.31815355 20.4780507,8.6152838 L20.7540752,8.2433671 L21.3118865,7.45122091 C21.3887357,7.34387623 21.4593483,7.24736909 21.5275526,7.15693632 L21.7287686,6.89909798 C22.4652115,5.98920021 23.2291496,5.42366802 24.2929945,5.35653602 L24.5098429,5.34980059 L24.6010236,5.35009819 C26.818103,5.37393582 27.6678156,7.03356954 27.6245194,10.5313226 L27.6091162,11.1313357 L27.3235048,19.0209512 L27.2890284,19.7255563 C27.1941009,21.3417917 26.9919564,22.7491021 26.5599599,23.6530292 C26.1428032,24.4456269 25.6182347,24.895471 24.8757992,25.2357188 L24.6855875,25.3186324 L24.617,25.345 L24.7404109,25.3838684 L24.9383186,25.4385304 L25.1502728,25.4908562 L25.3757891,25.5405224 C26.4920551,25.7724379 27.7965743,25.8696329 29.3460588,25.8893735 L29.8183098,25.8931781 L30.3539095,25.8931781 C30.6066304,25.8931781 30.8504623,25.8908396 31.0855121,25.8862751 L31.7644217,25.8660153 C33.2875678,25.8036839 34.3856258,25.6377765 35.0952616,25.4068206 L35.261,25.349 L35.1800344,25.3151688 C33.5066757,24.5722937 32.5633839,23.3421758 32.4349055,21.0660572 L32.4234046,20.7878664 L32.4197531,20.5102881 L32.4181942,9.49980532 C32.4066477,8.98745969 32.4286486,8.55706061 32.536977,8.05287002 C32.8646759,6.5276674 33.8990876,5.34979424 35.6680384,5.34979424 C37.1511661,5.34979424 37.9698187,6.08091459 38.7932538,7.45269934 L38.9552668,7.73075258 L39.3624896,8.45544939 C39.8741047,9.34325218 40.1256002,9.55829904 40.5541838,9.55829904 C41.1532244,9.55829904 41.3004115,9.39253487 41.3004115,8.59807956 C41.3004115,7.29174173 40.8459814,6.05049831 40.0952761,5.07196696 C39.7878503,4.67124284 39.4529312,4.34842216 39.1503517,4.14236446 C39.0660152,4.08493096 38.9915501,4.04171735 38.9321492,4.01301274 L38.905,4.001 Z M67.189779,4.10799613 L66.5683866,4.10795189 L66.0159343,4.1167301 C65.4977263,4.13083919 65.0692501,4.16244774 64.6134935,4.22511727 C64.3076126,4.26717791 64.0372986,4.32060494 63.8120392,4.38102718 L63.6516907,4.42758717 L63.581,4.451 L63.698044,4.59818885 C64.0742502,5.08740449 64.311927,5.56829648 64.3892997,6.17823224 L64.4107577,6.41327538 L64.4170096,6.63648834 C64.4170096,8.56374411 62.0436473,11.3470508 59.9917695,11.3470508 C57.9030045,11.3470508 55.6735254,8.20454679 55.6735254,6.31550069 C55.6735254,5.70038854 55.8285095,5.23167889 56.1136486,4.77667672 L56.2266282,4.60643427 L56.307,4.497 L56.2480479,4.48204345 C56.0340348,4.43042335 55.7875398,4.38318082 55.5076595,4.3409292 L55.0626871,4.28137162 C54.9059413,4.26281793 54.7407363,4.24558864 54.566959,4.2297604 L54.0197975,4.18655556 L53.4205249,4.1522171 C53.3162659,4.14725844 53.2098073,4.14268838 53.1011352,4.13851651 L52.4224253,4.11834012 C52.304842,4.11579931 52.1850169,4.11367585 52.0629357,4.11197932 L51.3251029,4.10699588 L50.513417,4.11251875 L49.7576391,4.12877021 C49.636296,4.13234642 49.517253,4.13634982 49.4004956,4.14077053 L48.7272593,4.17222301 C47.7581915,4.22667523 46.9718717,4.31332299 46.3576055,4.424942 L46.107,4.474 L46.1503609,4.49354894 C46.3650459,4.58888119 46.5671478,4.68596515 46.7622652,4.78924088 L47.0504027,4.9493533 L47.3322625,5.12208338 C47.7980199,5.42161756 48.2256621,5.77083564 48.6155849,6.18173707 L48.8450154,6.43577593 L52.8751937,11.1079296 L52.9394726,11.1863849 C54.5114034,13.2074388 54.9300412,14.3132743 54.9300412,16.7297668 L54.9266167,17.4869349 L54.916141,18.1951824 L54.8983104,18.8564582 L54.8728215,19.472711 C54.8679183,19.5717762 54.8626834,19.6690466 54.8571103,19.7645629 L54.8195648,20.3169355 L54.7736021,20.8291572 C54.7652233,20.9112898 54.7564812,20.9918307 54.7473694,21.0708204 L54.6882117,21.5264699 C54.6775959,21.5994174 54.6665977,21.670895 54.6552109,21.7409433 L54.5821753,22.1444053 C54.4784412,22.6603512 54.3490235,23.0900156 54.1906845,23.4541859 C53.8370191,24.2597571 53.3551833,24.7571369 52.6821889,25.1439369 L52.4938581,25.2468347 L52.317,25.334 L52.4497267,25.3775535 C53.3818043,25.6611393 54.8304387,25.8488074 56.841131,25.88615 L57.2247335,25.8913768 L57.5991807,25.8930064 L57.9408295,25.8924982 C59.473243,25.8862292 60.7382814,25.7987035 61.7940099,25.560871 C61.939147,25.5281747 62.0745456,25.4934286 62.1994318,25.4572782 L62.37878,25.4020802 L62.535,25.347 L62.4507084,25.3041613 C61.8014739,24.9609127 61.3516295,24.6202851 60.9996252,24.0673122 L60.8857749,23.8748284 L60.7878604,23.6847049 C60.5939244,23.2752846 60.4487515,22.7784737 60.3428164,22.1408361 L60.2838877,21.7409268 C60.2657635,21.6017057 60.2491326,21.456424 60.2339189,21.3046542 L60.1924527,20.8294532 C60.1862249,20.7468666 60.1803322,20.662551 60.1747653,20.5764531 L60.1451959,20.0380504 L60.1229863,19.4543071 L60.1076791,18.8226581 L60.0988171,18.1405386 L60.0960219,17.4430727 C60.0960219,14.3094842 60.4317914,12.9552235 62.0279666,10.8972479 L62.2105532,10.6655619 L62.2938981,10.567972 L66.6916007,5.74132111 C67.2877212,5.09751106 67.9765704,4.64565034 68.7583995,4.33487992 L69.0648945,4.22168129 L69.19,4.182 L69.0135248,4.16876966 L68.7543191,4.15233866 L68.1829719,4.12689613 C68.0817805,4.12349599 67.9775772,4.12052128 67.8703194,4.11797995 L67.189779,4.10799613 Z M10.3489371,4.10824231 L9.78982267,4.10761469 C8.45643915,4.11694792 7.00576007,4.2143056 5.74075372,4.45749291 C5.39525838,4.52391161 5.08404025,4.59871405 4.81395325,4.67892424 L4.61920718,4.74004934 L4.501,4.781 L4.53273272,4.80322033 C4.8799202,5.04219472 5.16999279,5.27254623 5.43410065,5.54009385 L5.62779988,5.74844476 L5.78388496,5.93582466 C6.32701393,6.62707971 6.64388355,7.56000632 6.80925117,9.15827442 L6.85439115,9.65813876 L6.89088956,10.2004656 C6.89627742,10.2945332 6.90132389,10.390476 6.90603834,10.4883469 L6.93041541,11.0991338 L6.94727225,11.7587382 L6.95705743,12.4697023 L6.96021948,13.2345679 L6.95958169,17.1583677 L6.95433998,17.9073648 L6.94350032,18.6087401 L6.92669096,19.2643462 L6.90354017,19.8760354 L6.8736762,20.4456601 C6.86811879,20.5371952 6.86226618,20.6270547 6.85611062,20.7152772 L6.81547989,21.2252787 C6.79328488,21.4707667 6.76822392,21.7022171 6.74008791,21.9206721 L6.67965389,22.3405635 C6.48567989,23.5501078 6.17598578,24.3168215 5.70540539,24.8657749 C5.55880852,25.0398587 5.40991757,25.1870135 5.24312164,25.3263317 L5.06977921,25.4637449 L4.943,25.555 L5.07683513,25.5931472 C5.69532752,25.753337 6.44299422,25.839767 7.30200572,25.8744294 L7.67691856,25.8861794 L8.38408779,25.8930041 L9.1369439,25.887618 L9.84196156,25.8717081 L10.4997045,25.8456473 L11.1107364,25.8098082 C11.502646,25.7827388 11.8637907,25.7493992 12.1949222,25.7102862 L12.6692034,25.6473488 L13.0990286,25.5761242 C13.3708852,25.5259616 13.6134803,25.4705226 13.8275654,25.4103042 L13.9827953,25.3642521 L14.109,25.322 L13.8836308,25.1988228 L13.4558423,24.9485822 L13.2564485,24.8170078 L13.0718297,24.6781642 C12.4804429,24.2011918 12.1260724,23.5723913 11.9163879,22.4850295 L11.8577308,22.1447575 C11.8486473,22.0856504 11.8399024,22.0253202 11.8314846,21.9637287 L11.7848105,21.5787353 L11.7454327,21.1616273 L11.7127971,20.7105642 L11.6863498,20.2237057 L11.6655367,19.6992113 L11.649804,19.1352406 L11.6345186,18.2112407 L11.6275477,17.188067 L11.6281111,12.5608637 L11.634059,11.8106159 L11.6393046,11.4550903 L11.6513726,10.9061779 L11.6731647,10.2371028 C11.6773428,10.1297083 11.6818166,10.0243387 11.6866199,9.92094292 L11.7196634,9.32384451 C11.8447906,7.40974106 12.1287614,6.24424892 12.8421989,5.41833646 C13.1635391,5.05508234 13.5087346,4.78147461 13.9232054,4.52803756 L13.977,4.497 L13.8506049,4.45849928 L13.596791,4.39265052 C12.88569,4.22533264 12.0774722,4.14640047 11.0168449,4.11888057 L10.3489371,4.10824231 Z M133.113129,4.24840391 L124.831276,4.24965706 L124.619572,4.25280848 L124.415368,4.26214542 L124.31,4.27 L124.348651,4.29599711 C125.437414,5.02256251 126.041062,6.1109718 126.112179,7.85023737 L126.118975,8.13030916 L126.117439,8.39451976 L125.832225,20.7653671 C125.784591,23.0835572 125.221873,24.6009662 124.091798,25.4727323 L123.934175,25.5876221 L123.796,25.678 L124.240902,25.6749342 C124.63059,25.6694716 125.018683,25.6584711 125.412006,25.641631 L126.006766,25.6119536 L126.614488,25.5732908 L128.179678,25.5226551 L128.979422,25.5058884 L129.717421,25.5006859 L130.637772,25.5089537 L132.2256,25.5529769 L132.6783,25.5682817 C131.32008,24.9523468 130.725081,23.6332874 130.680379,21.6489836 L130.677641,21.4019204 L130.677641,8.09876543 C130.677641,5.96261922 131.335807,4.62710015 133.113129,4.24840391 Z M136.458162,4.24965706 L135.742951,4.24942237 C139.821839,4.90963873 142.167353,8.51068178 142.167353,15.8024691 C142.167353,20.871255 140.763418,24.6218594 137.141909,25.6726074 C143.924351,25.496469 147.618656,21.1606434 147.618656,14.8038409 C147.618656,8.31915301 144.244523,4.37425211 136.815016,4.25255713 L136.458162,4.24965706 Z M158.889855,10.8541776 L159.086,4.567 L159.04658,4.57121608 C157.753375,4.71185544 156.139878,5.04921331 154.793978,5.49784671 C154.163116,5.708134 153.614378,5.93413247 153.176474,6.1609665 L152.966891,6.27438427 L152.796,6.376 L152.873718,6.41136205 C153.195047,6.55980736 153.434677,6.696164 153.671258,6.88029204 L153.81347,6.99698031 L153.958726,7.12800701 C154.592271,7.72353968 154.949278,8.51360733 155.000453,9.43499283 L155.006859,9.66803841 L155.006859,19.1550069 C155.006859,20.8346279 154.919946,22.1925935 154.760855,23.3371271 L154.715688,23.6440622 L154.683,23.845 L154.829042,23.8017774 C154.968537,23.7632151 155.106491,23.7332098 155.247184,23.7128449 L155.460811,23.6896636 L155.681756,23.6817558 L155.787681,23.6883062 C156.117682,23.7262888 156.605378,23.9247116 157.087224,24.1589855 L157.494988,24.3656657 L157.876999,24.5724705 L158.21037,24.7619646 L158.569162,24.9756087 L158.689352,25.0520235 C159.147849,25.281272 159.623037,25.4729923 160.125093,25.6226734 C159.814542,25.2339764 159.572465,24.740284 159.405967,24.1333751 L159.371999,24.0041554 L159.308795,23.730032 L159.25171,23.4331047 L159.200514,23.1111027 L159.154976,22.7617554 L159.114867,22.3827922 L159.079956,21.9719424 L159.036835,21.2909131 L159.013915,20.7904126 L158.9877,19.9642636 L158.970595,19.0408248 L158.961822,18.0124327 L158.960219,17.2647462 C158.960219,15.5294511 159.368504,14.1330452 160.443657,13.3794954 C159.843957,13.1846938 159.369474,12.7458354 159.112603,12.1792082 C158.970762,11.8663233 158.913994,11.5911239 158.895036,11.267693 L158.88782,11.0671594 L158.889855,10.8541776 Z M104.537723,4.10699588 C103.134679,4.10699588 101.782366,4.20184357 100.644417,4.45576608 L100.432025,4.50594064 L100.232189,4.55873076 L100.118,4.592 L100.143579,4.60304691 C101.402849,5.18045776 102.202628,6.16249511 102.368855,7.7563589 L102.389015,8.00005307 L102.453934,9.46147914 L102.54407,11.1254958 L102.587333,11.9886146 L102.626176,12.9530225 L102.646055,13.8085778 L102.650206,14.4471879 L102.638044,18.2196314 L102.613256,20.001278 L102.578207,21.4892926 C102.535053,23.1579067 102.117142,24.3642563 101.343608,25.2123414 L101.194407,25.3671843 L101.051,25.5 L111.309,25.5 L111.233522,25.4930808 C108.45385,25.185431 107.330141,23.4239326 107.219115,20.2671831 L107.21193,19.985027 L107.209877,19.7256516 L107.209877,8.38408779 C107.209877,6.55014374 107.834263,5.3510505 108.96451,4.59496984 L109.137826,4.48485636 L109.247,4.422 L109.104244,4.39494099 C108.9195,4.36090821 108.716366,4.32948514 108.494406,4.30089518 L108.025257,4.24755892 C107.942839,4.23932119 107.858298,4.23141479 107.771617,4.223848 L107.225723,4.18258878 L106.627702,4.14987732 C106.523645,4.14515979 106.417384,4.14081496 106.308903,4.13685111 L105.631247,4.11770591 C105.513821,4.11529907 105.394143,4.11328974 105.272197,4.11168622 L104.537723,4.10699588 Z M166.559671,11.2757202 C165.680682,11.2757202 164.88809,11.5072619 164.083162,11.9560813 L163.692311,12.1858952 L163.47399,12.32335 L163.255399,12.4724938 L162.998376,12.6587807 L162.847,12.771 L162.929038,12.773487 C164.895,12.8687905 166.186757,14.2384403 166.885561,16.2209183 C167.323648,17.4637509 167.525377,18.9557063 167.525377,20.260631 C167.525377,22.4089353 167.11099,24.2545387 166.071931,25.423085 C169.351285,24.1778452 171.550069,21.0363505 171.550069,17.1577503 C171.550069,13.6726278 169.338728,11.2757202 166.559671,11.2757202 Z M97.4680865,7.92110103 L97.4746035,8.01298095 L97.478738,8.24142661 C97.478738,9.95727085 96.5899849,11.534841 95.1510766,12.2552938 L94.9603008,12.3443461 L94.868,12.381 L95.020246,12.5115285 C96.8152753,14.0886073 97.7776523,16.0244371 97.9229869,18.4576438 L97.9377424,18.7925407 L97.9423868,19.1193416 C97.9423868,20.5571314 97.6537025,21.9174885 97.1032252,23.1580006 C97.346819,22.9986737 97.620857,22.8592426 97.9217945,22.7334054 L98.2439209,22.5970372 L98.3524733,22.5436206 C98.3603106,22.5393554 98.3659229,22.5359227 98.3701941,22.5327923 L98.3867996,22.5133972 C98.4697603,22.3761287 98.5464133,22.0792297 98.5727649,21.5630682 L98.5951018,20.786305 L98.6191928,19.6390299 L98.6382732,18.1722013 L98.649365,15.7358062 L98.6484902,14.0529599 L98.6431072,13.6637186 L98.6273805,13.0596964 L98.5902656,12.1458754 L98.5320976,11.0091717 L98.4306534,9.08908551 L98.4011153,8.36036276 C98.3994627,8.29095272 98.4081698,8.24908885 98.4169331,8.22376092 L98.4330878,8.1863748 L98.3483005,8.17668228 C98.33261,8.17398075 98.3142544,8.17026205 98.2928522,8.16511839 L97.7728087,8.01616394 L97.4680865,7.92110103 Z M162.962,17.162 L162.963963,18.3316093 L162.980669,19.5718511 L163.010893,20.6160038 L163.042515,21.2784332 L163.067893,21.6656999 L163.096728,22.0114232 L163.129037,22.3172652 L163.152,22.492 L163.183817,22.4397362 C163.373935,22.094132 163.505485,21.4563771 163.523308,20.4895927 L163.525377,20.260631 C163.525377,19.3734404 163.38213,18.314007 163.113067,17.5506866 L163.015589,17.2912169 L162.962,17.162 Z M134.678,8.151 L134.678595,21.5626734 L134.686116,21.8389427 L134.694,21.965 L134.754581,21.968096 L134.888889,21.9698217 C137.171949,21.9698217 138.167353,19.8736183 138.167353,15.8024691 L138.161518,15.121252 C138.15763,14.9006984 138.151799,14.6866089 138.144028,14.4788195 L138.114899,13.8741874 L138.07415,13.3063718 C137.763791,9.64146845 136.679908,8.3653856 134.846232,8.16600563 L134.678,8.151 Z M80.059,20.426 L80.1655591,20.5176059 C80.8083236,21.0431385 81.5690147,21.3413753 82.6207737,21.4366464 L82.8898775,21.4562498 L83.102,21.464 L80.9293287,20.7480102 L80.6928306,20.6642389 L80.4614121,20.579877 L80.059,20.426 Z M60.0872126,6.47915846 L59.974,6.311 L59.834,6.493 L59.9037606,6.6190799 L60.0119195,6.79459067 L60.097,6.919 L60.1412296,6.86489367 L60.257,6.704 L60.1513707,6.56796082 L60.0872126,6.47915846 Z" id="ITYSLDb" fill="#FFFFFF"></path>
            <path d="M8.38408779,27.8930041 C16.1947874,27.8930041 16.515775,26.2880658 16.515775,25.218107 C16.515775,24.1124829 15.659808,23.9341564 14.7681756,23.399177 C14.0710812,22.9809203 13.6464873,23.1076648 13.6275477,17.1883035 L13.6280938,12.5691714 C13.6379431,10.1980962 13.7214767,7.45989145 14.340192,6.74348422 C15.1604938,5.81618656 16.515775,5.88751715 16.515775,4.60356653 C16.515775,2.17832647 12.1289438,2.10699588 9.98902606,2.10699588 C9.27572016,2.10699588 2,2.10699588 2,4.67489712 C2,6.03017833 3.3909465,6.13717421 4.21124829,7.17146776 C4.60356653,7.67078189 4.96021948,8.70507545 4.96021948,13.2345679 L4.96021948,16.7654321 C4.96021948,21.7585734 4.60356653,23.0781893 4.17558299,23.5775034 C3.60493827,24.255144 2.39231824,24.4334705 2.39231824,25.5747599 C2.39231824,27.7100757 6.32500153,27.8790497 8.05876514,27.891965 L8.38408779,27.8930041 L8.38408779,27.8930041 Z M30.3539095,27.8931781 C37.0233196,27.8931781 37.7009602,26.3237311 37.7009602,25.218107 C37.7009602,24.2346095 37.1917554,23.9540359 36.5745375,23.7157284 L36.283459,23.6063358 C35.39598,23.2727273 34.4197531,22.8252899 34.4197531,20.5102881 L34.4197531,9.56104252 C34.4197531,9.27572016 34.2770919,7.34979424 35.6680384,7.34979424 C37.4869684,7.34979424 37.4513032,11.558299 40.5541838,11.558299 C42.3731139,11.558299 43.3004115,10.3813443 43.3004115,8.59807956 C43.3004115,4.74622771 40.4115226,2 39.0205761,2 C38.3429355,2 38.0576132,2.10699588 37.558299,2.24965706 C37.0233196,2.35665295 36.3100137,2.49931413 34.776406,2.49931413 L26.0027435,2.49931413 C24.5761317,2.49931413 23.6131687,2.35665295 22.9355281,2.24965706 C22.2578875,2.10699588 21.8655693,2 21.6159122,2 C19.5829904,2 17.0150892,5.95884774 17.0150892,8.99039781 C17.0150892,10.2743484 17.8353909,11.558299 19.2263374,11.558299 C22.1152263,11.558299 22.8998628,7.34979424 24.5048011,7.34979424 C25.0041152,7.34979424 25.7530864,7.31412894 25.6104252,11.0589849 L25.3251029,18.9410151 C25.2894376,19.8326475 25.1467764,21.9725652 24.7901235,22.7215364 C24.0768176,24.0768176 21.8655693,23.3278464 21.8655693,25.218107 C21.8655693,27.9643347 28.5349794,27.8931781 30.3539095,27.8931781 Z M64.9849108,25.3251029 C64.9849108,24.4428561 64.4612929,24.0842272 63.8924369,23.7916356 L63.5495218,23.6203444 C63.1520506,23.4212084 62.7792939,23.2095878 62.5953361,22.8285322 C62.2743484,22.1508916 62.0960219,20.7242798 62.0960219,17.4430727 C62.0960219,14.9465021 62.2030178,13.8765432 63.7722908,11.914952 L68.1591221,7.10013717 C69.9423868,5.17421125 72.5102881,6.49382716 72.5102881,4.21124829 C72.5102881,2.64197531 71.3333333,2.10699588 66.8751715,2.10699588 C65.5198903,2.10699588 61.382716,2.10699588 61.382716,4.21124829 C61.382716,5.56652949 62.4170096,5.63786008 62.4170096,6.63648834 C62.4170096,7.45679012 60.9190672,9.34705075 59.9917695,9.34705075 C59.1001372,9.34705075 57.6735254,7.10013717 57.6735254,6.31550069 C57.6735254,5.56652949 58.6721536,5.20987654 58.6721536,4.28257888 C58.6721536,3.49794239 58.7434842,2.10699588 51.3251029,2.10699588 C43.6306457,2.10699588 43.2747266,3.48297177 43.2642171,4.33800205 L43.2645453,4.48587155 C43.2646606,4.50158531 43.2647462,4.51704517 43.2647462,4.53223594 C43.2647462,6.27983539 45.5829904,5.70919067 47.3305898,7.74211248 L51.3607682,12.4142661 C52.6090535,14.0192044 52.9300412,14.696845 52.9300412,16.7297668 C52.9300412,20.1893004 52.7160494,21.829904 52.3593964,22.6502058 C51.7174211,24.1124829 49.6844993,23.399177 49.6844993,25.3251029 C49.6844993,26.2880658 50.611797,27.8930041 57.6021948,27.8930041 L57.9490113,27.8924814 C59.9932505,27.8841186 64.9849108,27.7419511 64.9849108,25.3251029 Z M84.2085048,28 C92.5185185,28 95.9423868,23.2921811 95.9423868,19.1193416 C95.9423868,16.4444444 94.8367627,14.6611797 92.6255144,13.1989026 C88.4883402,10.4526749 83.6021948,11.2016461 83.6021948,8.38408779 C83.6021948,7.10013717 84.7791495,6.60082305 85.8847737,6.60082305 C89.5939643,6.60082305 90.9849108,10.6666667 93.3744856,10.6666667 C94.6941015,10.6666667 95.478738,9.45404664 95.478738,8.24142661 C95.478738,5.24554184 92.7681756,2.49931413 91.5555556,2.49931413 C90.8065844,2.49931413 90.3072702,2.99862826 89.8079561,2.99862826 C89.2729767,2.99862826 86.7050754,2 84.4224966,2 C77.5034294,2 73.9368999,6.60082305 73.9368999,10.3100137 C73.9368999,12.877915 75.3635117,15.0534979 77.3251029,16.6227709 C81.2839506,19.7969822 86.170096,19.1550069 86.170096,21.7229081 C86.170096,23.0781893 84.2085048,23.4705075 83.4238683,23.4705075 C76.861454,23.4705075 77.2894376,17.7997257 74.7572016,17.7997257 C73.6872428,17.7997257 73.2592593,18.7626886 73.2592593,19.7256516 C73.2592593,21.5445816 74.079561,25.3251029 75.7914952,26.2880658 C77.824417,27.39369 81.8545953,28 84.2085048,28 Z M117.020576,28 C118.66118,28 120.658436,24.4334705 120.658436,21.6515775 C120.658436,20.2962963 120.052126,18.5843621 118.447188,18.5843621 C116.164609,18.5843621 118.233196,23.5418381 112.170096,23.5418381 C109.63786,23.5418381 109.209877,22.2935528 109.209877,19.7256516 L109.209877,8.38408779 C109.209877,5.03155007 112.027435,6.60082305 112.027435,4.53223594 L112.025003,4.37752682 C111.984811,3.21860999 111.367247,2.10699588 104.537723,2.10699588 C102.790123,2.10699588 97.1906722,2.24965706 97.1906722,4.85322359 C97.1906722,6.8861454 100.329218,5.31687243 100.400549,8.3127572 C100.471879,10.3100137 100.650206,12.3072702 100.650206,14.4471879 C100.650206,16.5514403 100.650206,18.8340192 100.578875,21.4375857 C100.471879,25.5747599 97.6899863,23.7201646 97.6899863,25.9314129 C97.6899863,27.5720165 99.5089163,27.5006859 100.650206,27.5006859 L112.562414,27.5006859 C113.775034,27.5006859 114.559671,27.6076818 115.237311,27.7503429 C115.879287,27.8573388 116.378601,28 117.020576,28 Z M136.707819,27.6790123 C145.731139,27.6790123 149.618656,21.4375857 149.618656,14.8038409 C149.618656,8.38408779 146.373114,2.24965706 136.458162,2.24965706 L124.831276,2.24965706 C123.58299,2.24965706 121.514403,2.49931413 121.514403,4.1399177 C121.514403,6.45816187 124.1893,4.67489712 124.11797,8.3484225 L123.832647,20.7242798 C123.725652,25.9314129 120.908093,23.0781893 120.908093,25.6460905 C120.908093,27.0727023 122.441701,27.6790123 123.654321,27.6790123 C124.688615,27.6790123 125.687243,27.6433471 126.685871,27.5720165 C127.684499,27.5363512 128.718793,27.5006859 129.717421,27.5006859 C130.716049,27.5006859 131.679012,27.5363512 132.784636,27.5720165 C133.890261,27.6433471 135.174211,27.6790123 136.707819,27.6790123 Z M134.888889,23.9698217 C132.962963,23.9698217 132.677641,23.2208505 132.677641,21.4019204 L132.677641,8.09876543 C132.677641,6.74348422 132.784636,6.13717421 134.282579,6.13717421 C137.028807,6.13717421 140.167353,7.45679012 140.167353,15.8024691 C140.167353,19.3689986 139.382716,23.9698217 134.888889,23.9698217 Z M162.85048,28 C168.984911,28 173.550069,23.2565158 173.550069,17.1577503 C173.550069,12.4499314 170.340192,9.27572016 166.559671,9.27572016 C164.990398,9.27572016 163.742112,9.81069959 162.814815,10.3813443 C161.887517,10.9163237 161.316872,11.4869684 161.138546,11.4869684 C160.924554,11.4869684 160.891118,11.2662894 160.887774,11.0807184 L160.888889,10.9163237 L160.888889,10.9163237 L161.102881,4.03292181 C161.138546,3.24828532 161.174211,2.49931413 160.211248,2.49931413 C157.251029,2.49931413 150.331962,4.1042524 150.331962,6.49382716 C150.331962,8.52674897 153.006859,7.5994513 153.006859,9.66803841 L153.006859,19.1550069 C153.006859,23.7914952 152.293553,24.9327846 152.293553,25.5034294 C152.293553,26.0740741 152.864198,26.2167353 153.363512,26.2167353 C154.540466,26.2167353 155.111111,25.6817558 155.681756,25.6817558 C156.252401,25.6817558 158.356653,28 162.85048,28 Z M162.77915,24.7544582 C161.352538,24.7544582 160.960219,24.1838134 160.960219,17.2647462 C160.960219,16.0521262 161.138546,14.7681756 162.707819,14.7681756 C165.061728,14.7681756 165.525377,18.5843621 165.525377,20.260631 C165.525377,22.079561 165.133059,24.7544582 162.77915,24.7544582 Z" id="ITYSLDb" fill="#EEB0B3"></path>
        </g>
    </g>
</svg>