<?xml version="1.0" encoding="UTF-8"?>
<svg width="172px" height="36px" viewBox="0 0 172 36" version="1.1" xmlns="http://www.w3.org/2000/svg" xmlns:xlink="http://www.w3.org/1999/xlink">
    <title>logo-mobile</title>
    <g id="Page-1" stroke="none" stroke-width="1" fill="none" fill-rule="evenodd">
        <g id="logo-mobile" transform="translate(5.000000, 5.000000)" fill-rule="nonzero">
            <path d="M84.6520138,-2.5 C86.2910785,-2.5 87.9348864,-1.56062546 89.150804,0.0454323183 C90.3255198,1.59706833 91.0079469,3.65508203 91.0079469,5.09315068 C91.0079469,6.54053215 90.4521649,7.93083047 89.5229068,8.94102587 C89.0222185,9.48532361 88.4174892,9.92403719 87.7311331,10.2164076 L87.592,10.271 C87.6959362,10.3804452 87.7914327,10.4848978 87.8844374,10.5911838 L88.1558575,10.9156538 C89.3928866,12.4645697 90.186776,14.3742383 90.186776,16.9534247 C90.186776,20.645637 88.4976071,23.4232914 85.9705268,25.3519681 C83.2027466,27.4643478 79.3510099,28.5 75.8333518,28.5 C72.6927266,28.5 69.4397609,27.6323206 67.119844,25.8398003 C64.9591923,24.1703387 63.5150036,21.741038 63.5150036,18.4136986 C63.5150036,16.8457979 64.0008902,15.4031916 64.8655318,14.3747747 C65.5544739,13.5553372 66.4806178,12.9377798 67.6913139,12.7037759 L67.797,12.685 L67.6928246,12.4816414 C67.1365534,11.3584521 66.7816846,10.0811336 66.7338272,8.60676906 L66.7282812,8.2630137 C66.7282812,4.93473253 68.1368389,2.32073966 70.2985192,0.481428147 C72.5630724,-1.44541498 75.7154527,-2.5 78.9395202,-2.5 C80.3525299,-2.5 81.5784815,-2.19381009 82.4108572,-1.97406701 C82.8229682,-2.18446011 83.637727,-2.5 84.6520138,-2.5 Z M150.488502,-2.5 C152.753178,-2.5 153.627863,-1.69132576 154.183855,-0.892219535 C154.721703,-0.119190181 154.939425,1.04259926 154.794965,2.83987912 L154.794965,2.83987912 L154.565,5.035 L154.591145,5.0241236 C155.277645,4.75055019 156.040334,4.56219549 156.881543,4.52371634 L157.200682,4.51643836 C159.753753,4.51643836 161.567972,5.61185256 162.780621,7.20974873 C164.039931,8.8691285 164.613484,11.1869823 164.480294,13.4721522 C164.216452,17.8149823 162.616428,21.6439241 159.862354,24.3380404 C157.295587,26.8489279 153.707395,28.4287671 149.096082,28.4287671 C146.944484,28.4287671 144.530697,27.9122227 142.815754,26.7128159 C141.157147,25.5528108 140.026714,23.8252895 140.026714,21.3342466 C140.026714,19.8724747 140.384139,17.760242 140.693299,16.0204714 C140.761372,15.637395 140.825925,15.2744215 140.880989,14.9446745 C141.245433,12.6109238 141.643262,9.90237456 141.725029,7.46486404 C141.070006,7.29266052 140.619462,7.02748357 140.2678,6.70173343 C139.718603,6.19300179 139.16984,5.45524019 139.16984,3.77534247 C139.16984,2.31960381 139.737557,1.28363441 140.587698,0.49285848 C141.342857,-0.209566976 142.425313,-0.678227782 143.487972,-1.0427346 C145.16937,-1.65036647 148.754374,-2.5 150.488502,-2.5 Z M100.504183,-2.28630137 C103.060154,-2.28630137 104.608548,-1.99036104 105.557053,-1.59502975 C106.548941,-1.1816162 107.138984,-0.621927911 107.534228,-0.032097018 C108.00175,0.665595883 108.216834,1.46403288 108.216834,2.38630137 C108.216834,3.81216503 107.801781,4.59268564 107.37658,5.1244934 C106.781745,5.86846533 105.974566,6.25433207 104.911151,6.47335894 C104.597342,6.74737923 104.524995,7.27176218 104.459625,8.04020425 L104.459625,8.04020425 L103.599715,18.5127868 C105.351867,18.657739 105.767781,17.867247 106.153316,17.2356185 C107.263988,15.415988 108.422206,14.3109589 110.465344,14.3109589 C112.105549,14.3109589 113.196183,14.9284374 113.947599,15.7904685 C114.664538,16.6129478 115.107529,17.7836826 115.107529,19.2684932 C115.107529,20.6656543 114.576408,23.2947378 113.503489,25.2171493 C113.010332,26.100767 112.404726,26.8415104 111.736414,27.3611933 C110.898264,28.0129425 109.953432,28.3575342 108.930111,28.3575342 C107.981009,28.3575342 107.465748,28.2158518 106.987489,28.0596087 C106.742057,28.0069812 106.526677,27.9657534 106.180974,27.9657534 L106.180974,27.9657534 L94.530042,27.9657534 C94.161422,27.9833629 93.8204706,27.9993434 93.4074819,28.0011965 C92.8036336,28.0378309 92.0303485,28.0726027 91.2570844,28.0726027 C89.8743324,28.0726027 88.6464112,27.6718854 87.776521,26.9507732 C86.879453,26.2071314 86.2221654,25.1206094 86.2221654,23.4712329 C86.2221654,22.2993372 86.5522427,21.5454528 86.9598538,20.9718657 C87.4222597,20.3211717 88.059865,19.8871366 88.8473728,19.5004953 C88.9905913,19.4301796 89.2249472,19.4112738 89.3380814,19.135898 C90.0162369,17.4887438 90.9380839,10.1459037 91.1432976,6.69457129 L91.157,6.431 L91.1351283,6.42249436 C90.5855813,6.19363485 90.0931096,5.88500038 89.6964276,5.47638422 L89.5323985,5.29508277 C89.0123652,4.67758093 88.6142721,3.86958789 88.6142721,2.67123288 C88.6142721,1.43293953 89.0347059,0.462271907 89.8338839,-0.327528608 C90.4031426,-0.890107607 91.2370986,-1.38760356 92.4666944,-1.70941425 C94.084097,-2.13272201 96.6791001,-2.28630137 100.504183,-2.28630137 Z M9.71123903,-2.28630137 C13.0585259,-2.28630137 15.2411054,-2.10308811 16.5879564,-1.69631547 C17.7326055,-1.35061135 18.4795513,-0.828565901 18.9905158,-0.242929298 C19.6406202,0.502181105 19.9945115,1.40707506 19.9945115,2.56438356 C19.9945115,3.94545821 19.5070799,4.7491627 18.9418341,5.32440495 C18.355122,5.92149306 17.5372633,6.27014261 16.6017282,6.49139679 L16.746,6.454 L16.6546827,6.90042069 L16.6546827,6.90042069 L16.5369488,7.43487056 C16.4982023,7.60822428 16.4596168,7.7806501 16.4231226,7.95093181 L16.4231226,7.95093181 L15.0420228,17.7011489 C14.9053376,18.6372774 14.8175642,19.1472566 14.8175642,19.6958904 C15.3340959,19.7020696 15.9903428,20.098177 16.4555931,20.6360086 C16.9578758,21.2166498 17.3524832,21.9738141 17.3524832,23.2219178 C17.3524832,24.2991612 17.00199,25.1792778 16.420662,25.9060516 C15.9059347,26.5495615 15.1753965,27.078989 14.270382,27.4519539 C12.6299318,28.1279987 10.2688187,28.2484574 8.71208729,28.2511915 L8.71208729,28.2511915 L7.77831112,28.2500621 C4.47731999,28.2384744 2.26036834,28.0205624 0.871169095,27.5504826 C-0.261964696,27.1670506 -1.02063267,26.6069725 -1.54140001,25.9632671 C-2.1567449,25.202657 -2.5,24.2809401 -2.5,23.1150685 C-2.5,21.8420036 -2.07445587,21.0670738 -1.55510597,20.4902799 C-1.04212719,19.9205619 -0.326900513,19.5438878 0.550479464,19.2485398 C1.08119406,18.982444 1.09206321,18.7707928 1.12517808,18.4965049 L1.12517808,18.4965049 L2.58132983,6.80470245 C2.60083003,6.56099397 2.6340783,6.32099905 2.67124882,6.06945161 L2.653,6.19 L2.6408723,6.18404261 C2.14035015,5.95693223 1.73488408,5.69607244 1.40918451,5.39091739 L1.25291115,5.23459977 C0.675845781,4.61769825 0.24913752,3.817092 0.24913752,2.52876712 C0.258704531,1.69991017 0.434546976,0.721193344 1.34570259,-0.227555127 C1.79122848,-0.691462719 2.47316823,-1.19739351 3.62994094,-1.58204864 C4.80251061,-1.97195664 6.68011393,-2.28630137 9.71123903,-2.28630137 Z M38.6664407,-2.42876712 C40.3450153,-2.42876712 41.9236569,-1.43285963 43.0352241,0.361908663 C44.08311,2.05385532 44.6296399,4.34796305 44.6296399,5.6630137 C44.6296399,7.30191289 44.1269334,8.80303695 43.2369552,9.87269757 C42.3165043,10.9789833 40.988781,11.7246575 39.1662839,11.7246575 C37.994006,11.7246575 37.0884161,11.3533821 36.3622532,10.7603881 L36.203,10.624 L36.1752101,10.865478 L36.1752101,10.865478 L36.1403848,11.1657093 C35.8483591,13.6817031 35.4182441,17.3193508 35.4109901,19.5534247 C36.1150265,19.7286845 36.790431,20.1086759 37.2808858,20.693981 C37.7440351,21.2467 38.1316785,21.9889772 38.1316785,23.1863014 C38.1316785,24.1029072 37.8655826,25.1862307 36.6892973,26.1917218 C36.1553973,26.6481007 35.3525351,27.1290774 34.0991332,27.4980361 C32.6440043,27.9263763 30.3888494,28.2506849 26.9201258,28.2506849 C24.2084636,28.2506849 22.4721397,27.9582204 21.3507801,27.5912094 C20.302027,27.247962 19.6381962,26.8039721 19.1865144,26.3862629 C18.262305,25.5315664 17.9994242,24.6352992 17.9157848,23.8987096 C17.8922694,22.2527937 18.3280558,21.4031122 18.852104,20.7829303 C19.4463559,20.0796662 20.2761507,19.663393 21.2108114,19.3542222 C21.6508018,18.1859285 21.9845532,15.8653666 22.3010877,13.5026713 L22.3010877,13.5026713 L22.3924104,12.8109682 C22.4436011,12.4176098 22.4934123,12.0254253 22.5414828,11.6389418 L22.595,11.203 L22.5489651,11.2272966 C21.9869118,11.5033188 21.3369168,11.6816114 20.571744,11.7178243 L20.2793521,11.7246575 C18.6766453,11.7246575 17.4702663,11.1208031 16.6222775,10.2272141 C15.7675739,9.32654937 15.2444331,8.06002827 15.2444331,6.55342466 C15.2444331,4.90831711 16.0315343,2.42388234 17.3896916,0.555816167 C18.747415,-1.31165332 20.5842441,-2.42876712 22.4572403,-2.42876712 C23.0237963,-2.42876712 23.5456652,-2.30948432 24.106078,-2.14124946 C24.3380602,-2.07487514 24.5307197,-2.00136986 24.7779408,-2.00136986 L24.7779408,-2.00136986 L34.9533199,-2.00136986 C36.012836,-2.00136986 36.5433586,-2.06535407 36.9042898,-2.14614691 C37.8027497,-2.37442362 38.148761,-2.42876712 38.6664407,-2.42876712 Z M62.8017259,-2.28630137 C64.8621521,-2.28630137 66.383186,-2.05407591 67.3855562,-1.62985997 C68.2430161,-1.26697192 68.8498385,-0.759963813 69.2728855,-0.171112798 C69.7402587,0.479437208 70.0145331,1.25640846 70.0145331,2.20821918 C70.0145331,3.60215096 69.485605,4.46886272 68.7886113,5.10508967 C68.1807881,5.65992036 67.3160442,6.01062477 66.359692,6.2650645 L66.359692,6.2650645 L61.8102796,11.3760084 C59.9751185,13.6227857 59.9769261,13.8673431 59.840355,16.7037474 L59.840355,16.7037474 L59.7322874,19.8366477 C60.2823793,20.0376331 60.7759495,20.3079302 61.1603068,20.6758502 C61.7510733,21.2413521 62.2312607,22.0168388 62.2312607,23.2931507 C62.2184185,24.1576997 62.0418816,25.1191583 61.2249577,26.0466595 C60.7824288,26.5490882 60.1028485,27.0911463 58.9288533,27.5034375 C57.7512191,27.9170067 55.8467094,28.2506849 52.7288181,28.2506806 L52.7288181,28.2506806 L52.0240667,28.2493651 C49.7685306,28.2394327 47.691223,28.1175935 46.2992604,27.666335 C45.3360093,27.35406 44.6067081,26.8849636 44.0953847,26.331137 C43.4367142,25.6177153 43.057136,24.7418285 43.057136,23.6493151 C43.057136,22.3651615 43.4905673,21.5481617 44.0290229,20.9444929 C44.599463,20.3049658 45.3942963,19.9011093 46.2813204,19.6383411 L46.259,19.645 L47.1190342,13.4564031 C47.0710389,13.1246769 46.8232568,12.8400154 46.6280705,12.5634152 L46.5360287,12.4256064 L43.021873,6.73330058 C42.837465,6.54406197 42.6000198,6.51848201 42.4309843,6.45342083 C41.6202438,6.14136975 40.9855454,5.77462127 40.5314865,5.26648892 C40.0265673,4.70143925 39.6296399,3.96324081 39.6296399,2.77808219 C39.6296399,1.57975263 39.9968862,0.629204811 40.7136602,-0.160145271 C41.2485434,-0.749187341 42.0374544,-1.28442697 43.2631521,-1.64375783 C44.7354018,-2.07536896 47.1328919,-2.28630137 50.8768957,-2.28630137 C53.2208968,-2.28630137 54.6977557,-2.01141432 55.6215057,-1.61550707 C56.0417506,-1.43539559 56.3915816,-1.22522944 56.6855076,-0.99331541 L56.757,-0.932 L56.9692949,-1.07682804 C57.1962982,-1.22251311 57.4423774,-1.35543587 57.705857,-1.47365346 L57.9750748,-1.58689736 C59.5372601,-2.20177393 61.7855215,-2.28630137 62.8017259,-2.28630137 Z M129.479905,-2.17893412 C132.822119,-2.1712444 136.820302,-1.57392002 139.612508,1.13090252 C141.614065,3.06982 143.134451,6.10584132 143.134451,11.0767123 C143.134451,13.8873869 142.442979,19.5414394 138.547686,23.5057811 C136.13717,25.9590261 132.513649,27.8632248 126.951294,27.9617469 L126.496029,27.9657534 L118.427132,27.9657534 C117.985096,27.9657534 117.511578,27.9991695 117.069587,28.0306637 C116.400698,28.0753396 115.87827,28.1082192 115.320963,28.1082192 C113.837614,28.1082192 112.580003,27.7716039 111.704204,27.1107485 C110.763475,26.400898 110.036123,25.3361989 110.036123,23.5068493 C110.036123,22.2325455 110.392563,21.453649 110.796101,20.8945229 C111.343621,20.1359027 112.093456,19.7029926 112.999633,19.4032185 C113.903166,16.4989714 114.880459,9.16840334 114.925721,6.48891304 C114.2712,6.21229572 113.718011,5.84814264 113.29637,5.30052482 C112.891946,4.77526776 112.535339,4.05848575 112.535339,2.88493151 C112.535339,0.76276948 113.474978,-0.405032856 114.692352,-1.13806114 C115.83208,-1.82433568 117.48385,-2.00136986 118.998381,-2.00136986 C121.485918,-2.00136986 124.241521,-2.06331656 126.95067,-2.12398813 C127.801478,-2.14304204 128.647746,-2.1619925 129.479905,-2.17893412 Z M128.451195,7.13456621 C128.447269,7.12801175 128.443211,7.12163929 128.440619,7.25928993 L128.440619,7.25928993 L128.423659,7.49990356 C128.410813,7.66764171 128.395782,7.8311304 128.376372,7.9877783 L128.376372,7.9877783 L127.613,17.587 L127.676882,17.4711829 C127.710511,17.4063355 127.743237,17.3402465 127.775292,17.2732267 C128.73048,15.2761157 128.923055,12.4239436 128.923055,10.2575342 C128.923055,9.15785009 128.938696,7.94840403 128.451195,7.13456621 Z" id="ITYSLDb" stroke="#FFFFFF" stroke-width="5"></path>
            <path d="M14.8524832,23.2219178 C14.8524832,21.0136986 12.3175642,22.5808219 12.3175642,19.6958904 C12.3175642,18.8767123 12.4603766,18.1287671 12.5674858,17.3452055 L13.9599061,7.51506849 C14.1027184,6.83835616 14.2812339,6.1260274 14.3883431,5.44931507 C14.745374,3.31232877 17.4945115,4.80821918 17.4945115,2.56438356 C17.4945115,0.676712329 15.602248,0.21369863 9.71123903,0.21369863 C2.35640359,0.21369863 2.74913752,2.06575342 2.74913752,2.52876712 C2.74913752,3.55080405 3.32079182,3.82334723 3.91730066,4.02044515 L4.24184748,4.12452232 C4.77591187,4.29901857 5.24835345,4.51244789 5.24835345,5.27123288 C5.24835345,6.01917808 5.10554111,6.51780822 5.06983802,7.05205479 L3.60601155,18.8054795 C3.14187145,22.6520548 0,20.7643836 0,23.1150685 C0,25.2520548 2.17788816,25.7506849 8.14030331,25.7506849 L8.31712483,25.7509 L8.31712483,25.7509 L8.71509346,25.7511934 C10.8395745,25.7474471 14.8524832,25.6179328 14.8524832,23.2219178 Z M26.9201258,25.7506849 C34.3463675,25.7506849 35.6316785,24.2547945 35.6316785,23.1863014 C35.6316785,21.0493151 32.9182441,22.6164384 32.9182441,19.5534247 C32.9182441,16.5260274 33.6680088,11.0054795 33.8822274,8.86849315 C34.167852,6.30410959 34.2035551,4.80821918 35.3460538,4.80821918 C36.9169896,4.80821918 36.4528494,9.22465753 39.1662839,9.22465753 C41.2013597,9.22465753 42.1296399,7.55068493 42.1296399,5.6630137 C42.1296399,3.95342466 40.8443289,0.0712328767 38.6664407,0.0712328767 C38.2023006,0.0712328767 37.952379,0.178082192 37.4882389,0.284931507 C37.0240988,0.391780822 36.3457402,0.498630137 34.9533199,0.498630137 L24.7779408,0.498630137 C24.2780976,0.498630137 23.8853636,0.391780822 23.4926297,0.284931507 C23.1355989,0.178082192 22.8142711,0.0712328767 22.4572403,0.0712328767 C19.815212,0.0712328767 17.7444331,4.30958904 17.7444331,6.55342466 C17.7444331,8.08493151 18.6370102,9.22465753 20.2793521,9.22465753 C23.4569266,9.22465753 23.0284896,4.80821918 24.8136438,4.80821918 C25.4562994,4.80821918 25.6705179,5.44931507 25.6705179,5.98356164 C25.6705179,6.51780822 24.4209099,18.2712329 23.5640359,20.5506849 C22.9213804,22.260274 20.3864613,21.1917808 20.3864613,23.3287671 L20.3876415,23.4337525 C20.408465,24.2222033 20.7791953,25.7506849 26.9201258,25.7506849 Z M52.7334561,25.7506849 C59.3567426,25.7506849 59.7167474,24.2487422 59.7313869,23.4793798 L59.7312607,23.2931507 L59.7312607,23.2931507 C59.7312607,21.4767123 57.1249355,22.6164384 57.1963416,20.8356164 L57.339154,16.6684932 C57.5176694,12.9643836 57.5176694,12.6794521 59.874073,9.79452055 L64.0513339,4.66575342 C65.0153172,3.49041096 67.5145331,4.16712329 67.5145331,2.20821918 C67.5145331,0.676712329 65.9078943,0.21369863 62.8017259,0.21369863 C61.4807118,0.21369863 57.5533725,0.284931507 57.5533725,2.27945205 C57.5533725,2.92054795 57.8568487,3.30342466 58.1603249,3.61506849 L58.4133692,3.86910819 C58.6124426,4.07353928 58.7672774,4.26888454 58.7672774,4.52328767 C58.7672774,4.95068493 56.517983,8.22739726 55.9824368,8.19178082 C55.3754843,8.15616438 54.0901733,5.37808219 54.0901733,4.7369863 C54.0901733,3.77534247 55.6968121,3.91780822 55.6968121,2.27945205 C55.6968121,0.890410959 54.7328288,0.21369863 50.8768957,0.21369863 C44.0576065,0.21369863 42.1296399,0.819178082 42.1296399,2.77808219 C42.1296399,4.38082192 43.8790911,3.73972603 45.0572929,5.27123288 L48.6633044,11.1123288 C49.1274445,11.860274 49.6272877,12.6794521 49.6272877,13.569863 L48.6276013,20.7643836 C48.5234673,21.5063927 47.9730448,21.7413623 47.3663196,21.9253187 L46.9986481,22.0332192 C46.262272,22.2513699 45.557136,22.5273973 45.557136,23.6493151 C45.557136,25.5525685 48.5695838,25.7341289 52.0350755,25.7493893 L52.7334561,25.7506849 L52.7334561,25.7506849 Z M75.8333518,26 C81.2602207,26 87.686776,23.2219178 87.686776,16.9534247 C87.686776,12.2164384 84.1878737,10.4712329 80.5104559,8.47671233 C79.4750665,7.94246575 78.2968647,7.23013699 78.2968647,5.91232877 C78.2968647,4.91506849 79.0466295,4.41643836 79.9749097,4.41643836 C82.3670163,4.41643836 83.1167811,8.12054795 85.7231063,8.12054795 C87.3654482,8.12054795 88.5079469,6.66027397 88.5079469,5.09315068 C88.5079469,3.24109589 86.7584958,0 84.6520138,0 C83.6523274,0 83.0096719,0.605479452 82.5455318,0.605479452 C82.0813917,0.605479452 80.6889714,0 78.9395202,0 C74.0124945,0 69.2282812,2.92054795 69.2282812,8.2630137 C69.2282812,15.0657534 77.7256153,16.3835616 77.7256153,19.5178082 C77.7256153,20.8712329 76.5474135,21.5479452 75.3335087,21.5479452 C73.4055421,21.5479452 72.3344495,19.7671233 71.691794,18.1643836 C71.1562478,16.7753425 70.6207015,15.1013699 68.7998442,15.1013699 C66.8718776,15.1013699 66.0150036,16.6684932 66.0150036,18.4136986 C66.0150036,23.7917808 71.1205447,26 75.8333518,26 Z M108.930111,25.8575342 C111.357921,25.8575342 112.607529,21.1561644 112.607529,19.2684932 C112.607529,17.8082192 112.000577,16.8109589 110.465344,16.8109589 C107.859019,16.8109589 108.644487,21.1561644 104.110195,21.1561644 C103.36043,21.1561644 101.539573,21.2986301 101.146839,20.3726027 C100.93262,19.7671233 101.03973,18.9123288 101.111136,18.2712329 L101.96801,7.83561644 C102.467853,1.95890411 105.716834,5.59178082 105.716834,2.38630137 C105.716834,1.06849315 105.002772,0.21369863 100.504183,0.21369863 C93.7205973,0.21369863 91.1142721,0.605479452 91.1142721,2.67123288 C91.1142721,4.70136986 93.6848942,4.02465753 93.6848942,5.55616438 C93.6848942,8.29863014 92.4709893,18.0931507 91.6498184,20.0876712 C90.7572412,22.260274 88.7221654,21.3342466 88.7221654,23.4712329 C88.7221654,25.0383562 89.9003672,25.5726027 91.2570844,25.5726027 C92.0068492,25.5726027 92.756614,25.5369863 93.3278633,25.5013699 C93.9348158,25.5013699 94.3632528,25.4657534 94.470362,25.4657534 L106.180974,25.4657534 C106.930739,25.4657534 107.287769,25.5726027 107.6448,25.6438356 C107.966128,25.7506849 108.287456,25.8575342 108.930111,25.8575342 Z M115.320963,25.6082192 C115.85651,25.6082192 116.356353,25.5726027 116.891899,25.5369863 C117.391742,25.5013699 117.927289,25.4657534 118.427132,25.4657534 L126.496029,25.4657534 C139.24203,25.4657534 140.634451,14.9945205 140.634451,11.0767123 C140.634451,0.890410959 133.458131,0.249315068 129.530791,0.320547945 C126.031889,0.391780822 122.283065,0.498630137 118.998381,0.498630137 C117.213227,0.498630137 115.035339,0.569863014 115.035339,2.88493151 C115.035339,5.02191781 117.427445,3.41917808 117.427445,6.30410959 C117.427445,9.04657534 116.284947,17.5589041 115.39237,20.4082192 C114.749714,22.4383562 112.536123,21.0493151 112.536123,23.5068493 C112.536123,25.2520548 113.785731,25.6082192 115.320963,25.6082192 Z M126.210404,21.1561644 C124.925093,21.1561644 124.996499,20.2657534 124.960796,19.090411 L125.889077,7.72876712 C125.91654,7.5260274 125.932174,7.30727081 125.946897,7.0822242 L125.969664,6.74115263 C126.052381,5.59662803 126.248854,4.41643836 127.924152,4.41643836 C130.994618,4.41643836 131.423055,7.47945205 131.423055,10.2575342 C131.423055,14.5671233 130.566181,21.1561644 126.210404,21.1561644 Z M149.096082,25.9287671 C157.129276,25.9287671 161.556458,20.3726027 161.984895,13.3205479 C162.163411,10.2575342 160.77099,7.01643836 157.200682,7.01643836 C154.308732,7.01643836 152.773499,9.68767123 152.095141,9.68767123 C151.773813,9.68767123 151.666704,9.33150685 151.666704,9.04657534 C151.666704,7.8 151.916625,6.51780822 152.023735,5.30684932 L152.273656,3.02739726 C152.416468,1.03287671 152.66639,0 150.488502,0 C148.953269,0 145.775695,0.783561644 144.311868,1.31780822 C143.06226,1.74520548 141.66984,2.24383562 141.66984,3.77534247 C141.66984,5.02191781 142.098277,5.09315068 143.16937,5.16438356 C144.240462,5.23561644 144.240462,5.59178082 144.240462,6.5890411 C144.240462,9.36712329 143.776322,12.6082192 143.347885,15.3506849 C143.06226,17.060274 142.526714,19.660274 142.526714,21.3342466 C142.526714,24.860274 146.168429,25.9287671 149.096082,25.9287671 Z M151.024048,22.1534247 C150.381393,22.1534247 150.309986,21.4410959 150.23858,20.9424658 C150.131471,20.3369863 150.916939,12.6082192 152.952015,12.6082192 C153.880295,12.6082192 153.915998,13.9616438 153.951701,14.6027397 C153.987404,15.2082192 153.237639,22.1534247 151.024048,22.1534247 Z" id="ITYSLDb" fill="#EEB0B3"></path>
        </g>
    </g>
</svg>