<?xml version="1.0" encoding="UTF-8"?>
<svg width="20px" height="20px" viewBox="0 0 20 20" version="1.1" xmlns="http://www.w3.org/2000/svg" xmlns:xlink="http://www.w3.org/1999/xlink">
    <title>search</title>
    <g id="Page-1" stroke="none" stroke-width="1" fill="none" fill-rule="evenodd">
        <g id="search" fill="#FFFFFF" fill-rule="nonzero">
            <path d="M9,0 C13.9705627,0 18,4.02943725 18,9 C18,11.124779 17.2636898,13.0775836 16.0323074,14.6171757 L19.7071068,18.2928932 C20.0976311,18.6834175 20.0976311,19.3165825 19.7071068,19.7071068 C19.3466228,20.0675907 18.7793918,20.0953203 18.3871006,19.7902954 L18.2928932,19.7071068 L14.6171757,16.0323074 C13.0775836,17.2636898 11.124779,18 9,18 C4.02943725,18 0,13.9705627 0,9 C0,4.02943725 4.02943725,0 9,0 Z M9,2 C5.13400675,2 2,5.13400675 2,9 C2,12.8659932 5.13400675,16 9,16 C10.8904747,16 12.6059153,15.25059 13.8654514,14.0326404 C13.8886352,14.0004394 13.9147502,13.9710363 13.9428932,13.9428932 L14.0326404,13.8654514 C15.25059,12.6059153 16,10.8904747 16,9 C16,5.13400675 12.8659932,2 9,2 Z" id="Combined-Shape"></path>
        </g>
    </g>
</svg>