<?xml version="1.0" encoding="UTF-8"?>
<svg width="521px" height="63px" viewBox="0 0 521 63" version="1.1" xmlns="http://www.w3.org/2000/svg" xmlns:xlink="http://www.w3.org/1999/xlink">
    <title>logo</title>
    <g id="logo" stroke="none" stroke-width="1" fill="none" fill-rule="evenodd">
        <path d="M26.3,12.5 C26.9,12.5 27.3,12.7 27.3,13.2 C27.3,13.7 27,14.2 26.2,16 C24,21.3 27.7,44.9 11.2,44.9 C6.1,44.9 3,41.9 3,37.8 C3,33.3 7.1,30.8 10.4,30.8 C11.6,30.8 12,31.1 12,31.4 C12,31.8 11.8,32 11.3,32.2 C10.2,32.7 9.1,33.7 9.1,35.1 C9.1,36.6 10.1,37.7 11.8,37.7 C19,37.7 17,19.1 19.8,17.1 C16.8,18.5 13.8,20.3 13.8,24 C13.8,25.2 14.2,26 15,26.5 C15.5,26.8 15.7,26.9 15.7,27.3 C15.7,27.6 15.2,28 14.3,28 C11.5,28 7.4,26.2 7.4,22.8 C7.4,17.9 14.2,16 19.2,14.5 C20.6,14.1 21.3,13.2 22.2,12.9 C23.7,12.6 25.7,12.5 26.3,12.5 M26.3,9.5 C25.5,9.5 23.3,9.7 21.6,10.1 C20.7,10.3 20,10.8 19.5,11.1 C19.1,11.4 18.8,11.6 18.5,11.7 L18,11.8 C12.6,13.4 4.5,15.8 4.5,22.8 C4.5,24.9 5.4,26.8 7.1,28.3 C3.3,29.6 5.68434189e-14,33 5.68434189e-14,37.8 C5.68434189e-14,43.7 4.6,47.9 11.2,47.9 C17.8,47.9 22.7,44.6 25.4,38.3 C27.5,33.4 27.9,27.6 28.3,23 C28.5,20.7 28.7,18.1 29,17.2 C29.2,16.8 29.3,16.5 29.4,16.2 C29.9,15 30.2,14.2 30.2,13.2 C30.2,11.4 28.9,9.5 26.3,9.5 L26.3,9.5 Z" id="Shape" fill="#FFFFFF" fill-rule="nonzero"></path>
        <path d="M63.1,12 C63.4,12 63.6,12.1 63.6,12.5 C63.6,13.1 63.2,14.2 62.8,14.7 C61.7,16.1 60.2,17.2 58.1,17.4 C54.5,19.9 58.6,45 42.9,45 C37.3,45 34.5,41.9 34.5,37.8 C34.5,33.1 39,30.6 42.3,30.6 C43.5,30.6 43.9,30.9 43.9,31.3 C43.9,31.7 43.6,31.9 43.3,32.1 C42.1,32.6 41,33.7 41,35.1 C41,36.7 42.1,37.7 43.7,37.7 C48.8,37.7 48.9,25.3 51.2,19.6 C51.7,18.3 52.5,17.3 53.4,16.8 C51.7,16.2 50.5,15.9 48.6,15.9 C45.9,15.9 44.1,17.5 44.1,19.3 C44.1,20.7 44.9,21.3 46.1,21.3 C46.9,21.3 47.2,20.8 47.6,20.8 C47.9,20.8 48.1,21 48.1,21.3 C48.1,23.3 45.8,26.4 42.3,26.4 C39,26.4 36.6,24 36.6,20.7 C36.6,15.5 41.8,12.5 47.3,12.5 C52.7,12.5 55.5,13.6 57.9,13.6 C60.9,13.5 62.4,12 63.1,12 M63.1,9 C62.2,9 61.4,9.4 60.8,9.7 C60,10.1 59.2,10.5 57.7,10.5 C57,10.5 56.1,10.4 54.9,10.2 C53.1,9.9 50.5,9.5 47,9.5 C39.2,9.5 33.3,14.3 33.3,20.7 C33.3,24.1 35.1,27 37.8,28.4 C34.2,29.9 31.3,33.2 31.3,37.7 C31.3,44.8 37.1,47.9 42.7,47.9 C46.8,47.9 52.4,46.4 55.7,39.3 C57.7,34.9 58.4,29.6 58.9,25.4 C59.1,23.6 59.4,21.3 59.7,20.2 C61.7,19.7 63.5,18.5 65,16.6 C65.8,15.6 66.4,13.8 66.4,12.6 C66.6,10.5 65.1,9 63.1,9 L63.1,9 Z M45.7,28.6 C45.8,28.6 45.8,28.5 45.9,28.5 C45.9,28.6 45.9,28.6 45.9,28.7 C45.8,28.7 45.8,28.7 45.7,28.6 L45.7,28.6 Z" id="Shape" fill="#FFFFFF" fill-rule="nonzero"></path>
        <path d="M66,16.6 C68.5,16.6 70.3,17.9 70.3,20.3 C70.3,23 68.2,29.9 67.6,32 C68.8,30.7 71,29.3 73.7,29.3 C76.3,29.3 78,30.5 78,32.6 C78,35 76.6,36.9 76.6,39.4 C76.6,40.1 77.2,40.6 77.8,40.6 C78.6,40.6 79,40.2 79.6,39.6 C79.9,39.3 80.1,39.1 80.4,39.1 C80.8,39.1 81.1,39.5 81.1,39.8 C81.1,40.3 80.8,40.7 80.3,41.3 C79.3,42.6 77.2,44.5 74.2,44.5 C71.3,44.5 69.3,43 69.3,40.8 C69.3,38.2 70.8,35.7 70.8,33.9 C70.8,33.3 70.5,33 69.9,33 C69,33 68.2,33.8 67.3,35.7 C66.4,37.3 65.4,42 65.4,43.2 C65.4,44 65.1,44.2 64.4,44.2 C62.9,44.2 60.2,44.4 59.4,44.4 C58.8,44.4 58.5,44.2 58.5,43.3 C58.5,39.2 62.7,28.6 62.7,21.9 C62.7,20.3 62.1,19.5 61.1,19.5 C60.7,19.5 60.4,19.3 60.4,18.9 C60.5,18.1 63.3,16.6 66,16.6 M66,13.6 C62.4,13.6 57.5,15.7 57.5,19.2 C57.5,20.7 58.4,22 59.8,22.5 C59.7,25.9 58.5,30.4 57.4,34.5 C56.4,38.2 55.6,41.3 55.6,43.5 C55.6,45.9 57.2,47.6 59.5,47.6 C59.9,47.6 60.5,47.6 61.4,47.5 C62.4,47.4 63.7,47.4 64.4,47.4 C66.1,47.4 67.4,46.6 68,45.2 C69.4,46.7 71.6,47.6 74.2,47.6 C78.8,47.6 81.7,44.6 82.7,43.3 C83.3,42.5 84.1,41.5 84.1,39.9 C84.1,37.9 82.5,36.2 80.4,36.2 C80.4,36.2 80.3,36.2 80.3,36.2 C80.6,35.2 80.9,34 80.9,32.6 C80.9,29.5 78.6,26.3 73.6,26.3 C73.1,26.3 72.6,26.3 72.2,26.4 C72.8,24.1 73.2,21.8 73.2,20.3 C73.3,16.3 70.3,13.6 66,13.6 L66,13.6 Z" id="Shape" fill="#FFFFFF" fill-rule="nonzero"></path>
        <path d="M86.3,20.3 C88,20.3 89.5,21.4 89.5,22.8 C89.5,25.2 87.5,26.8 85.7,26.8 C83.7,26.8 82.5,25.6 82.5,24.2 C82.5,22.3 84,20.3 86.3,20.3 M87,29.3 C88.1,29.3 88.6,29.7 88.6,30.5 C88.6,32.4 87.1,35.4 87.1,39 C87.1,40 87.9,40.6 88.5,40.6 C89.2,40.6 89.6,40.2 90.2,39.6 C90.5,39.3 90.7,39.1 91,39.1 C91.4,39.1 91.7,39.5 91.7,39.8 C91.7,40.3 91.4,40.7 90.9,41.3 C89.9,42.6 87.8,44.5 84.8,44.5 C81.6,44.5 79.6,42.7 79.6,40.5 C79.6,37.4 81.2,34.3 81.2,32.6 C81.2,31.8 80.9,31.7 80.9,31.1 C81,30 84.3,29.3 87,29.3 M86.3,17.3 C82.1,17.3 79.5,20.9 79.5,24.2 C79.5,25.4 79.9,26.6 80.6,27.5 C79.1,28.2 78,29.3 78,31.1 C78,31.9 78.2,32.4 78.3,32.7 C78.3,33.1 78,34 77.8,34.7 C77.3,36.3 76.7,38.4 76.7,40.6 C76.7,44.6 80.2,47.6 84.9,47.6 C89.5,47.6 92.4,44.6 93.4,43.3 C94,42.5 94.8,41.5 94.8,39.9 C94.8,37.9 93.2,36.2 91.1,36.2 C90.9,36.2 90.7,36.2 90.5,36.3 C90.6,35.7 90.8,35 91,34.4 C91.4,33.1 91.7,31.8 91.7,30.6 C91.7,29.6 91.3,28.5 90.6,27.7 C91.8,26.5 92.5,24.8 92.5,22.8 C92.5,19.7 89.8,17.3 86.3,17.3 L86.3,17.3 Z" id="Shape" fill="#FFFFFF" fill-rule="nonzero"></path>
        <path d="M105.4,29.3 C108,29.3 109.3,30.5 109.3,32.3 C109.3,34.5 108,37.1 108,39.1 C108,40 108.6,40.6 109.3,40.6 C110.1,40.6 110.5,40.2 111.1,39.6 C111.4,39.3 111.6,39.1 111.9,39.1 C112.3,39.1 112.6,39.5 112.6,39.8 C112.6,40.3 112.3,40.7 111.8,41.3 C110.8,42.6 108.7,44.5 105.7,44.5 C103,44.5 100.8,42.9 100.8,40.8 C100.8,37.9 102.3,35.8 102.3,33.9 C102.3,33.3 102,32.9 101.4,32.9 C100.6,32.9 99.9,33.5 98.9,35.6 C98.1,37.2 96.8,41.3 96.8,43.2 C96.8,44 96.5,44.2 95.7,44.2 C94.3,44.2 91.7,44.4 90.9,44.4 C90.3,44.4 89.9,44.2 89.9,43.3 C89.9,41.5 91.9,35 91.9,32.5 C91.9,31.7 91.6,31.6 91.6,31 C91.6,29.9 94.8,29.2 97.6,29.2 C98.7,29.2 99.2,29.6 99.2,30.4 C99.2,31.2 98.9,32.2 98.9,32.2 C100,31.3 102.6,29.3 105.4,29.3 M105.4,26.3 C103.8,26.3 102.3,26.7 100.9,27.4 C100.1,26.8 99.1,26.3 97.7,26.3 C95.6,26.3 88.7,26.6 88.7,31.1 C88.7,31.9 88.9,32.5 89,32.8 C88.9,34 88.4,36.5 87.9,38.3 C87.3,40.9 87,42.4 87,43.5 C87,45.9 88.6,47.6 91,47.6 C91.4,47.6 91.9,47.6 92.8,47.5 C93.8,47.4 95,47.4 95.7,47.4 C97.5,47.4 98.8,46.5 99.4,45.2 C100.8,46.7 103.1,47.7 105.6,47.7 C110.2,47.7 113.1,44.7 114.1,43.4 C114.7,42.6 115.5,41.6 115.5,40 C115.5,38 113.9,36.3 111.8,36.3 C111.7,36.3 111.6,36.3 111.6,36.3 C111.9,35.1 112.2,33.8 112.2,32.5 C112.4,28.2 108.9,26.3 105.4,26.3 L105.4,26.3 Z" id="Shape" fill="#FFFFFF" fill-rule="nonzero"></path>
        <path d="M118.1,16.6 C120.6,16.6 122.4,17.9 122.4,20.3 C122.4,23.3 119,33.6 119,35.5 C120.1,35.5 121.9,33.9 121.9,33 C121.9,32.5 121.6,32.4 121.6,31.9 C121.6,30.9 125.1,29.4 127.3,29.4 C128.3,29.4 128.9,29.8 128.9,30.5 C128.9,32.5 126.5,35.1 122.9,37 C123.4,38.7 125.2,40.1 126.7,40.1 C128.1,40.1 128.3,39.1 129.1,39.1 C129.5,39.1 129.7,39.3 129.7,39.7 C129.7,40.2 129.4,40.9 128.9,41.7 C127.9,43.1 126.4,44.6 123.8,44.6 C119.6,44.6 119.1,38.2 118.6,38.2 C118.6,38.2 117.4,42.3 117.4,43.3 C117.4,44.1 117.1,44.3 116.4,44.3 C115,44.3 112.3,44.5 111.6,44.5 C111,44.5 110.7,44.3 110.7,43.4 C110.7,39.2 114.9,29.1 114.9,22 C114.9,20.4 114.3,19.6 113.3,19.6 C112.9,19.6 112.6,19.4 112.6,19 C112.6,18.1 115.4,16.6 118.1,16.6 M118.1,13.6 C114.5,13.6 109.6,15.7 109.6,19.2 C109.6,20.7 110.5,22 111.9,22.5 C111.8,26.1 110.6,30.7 109.5,34.7 C108.5,38.2 107.7,41.3 107.7,43.5 C107.7,45.9 109.3,47.6 111.6,47.6 C112,47.6 112.6,47.6 113.5,47.5 C114.5,47.4 115.7,47.4 116.4,47.4 C117.7,47.4 118.8,46.9 119.5,46.1 C120.6,47 121.9,47.6 123.8,47.6 C126,47.6 129.1,46.9 131.4,43.3 C132.3,42 132.7,40.8 132.7,39.7 C132.7,37.7 131.1,36.1 129.1,36.1 C130.6,34.6 131.8,32.6 131.8,30.5 C131.8,28.5 130.2,26.4 127.2,26.4 C126.5,26.4 125.4,26.6 124.2,26.9 C124.9,24 125.4,21.8 125.4,20.4 C125.5,16.3 122.5,13.6 118.1,13.6 L118.1,13.6 Z" id="Shape" fill="#FFFFFF" fill-rule="nonzero"></path>
        <path d="M155.7,12.5 C160.3,12.5 163.5,14.6 163.5,18.5 C163.5,24.2 160.2,29.3 160.2,34.4 C160.2,35.6 161,36.4 162.2,36.4 C164,36.4 165.8,34.4 167.2,31.7 C169,27.9 170.7,20.5 171.8,16.4 C172.1,15.1 175.7,13.7 178.9,13.7 C179.5,13.7 179.8,14 179.8,14.4 C179.8,14.9 179.2,15.5 178.6,17 C177.5,19.6 175.5,27.5 173.8,35.8 C171.1,49 167.7,60.1 156.8,60.1 C151.2,60.1 147.2,56.9 147.2,52.3 C147.2,47.4 151.5,44.5 156,44.5 C157.6,44.5 158.4,44.9 158.4,45.4 C158.4,45.8 158.2,46 157.7,46.1 C156.5,46.3 155.1,47.3 155.1,49.1 C155.1,51.1 156.2,52.2 158.5,52.2 C161.7,52.2 164.8,47.3 167.1,36.6 C165.2,39.4 161.9,42.2 158.1,42.2 C154.3,42.2 152.2,39.8 152.2,36.3 C152.2,31.1 156.1,25 156.1,17.8 C156.1,16.6 155.4,15.8 154.1,15.8 C150.4,15.8 147.5,19.9 147.5,23.8 C147.5,25.4 148.4,26.1 149.4,26.1 C150,26.1 150.6,25.7 150.9,25.7 C151.2,25.7 151.4,25.9 151.4,26.2 C151.4,28.1 148.6,31.6 145.1,31.6 C142,31.6 139.8,29.2 139.8,25.9 C139.8,17.8 148.3,12.5 155.7,12.5 M155.7,9.5 C146.6,9.5 136.8,16.1 136.8,26 C136.8,31 140.3,34.7 145.1,34.7 C146.6,34.7 148.1,34.3 149.4,33.6 C149.2,34.5 149.1,35.5 149.1,36.4 C149.1,38.8 149.9,40.9 151.2,42.5 C147,44.1 144.2,47.8 144.2,52.4 C144.2,58.7 149.5,63.2 156.8,63.2 C171.3,63.2 174.7,46.5 176.8,36.5 C178.6,27.4 180.6,20.3 181.4,18.2 C181.6,17.6 181.9,17.2 182,16.9 C182.3,16.3 182.8,15.5 182.8,14.4 C182.8,12.3 181.1,10.7 178.9,10.7 C176.1,10.7 169.9,11.9 168.9,15.7 C168.7,16.6 168.4,17.7 168.1,18.9 C167.1,22.7 165.8,27.8 164.6,30.5 C164.2,31.2 163.9,31.8 163.6,32.2 C163.9,30.8 164.3,29.3 164.8,27.7 C165.7,25 166.6,21.8 166.6,18.5 C166.5,13.1 162.2,9.5 155.7,9.5 L155.7,9.5 Z M150.6,22.8 C150.9,21.2 151.9,19.8 153,19.2 C152.9,20.5 152.7,21.8 152.3,23.1 C151.9,22.9 151.4,22.8 150.9,22.8 C150.8,22.8 150.7,22.8 150.6,22.8 L150.6,22.8 Z M161.3,44.7 C161.4,44.7 161.5,44.6 161.6,44.6 C161.5,44.8 161.5,44.9 161.4,45.1 C161.3,44.9 161.3,44.8 161.3,44.7 L161.3,44.7 Z M158,49.1 C158.1,49 158.2,49 158.3,49 C158.5,49 158.8,48.9 159,48.8 C158.7,49.1 158.4,49.1 158.4,49.1 C158.2,49.2 158.1,49.2 158,49.1 C158,49.2 158,49.2 158,49.1 L158,49.1 Z" id="Shape" fill="#FFFFFF" fill-rule="nonzero"></path>
        <path d="M186.5,29.1 C190.5,29.1 192.8,31.6 192.8,35 C192.8,40.4 189.8,44.7 183.4,44.7 C179.2,44.7 176,42.3 176,38.4 C175.9,33.8 179.9,29.1 186.5,29.1 M185.6,41.1 C187.4,41.1 188.5,39.3 188.5,37.6 C188.5,36.8 188.2,36.1 187.5,35.8 C186,35.2 185.7,34.7 185.7,34 C185.7,32.9 186.5,32.4 186.5,32 C186.5,31.8 186.4,31.7 186.2,31.7 C186,31.7 185.4,31.9 184.8,32.5 C183.8,33.4 183.1,35 183.1,37.7 C183.1,39.8 183.9,41.1 185.6,41.1 M186.5,26.1 C182.7,26.1 179.2,27.4 176.7,29.9 C174.3,32.2 173,35.3 173,38.5 C173,43.9 177.4,47.8 183.4,47.8 C190.8,47.8 195.8,42.7 195.8,35.1 C195.8,29.8 192,26.1 186.5,26.1 L186.5,26.1 Z" id="Shape" fill="#FFFFFF" fill-rule="nonzero"></path>
        <path d="M211.2,29.3 C212.3,29.3 212.8,29.7 212.8,30.5 C212.8,32.4 211.1,36.4 211.1,39.1 C211.1,40.3 211.6,40.8 212.3,40.8 C212.9,40.8 213.2,40.6 213.6,40.3 C213.9,40.1 214.1,39.9 214.3,39.9 C214.6,39.9 214.8,40.1 214.8,40.4 C214.8,40.8 214.6,41.2 214.2,41.6 C213.1,43 211.3,44.3 208.8,44.3 C205,44.3 204.2,41.7 204.2,41.7 C204.2,41.7 202,44.3 197.4,44.3 C195,44.3 193.4,42.9 193.4,40.6 C193.4,37.6 195,34.1 195,32.4 C195,31.6 194.7,31.5 194.7,30.9 C194.7,29.8 198,29.1 200.8,29.1 C201.9,29.1 202.4,29.5 202.4,30.3 C202.4,32.5 200.6,35.5 200.6,39 C200.6,39.7 201.1,40.2 201.8,40.2 C202.6,40.2 203,39.6 203.6,38.5 C204.7,36.6 205.3,34.2 205.3,32.4 C205.3,31.6 205,31.5 205,30.9 C205.1,30 208.4,29.3 211.2,29.3 M211.2,26.3 C209.9,26.3 206.7,26.4 204.4,27.6 C203.6,26.8 202.5,26.3 200.9,26.3 C198.8,26.3 191.8,26.6 191.8,31.1 C191.8,31.9 192,32.4 192.1,32.8 C192,33.2 191.8,34.2 191.6,34.9 C191.1,36.6 190.5,38.8 190.5,40.9 C190.5,44.8 193.5,47.6 197.5,47.6 C200.2,47.6 202.3,46.9 203.8,46.1 C205,47 206.6,47.6 208.9,47.6 C212,47.6 214.7,46.2 216.7,43.7 C217.2,43 217.9,42 217.9,40.7 C217.9,38.7 216.4,37.2 214.5,37.2 C214.7,36.5 214.9,35.7 215.1,35 C215.5,33.4 215.9,31.9 215.9,30.7 C215.9,28.5 214.4,26.3 211.2,26.3 L211.2,26.3 Z" id="Shape" fill="#FFFFFF" fill-rule="nonzero"></path>
        <path d="M242.6,12.5 C246.5,12.5 249,14.3 249,17.7 C249,20 247.5,21.9 245.5,21.9 C244.2,21.9 243.1,21 243.1,19.6 C243.1,18 244.7,17.4 244.7,16.2 C244.7,15.5 244.3,15 243.4,15 C242.1,15 240.7,16.4 240.7,18.6 C240.7,24.2 247.5,26.8 247.5,33.8 C247.5,40.2 241.5,45 234.6,45 C229.5,45 225,42.3 225,37.6 C225,33.2 230,31.1 233.4,31.1 C235,31.1 235.5,31.5 235.5,32 C235.5,32.5 235.2,32.8 234.6,33.2 C233.3,34.2 232,35.7 232,38 C232,40.3 233.5,41.5 235.5,41.5 C237.8,41.5 239.3,39.3 239.3,36 C239.3,28.8 233,26.4 233,20.7 C233,15.3 238.6,12.5 242.6,12.5 M242.6,9.5 C237.3,9.5 230,13.3 230,20.5 C230,23.7 231.4,26 232.8,28.1 C227.5,28.3 222,31.9 222,37.6 C222,43.6 227.3,48 234.6,48 C243.3,48 250.5,41.6 250.5,33.8 C250.5,29.8 248.8,27 247.1,24.7 C249.9,23.9 252.1,21.1 252.1,17.7 C252,12.7 248.3,9.5 242.6,9.5 L242.6,9.5 Z M235,38.3 C235,38.3 235,38.2 235,37.9 C235,37 235.4,36.2 236.3,35.6 C236.3,35.7 236.3,35.8 236.3,35.9 C236.3,37.5 235.8,38.4 235.5,38.4 C235.2,38.3 235.1,38.3 235,38.3 L235,38.3 Z" id="Shape" fill="#FFFFFF" fill-rule="nonzero"></path>
        <path d="M255.8,16.6 C258.3,16.6 260.1,17.9 260.1,20.3 C260.1,23 258,29.9 257.4,32 C258.6,30.7 260.8,29.3 263.5,29.3 C266.1,29.3 267.8,30.5 267.8,32.6 C267.8,35 266.4,36.9 266.4,39.4 C266.4,40.1 267,40.6 267.6,40.6 C268.4,40.6 268.8,40.2 269.4,39.6 C269.7,39.3 269.9,39.1 270.2,39.1 C270.6,39.1 270.9,39.5 270.9,39.8 C270.9,40.3 270.6,40.7 270.1,41.3 C269.1,42.6 267,44.5 264,44.5 C261.1,44.5 259.1,43 259.1,40.8 C259.1,38.2 260.6,35.7 260.6,33.9 C260.6,33.3 260.3,33 259.7,33 C258.8,33 258,33.8 257.1,35.7 C256.2,37.3 255.2,42 255.2,43.2 C255.2,44 254.9,44.2 254.2,44.2 C252.7,44.2 250,44.4 249.2,44.4 C248.6,44.4 248.3,44.2 248.3,43.3 C248.3,39.2 252.5,28.6 252.5,21.9 C252.5,20.3 251.9,19.5 250.9,19.5 C250.5,19.5 250.2,19.3 250.2,18.9 C250.3,18.1 253.1,16.6 255.8,16.6 M255.8,13.6 C252.2,13.6 247.3,15.7 247.3,19.2 C247.3,20.7 248.2,22 249.6,22.5 C249.5,25.9 248.3,30.4 247.2,34.5 C246.2,38.2 245.4,41.3 245.4,43.5 C245.4,45.9 247,47.6 249.3,47.6 C249.7,47.6 250.3,47.6 251.2,47.5 C252.2,47.4 253.5,47.4 254.2,47.4 C255.9,47.4 257.2,46.6 257.8,45.2 C259.2,46.7 261.4,47.6 264,47.6 C268.6,47.6 271.5,44.6 272.5,43.3 C273.1,42.5 273.9,41.5 273.9,39.9 C273.9,37.9 272.3,36.2 270.2,36.2 C270.2,36.2 270.1,36.2 270.1,36.2 C270.4,35.2 270.7,34 270.7,32.6 C270.7,29.5 268.4,26.3 263.4,26.3 C262.9,26.3 262.4,26.3 262,26.4 C262.6,24.1 263,21.8 263,20.3 C263.1,16.3 260.1,13.6 255.8,13.6 L255.8,13.6 Z" id="Shape" fill="#FFFFFF" fill-rule="nonzero"></path>
        <path d="M280,29.1 C284,29.1 286.3,31.6 286.3,35 C286.3,40.4 283.3,44.7 276.9,44.7 C272.7,44.7 269.5,42.3 269.5,38.4 C269.5,33.8 273.4,29.1 280,29.1 M279.2,41.1 C281,41.1 282.1,39.3 282.1,37.6 C282.1,36.8 281.8,36.1 281.1,35.8 C279.6,35.2 279.3,34.7 279.3,34 C279.3,32.9 280.1,32.4 280.1,32 C280.1,31.8 280,31.7 279.8,31.7 C279.6,31.7 279,31.9 278.4,32.5 C277.4,33.4 276.7,35 276.7,37.7 C276.7,39.8 277.5,41.1 279.2,41.1 M280,26.1 C276.2,26.1 272.7,27.4 270.2,29.9 C267.8,32.2 266.5,35.3 266.5,38.5 C266.5,43.9 270.9,47.8 276.9,47.8 C284.3,47.8 289.3,42.7 289.3,35.1 C289.3,29.8 285.5,26.1 280,26.1 L280,26.1 Z" id="Shape" fill="#FFFFFF" fill-rule="nonzero"></path>
        <path d="M304.7,29.3 C305.8,29.3 306.3,29.7 306.3,30.5 C306.3,32.4 304.6,36.1 304.6,38.9 C304.6,39.9 305.2,40.6 305.9,40.6 C306.7,40.6 307.1,40.2 307.7,39.6 C308,39.3 308.2,39.1 308.5,39.1 C308.9,39.1 309.2,39.5 309.2,39.8 C309.2,40.3 308.9,40.7 308.4,41.3 C307.4,42.6 305.4,44.5 302.4,44.5 C298.6,44.5 297.8,41.9 297.8,41.9 C297.8,41.9 295.6,44.5 291,44.5 C288.6,44.5 287,43.1 287,40.8 C287,37.8 288.6,34.3 288.6,32.6 C288.6,31.8 288.3,31.7 288.3,31.1 C288.3,30 291.6,29.3 294.4,29.3 C295.5,29.3 296,29.7 296,30.5 C296,32.7 294.2,35.7 294.2,39.2 C294.2,39.9 294.7,40.4 295.4,40.4 C296.2,40.4 296.6,39.8 297.2,38.7 C298.3,36.8 298.9,34.4 298.9,32.6 C298.9,31.8 298.6,31.7 298.6,31.1 C298.6,30 301.9,29.3 304.7,29.3 M304.7,26.3 C303.4,26.3 300.2,26.4 297.9,27.6 C297.1,26.8 296,26.3 294.4,26.3 C292.3,26.3 285.3,26.6 285.3,31.1 C285.3,31.9 285.5,32.4 285.6,32.8 C285.5,33.2 285.3,34.2 285.1,34.9 C284.6,36.6 284,38.8 284,40.9 C284,44.8 287,47.6 291,47.6 C293.7,47.6 295.8,46.9 297.3,46.1 C298.5,47 300.1,47.6 302.4,47.6 C306.8,47.6 309.6,44.9 310.8,43.3 C311.4,42.5 312.2,41.5 312.2,39.9 C312.2,37.9 310.6,36.2 308.5,36.2 C308.3,36.2 308.2,36.2 308,36.2 C308.1,35.7 308.3,35.2 308.4,34.8 C308.8,33.2 309.2,31.9 309.2,30.6 C309.3,28.5 307.9,26.3 304.7,26.3 L304.7,26.3 Z" id="Shape" fill="#FFFFFF" fill-rule="nonzero"></path>
        <path d="M314.7,16.6 C317.2,16.6 319,17.9 319,20.3 C319,24.3 315.2,34.4 315.2,39 C315.2,40 315.7,40.7 316.5,40.7 C317.3,40.7 317.7,40.3 318.3,39.7 C318.6,39.4 318.8,39.2 319.1,39.2 C319.5,39.2 319.8,39.6 319.8,39.9 C319.8,40.4 319.5,40.8 319,41.4 C318,42.7 316,44.6 313,44.6 C309.8,44.6 307.8,42.6 307.8,40.1 C307.8,35.7 311.5,29.6 311.5,22.1 C311.5,20.5 310.9,19.7 309.9,19.7 C309.5,19.7 309.2,19.5 309.2,19.1 C309.2,18.1 312,16.6 314.7,16.6 M314.7,13.6 C311.1,13.6 306.2,15.7 306.2,19.2 C306.2,20.8 307.1,22 308.5,22.5 C308.4,26.1 307.4,29.5 306.4,32.5 C305.6,35.2 304.8,37.7 304.8,40 C304.8,44.4 308.2,47.5 313,47.5 C317.4,47.5 320.2,44.8 321.4,43.2 C322,42.4 322.8,41.4 322.8,39.8 C322.8,37.8 321.2,36.1 319.1,36.1 C318.9,36.1 318.7,36.1 318.5,36.1 C318.9,34.2 319.5,31.9 320.1,29.7 C321.1,26 322,22.5 322,20.2 C322,16.3 319,13.6 314.7,13.6 L314.7,13.6 Z" id="Shape" fill="#FFFFFF" fill-rule="nonzero"></path>
        <path d="M335.8,16.6 C338.3,16.6 339.9,17.9 339.9,20.3 C339.9,24.6 335.9,32.9 335.9,38.7 C335.9,40.3 336.5,41 337.1,41 C337.7,41 338,40.8 338.4,40.5 C338.7,40.3 338.9,40.1 339.1,40.1 C339.4,40.1 339.6,40.3 339.6,40.6 C339.6,41 339.4,41.4 339,41.8 C337.9,43.2 336.1,44.5 333.6,44.5 C330.7,44.5 329.6,42.1 329.6,42.1 C329.6,42.1 327.1,44.5 323.6,44.5 C320.2,44.5 318.2,42.5 318.2,38.9 C318.2,33.5 322.2,29.3 327.6,29.3 C329.3,29.3 330.7,29.8 331.1,30.1 C331.8,27.3 332.3,24.6 332.3,22 C332.3,20.4 331.7,19.6 330.7,19.6 C330.2,19.6 330,19.4 330,19 C330.1,18.1 333.1,16.6 335.8,16.6 M326.7,41.2 C328.4,41.2 329.7,35.9 329.7,32.9 C329.7,32.3 329.4,32 328.8,32 C327.2,32 325.5,36.3 325.5,39.4 C325.6,40.4 326,41.2 326.7,41.2 M335.8,13.6 C332.7,13.6 327,15.5 327,19.2 C327,20.8 327.9,22 329.3,22.5 C329.3,23.7 329.1,25 328.9,26.4 C328.5,26.4 328.1,26.3 327.6,26.3 C320.7,26.3 315.2,31.9 315.2,38.9 C315.2,44 318.6,47.5 323.6,47.5 C325.8,47.5 327.7,46.8 329.1,46.1 C330.2,46.9 331.7,47.5 333.6,47.5 C336.7,47.5 339.4,46.1 341.4,43.6 C341.7,43.2 342.6,42.1 342.6,40.6 C342.6,38.6 341.1,37.1 339.1,37.1 C339,37.1 339,37.1 338.9,37.1 C339.2,34.7 340.1,31.7 340.9,29 C341.9,25.8 342.8,22.7 342.8,20.3 C342.9,16.3 340.1,13.6 335.8,13.6 L335.8,13.6 Z" id="Shape" fill="#FFFFFF" fill-rule="nonzero"></path>
        <path d="M375.9,12.5 C379.8,12.5 381.9,14.6 381.9,18.3 C381.9,23.2 377,28.4 370.9,29.4 C370.3,31.5 369.7,33.4 369,35.3 C371.4,36.8 373.8,37.9 376.4,37.9 C378.6,37.9 380.1,37.1 381.1,35.9 C381.5,35.4 381.8,35.1 382.1,35.1 C382.6,35.1 382.8,35.4 382.8,36 C382.8,38 380.4,44.8 375.5,44.8 C372.2,44.8 369.2,42.1 366.7,39.3 C364.7,42.7 361.5,44.8 357.2,44.8 C352.1,44.8 348.9,42.2 348.9,37.7 C348.9,33.3 352.8,30.5 356.8,30.5 C359.2,30.5 361.6,31.2 363.6,32.2 C364,31.3 364.2,30.6 364.5,29.4 C358.9,28.5 352.6,25.4 352.6,19.9 C352.6,16.3 355.3,13.5 358.9,13.5 C363.3,13.5 364.9,17 364.9,18.6 C364.9,19 364.7,19.3 364.2,19.3 C363.8,19.3 363.2,19 362.6,19 C361.4,19 360.3,20.2 360.3,21.7 C360.3,23.8 362.1,25.1 365.2,26.1 C367.5,17.1 370.8,12.5 375.9,12.5 M371.7,25.9 C374.6,25.2 377.4,22.2 377.4,20 C377.4,19 376.9,18.6 376.2,18.6 C374.8,18.5 373.4,19.5 371.7,25.9 M358.3,38 C360.1,38 361.4,36.8 362.3,35.4 C361.1,34.6 359.9,33.7 358.5,33.7 C357.1,33.7 356,34.7 356,35.9 C356,37.2 357.1,38 358.3,38 M375.9,9.5 C371.7,9.5 368.7,11.8 366.7,14.6 C365.3,12.4 362.6,10.5 358.9,10.5 C353.7,10.5 349.6,14.6 349.6,19.9 C349.6,22.9 351,25.7 353.5,27.9 C348.7,29.3 345.9,33.5 345.9,37.7 C345.9,43.8 350.3,47.8 357.2,47.8 C361,47.8 364.4,46.4 367,43.8 C369.4,46 372.3,47.8 375.6,47.8 C382.4,47.8 385.9,39.5 385.9,36 C385.9,33.8 384.3,32.1 382.2,32.1 C380.4,32.1 379.4,33.4 378.9,34 C378.7,34.2 378.2,34.9 376.5,34.9 C375.4,34.9 374.2,34.6 372.8,33.9 C373,33.3 373.2,32.6 373.4,32 C379.9,30 385,24.2 385,18.2 C385,12.9 381.4,9.5 375.9,9.5 L375.9,9.5 Z" id="Shape" fill="#FFFFFF" fill-rule="nonzero"></path>
        <path d="M391.6,29.2 C394.9,29.2 396.6,30.8 396.6,32.9 C396.6,35.8 393.7,38.5 389.1,38.5 C389.1,39.9 390.8,41 393.1,41 C395,41 396.3,40 397.5,38.9 C397.9,38.5 398.2,38.3 398.5,38.3 C398.9,38.3 399.2,38.5 399.2,38.9 C399.2,39.4 398.9,39.8 398.2,40.5 C396.6,42.1 394.1,44.5 389.3,44.5 C384.8,44.5 381.2,42.5 381.2,37.9 C381.3,33.4 385.3,29.2 391.6,29.2 M388.9,36.2 C391.3,35.7 392.4,33.6 392.4,32.6 C392.4,32 392.1,31.7 391.6,31.7 C390.3,31.7 388.9,34.1 388.9,36.2 M391.6,26.2 C384,26.2 378.2,31.3 378.2,38 C378.2,43.8 382.5,47.6 389.3,47.6 C395.4,47.6 398.6,44.4 400.4,42.7 L400.5,42.6 L400.6,42.5 C401.4,41.6 402.3,40.6 402.3,38.9 C402.3,37.1 401,35.6 399.3,35.3 C399.6,34.5 399.7,33.7 399.7,32.8 C399.6,29.6 397.2,26.2 391.6,26.2 L391.6,26.2 Z" id="Shape" fill="#FFFFFF" fill-rule="nonzero"></path>
        <path d="M416.3,29.3 C416.7,29.3 417,29.5 417,30 C417,31.2 415.3,34.9 415.3,38.6 C415.3,39.8 416.1,40.6 416.9,40.6 C417.7,40.6 418.1,40.2 418.7,39.6 C419,39.3 419.2,39.1 419.5,39.1 C419.9,39.1 420.2,39.5 420.2,39.8 C420.2,40.3 419.9,40.7 419.4,41.3 C418.4,42.6 416.1,44.5 413.1,44.5 C410.4,44.5 409.3,42.2 409.2,42 C409.1,42.1 407.2,44.5 403.4,44.5 C400.4,44.5 397.8,42.6 397.8,38.9 C397.8,34.1 400.7,29.3 407.5,29.3 C410,29.3 411,30.2 411.8,30.2 C413.1,30.2 415.2,29.3 416.3,29.3 M406.2,41.2 C407.9,41.2 409.2,35.9 409.2,32.9 C409.2,32.3 408.9,32 408.3,32 C406.7,32 405,36.3 405,39.4 C405,40.4 405.5,41.2 406.2,41.2 M416.3,26.3 C415.4,26.3 414.4,26.6 413.4,26.8 C413,26.9 412.4,27.1 412.1,27.1 C412.1,27.1 412.1,27.1 412,27.1 C411.2,26.8 409.8,26.2 407.6,26.2 C402.5,26.2 399.5,28.4 397.9,30.2 C395.9,32.4 394.9,35.5 394.9,38.8 C394.9,43.8 398.5,47.4 403.5,47.4 C405.8,47.4 407.6,46.8 408.9,46 C410,46.8 411.4,47.4 413.2,47.4 C417.1,47.4 420.3,45.2 421.9,43.1 C422.5,42.3 423.3,41.3 423.3,39.7 C423.3,37.7 421.7,36 419.6,36 C419.2,36 418.9,36.1 418.6,36.1 C418.8,34.9 419.2,33.7 419.4,32.8 C419.8,31.6 420,30.7 420,29.9 C420,27.9 418.4,26.3 416.3,26.3 L416.3,26.3 Z" id="Shape" fill="#FFFFFF" fill-rule="nonzero"></path>
        <path d="M433.1,29.3 C435.1,29.3 436.4,30.5 436.4,32.6 C436.4,37.6 429.5,44.6 423.1,44.6 C420.5,44.6 418.9,43.2 418.9,40.9 C418.9,37.7 420.5,34.4 420.5,32.7 C420.5,31.9 420.2,31.8 420.2,31.2 C420.2,30.1 423.5,29.4 426.2,29.4 C427.3,29.4 427.8,29.8 427.8,30.6 C427.8,32.7 426.1,36.4 426.1,39.3 C426.1,40.1 426.5,40.5 427.2,40.5 C428.9,40.5 431.2,37.4 431.2,35 C431.2,34.1 430,33.8 430,32.1 C430,30.3 431.5,29.3 433.1,29.3 M433.1,26.3 C431.7,26.3 430.5,26.7 429.5,27.4 C428.7,26.7 427.7,26.3 426.3,26.3 C424.2,26.3 417.3,26.6 417.3,31.1 C417.3,31.9 417.5,32.4 417.6,32.7 C417.6,33.1 417.3,34 417.1,34.7 C416.6,36.4 416,38.6 416,40.8 C416,44.8 418.9,47.5 423.2,47.5 C427,47.5 431,45.7 434.4,42.6 C437.7,39.6 439.6,35.8 439.6,32.6 C439.4,28.9 436.8,26.3 433.1,26.3 L433.1,26.3 Z" id="Shape" fill="#FFFFFF" fill-rule="nonzero"></path>
        <path d="M447.3,29.2 C450.6,29.2 452.3,30.8 452.3,32.9 C452.3,35.8 449.1,38.5 444.5,38.5 C444.6,40.1 445.9,41.4 447.7,41.4 C449.3,41.4 450.5,40.7 451.3,40.2 C451.8,39.9 452.1,39.6 452.4,39.6 C452.8,39.6 453,39.9 453,40.2 C453,40.7 452.7,41.1 451.9,41.8 C450.8,42.9 448.3,44.6 444.7,44.6 C440.2,44.6 436.8,42.6 436.8,38 C437,33.4 440.9,29.2 447.3,29.2 M444.6,36.2 C447,35.7 448.1,33.6 448.1,32.6 C448.1,32 447.8,31.7 447.3,31.7 C446,31.7 444.6,34.1 444.6,36.2 M447.3,26.2 C439.7,26.2 433.9,31.3 433.9,38 C433.9,43.8 438.2,47.6 444.8,47.6 C448.9,47.6 452.3,45.7 454.1,43.9 C454.9,43.1 456,42 456,40.1 C456,38.7 455.2,37.5 454,36.9 C454.8,35.7 455.2,34.3 455.2,32.9 C455.3,29.6 452.8,26.2 447.3,26.2 L447.3,26.2 Z" id="Shape" fill="#FFFFFF" fill-rule="nonzero"></path>
        <path d="M484.4,12.5 C492.1,12.5 499,15.8 499,24.8 C499,28.8 498.6,32 497.4,35 C494.9,41.4 489.9,44.7 484.9,44.7 C481.7,44.7 478.9,43 478.1,43 C477,43 474.5,44.7 473.2,44.7 C472.7,44.7 472.4,44.5 472.4,44.1 C472.4,43.5 473.1,43 474,40.7 C474.8,38.6 477.1,25.4 478.4,20.2 C479.2,16.9 480.6,15.9 481.9,15 C475.6,15.4 471.3,20.1 471.3,23.4 C471.3,24.9 472.2,25.5 473.3,25.5 C474.1,25.5 474.5,25 474.9,25 C475.3,25 475.4,25.2 475.4,25.5 C475.4,27.1 472.9,30.9 468.7,30.9 C465.6,30.9 463.3,28.7 463.3,25.4 C463.4,17.8 473.7,12.5 484.4,12.5 M484,41.7 C486.1,41.7 488.4,38.9 489.8,34.5 C490.8,31.2 491.5,27.3 491.5,23.3 C491.5,17.8 489.6,15.8 487.9,15.5 C487.1,16.5 486.6,17.7 485.8,20.4 C484.2,26.1 482.1,38.4 482.1,39.6 C482,40.9 482.7,41.7 484,41.7 M484.4,9.5 C478.6,9.5 472.8,11 468.4,13.5 C463.2,16.5 460.4,20.7 460.4,25.3 C460.4,30.2 463.9,33.8 468.8,33.8 C470.2,33.8 471.6,33.5 472.8,32.9 C472.2,35.9 471.6,38.9 471.3,39.5 C470.9,40.5 470.6,41.1 470.3,41.5 C470,42.1 469.5,42.9 469.5,44 C469.5,46.1 471.1,47.6 473.3,47.6 C474.7,47.6 476,47 477.3,46.4 C477.6,46.3 477.9,46.1 478.2,46 C478.3,46 478.4,46.1 478.6,46.1 C480,46.7 482.4,47.6 485.1,47.6 C491.7,47.6 497.5,43.1 500.4,36 C501.7,32.8 502.2,29.3 502.2,24.7 C502,15.3 495.3,9.5 484.4,9.5 L484.4,9.5 Z M485.3,37.1 C485.9,33.2 487.2,26.3 488.3,22 C488.3,22.4 488.3,22.8 488.3,23.2 C488.3,26.6 487.8,30.2 486.8,33.6 C486.4,35.1 485.8,36.3 485.3,37.1 L485.3,37.1 Z" id="Shape" fill="#FFFFFF" fill-rule="nonzero"></path>
        <path d="M506.2,16.6 C508.7,16.6 510.3,17.9 510.3,20.3 C510.3,22.7 508.1,28.8 507.7,31.1 C508.3,30.4 509.9,29.4 512,29.4 C515,29.4 517.3,30.7 517.3,34.3 C517.3,39 513.7,44.6 507.1,44.6 C502.2,44.6 499.5,42.1 499.5,38.4 C499.5,33.8 502.8,28.4 502.8,22.1 C502.8,20.5 502.2,19.7 501.2,19.7 C500.7,19.7 500.5,19.5 500.5,19.1 C500.5,18.1 503.5,16.6 506.2,16.6 M507.4,41.7 C508.9,41.7 510.5,36 510.5,34.1 C510.5,33.2 510.2,32.8 509.4,32.8 C508.2,32.8 506.4,37.5 506.4,40.6 C506.4,41.2 506.7,41.7 507.4,41.7 M506.2,13.6 C502.6,13.6 497.5,15.7 497.5,19.2 C497.5,20.7 498.4,22 499.8,22.5 C499.7,25.3 498.9,28 498.1,30.6 C497.3,33.3 496.5,35.8 496.5,38.4 C496.5,43.9 500.8,47.6 507.1,47.6 C515.3,47.6 520.3,40.7 520.3,34.3 C520.3,29.5 517.2,26.4 512.1,26.4 C512.8,23.8 513.3,21.8 513.3,20.4 C513.3,16.3 510.5,13.6 506.2,13.6 L506.2,13.6 Z" id="Shape" fill="#FFFFFF" fill-rule="nonzero"></path>
        <path d="M11.2,44.9 C6.1,44.9 3,41.9 3,37.8 C3,33.3 7.1,30.8 10.4,30.8 C11.6,30.8 12,31.1 12,31.4 C12,31.8 11.8,32 11.3,32.2 C10.2,32.7 9.1,33.7 9.1,35.1 C9.1,36.6 10.1,37.7 11.8,37.7 C19,37.7 17,19.1 19.8,17.1 C16.8,18.5 13.8,20.3 13.8,24 C13.8,25.2 14.2,26 15,26.5 C15.5,26.8 15.7,26.9 15.7,27.3 C15.7,27.6 15.2,28 14.3,28 C11.5,28 7.4,26.2 7.4,22.8 C7.4,17.9 14.2,16 19.2,14.5 C20.6,14.1 21.3,13.2 22.2,12.9 C23.5,12.5 25.5,12.4 26.1,12.4 C26.7,12.4 27.1,12.6 27.1,13.1 C27.1,13.6 26.8,14.1 26,15.9 C24,21.4 27.7,44.9 11.2,44.9 Z" id="Path" fill="#EEB0B3" fill-rule="nonzero"></path>
        <path d="M62.9,14.7 C61.8,16.1 60.3,17.2 58.2,17.4 C54.6,19.9 58.7,45 43,45 C37.4,45 34.6,41.9 34.6,37.8 C34.6,33.1 39.1,30.6 42.4,30.6 C43.6,30.6 44,30.9 44,31.3 C44,31.7 43.7,31.9 43.4,32.1 C42.2,32.6 41.1,33.7 41.1,35.1 C41.1,36.7 42.2,37.7 43.8,37.7 C48.9,37.7 49,25.3 51.3,19.6 C51.8,18.3 52.6,17.3 53.5,16.8 C51.8,16.2 50.6,15.9 48.7,15.9 C46,15.9 44.2,17.5 44.2,19.3 C44.2,20.7 45,21.3 46.2,21.3 C47,21.3 47.3,20.8 47.7,20.8 C48,20.8 48.2,21 48.2,21.3 C48.2,23.3 45.9,26.4 42.4,26.4 C39.1,26.4 36.7,24 36.7,20.7 C36.7,15.5 41.9,12.5 47.4,12.5 C52.8,12.5 55.6,13.6 58,13.6 C61.2,13.6 62.7,12.1 63.4,12.1 C63.7,12.1 63.9,12.2 63.9,12.6 C63.6,13.1 63.2,14.2 62.9,14.7 Z" id="Path" fill="#EEB0B3" fill-rule="nonzero"></path>
        <path d="M69.4,40.9 C69.4,38.3 70.9,35.8 70.9,34 C70.9,33.4 70.6,33.1 70,33.1 C69.1,33.1 68.3,33.9 67.4,35.8 C66.5,37.4 65.5,42.1 65.5,43.3 C65.5,44.1 65.2,44.3 64.5,44.3 C63,44.3 60.3,44.5 59.5,44.5 C58.9,44.5 58.6,44.3 58.6,43.4 C58.6,39.3 62.8,28.7 62.8,22 C62.8,20.4 62.2,19.6 61.2,19.6 C60.8,19.6 60.5,19.4 60.5,19 C60.5,18 63.3,16.4 66,16.4 C68.5,16.4 70.3,17.7 70.3,20.1 C70.3,22.8 68.2,29.7 67.6,31.8 C68.8,30.5 71,29.1 73.7,29.1 C76.3,29.1 78,30.3 78,32.4 C78,34.8 76.6,36.7 76.6,39.2 C76.6,39.9 77.2,40.4 77.8,40.4 C78.6,40.4 79,40 79.6,39.4 C79.9,39.1 80.1,38.9 80.4,38.9 C80.8,38.9 81.1,39.3 81.1,39.6 C81.1,40.1 80.8,40.5 80.3,41.1 C79.3,42.4 77.2,44.3 74.2,44.3 C71.4,44.5 69.4,43.1 69.4,40.9 Z" id="Path" fill="#EEB0B3" fill-rule="nonzero"></path>
        <path d="M79.7,40.6 C79.7,37.5 81.3,34.4 81.3,32.7 C81.3,31.9 81,31.8 81,31.2 C81,30.1 84.3,29.4 87,29.4 C88.1,29.4 88.6,29.8 88.6,30.6 C88.6,32.5 87.1,35.5 87.1,39.1 C87.1,40.1 87.9,40.7 88.5,40.7 C89.2,40.7 89.6,40.3 90.2,39.7 C90.5,39.4 90.7,39.2 91,39.2 C91.4,39.2 91.7,39.6 91.7,39.9 C91.7,40.4 91.4,40.8 90.9,41.4 C89.9,42.7 87.8,44.6 84.8,44.6 C81.8,44.5 79.7,42.8 79.7,40.6 Z M86.3,20.3 C88,20.3 89.5,21.4 89.5,22.8 C89.5,25.2 87.5,26.8 85.7,26.8 C83.7,26.8 82.5,25.6 82.5,24.2 C82.5,22.3 84,20.3 86.3,20.3 Z" id="Shape" fill="#EEB0B3" fill-rule="nonzero"></path>
        <path d="M100.9,40.9 C100.9,38 102.4,35.9 102.4,34 C102.4,33.4 102.1,33 101.5,33 C100.7,33 100,33.6 99,35.7 C98.2,37.3 96.9,41.4 96.9,43.3 C96.9,44.1 96.6,44.3 95.8,44.3 C94.4,44.3 91.8,44.5 91,44.5 C90.4,44.5 90,44.3 90,43.4 C90,41.6 92,35.1 92,32.6 C92,31.8 91.7,31.7 91.7,31.1 C91.7,30 94.9,29.3 97.7,29.3 C98.8,29.3 99.3,29.7 99.3,30.5 C99.3,31.3 99,32.3 99,32.3 C99.9,31.2 102.5,29.2 105.3,29.2 C107.9,29.2 109.2,30.4 109.2,32.2 C109.2,34.4 107.9,37 107.9,39 C107.9,39.9 108.5,40.5 109.2,40.5 C110,40.5 110.4,40.1 111,39.5 C111.3,39.2 111.5,39 111.8,39 C112.2,39 112.5,39.4 112.5,39.7 C112.5,40.2 112.2,40.6 111.7,41.2 C110.7,42.5 108.6,44.4 105.6,44.4 C103,44.5 100.9,42.9 100.9,40.9 Z" id="Path" fill="#EEB0B3" fill-rule="nonzero"></path>
        <path d="M126.7,40 C128.1,40 128.3,39 129.1,39 C129.5,39 129.7,39.2 129.7,39.6 C129.7,40.1 129.4,40.8 128.9,41.6 C127.9,43 126.4,44.5 123.8,44.5 C119.6,44.5 119.1,38.1 118.6,38.1 C118.6,38.1 117.4,42.2 117.4,43.2 C117.4,44 117.1,44.2 116.4,44.2 C115,44.2 112.3,44.4 111.6,44.4 C111,44.4 110.7,44.2 110.7,43.3 C110.7,39.1 114.9,29 114.9,21.9 C114.9,20.3 114.3,19.5 113.3,19.5 C112.9,19.5 112.6,19.3 112.6,18.9 C112.6,17.9 115.4,16.3 118.1,16.3 C120.6,16.3 122.4,17.6 122.4,20 C122.4,23 119,33.3 119,35.2 C120.1,35.2 121.9,33.6 121.9,32.7 C121.9,32.2 121.6,32.1 121.6,31.6 C121.6,30.6 125.1,29.1 127.3,29.1 C128.3,29.1 128.9,29.5 128.9,30.2 C128.9,32.2 126.5,34.8 122.9,36.7 C123.5,38.6 125.3,40 126.7,40 Z" id="Path" fill="#EEB0B3" fill-rule="nonzero"></path>
        <path d="M160.2,34.4 C160.2,35.6 161,36.4 162.2,36.4 C164,36.4 165.8,34.4 167.2,31.7 C169,27.9 170.7,20.5 171.8,16.4 C172.1,15.1 175.7,13.7 178.9,13.7 C179.5,13.7 179.8,14 179.8,14.4 C179.8,14.9 179.2,15.5 178.6,17 C177.5,19.6 175.5,27.5 173.8,35.8 C171.1,49 167.7,60.1 156.8,60.1 C151.2,60.1 147.2,56.9 147.2,52.3 C147.2,47.4 151.5,44.5 156,44.5 C157.6,44.5 158.4,44.9 158.4,45.4 C158.4,45.8 158.2,46 157.7,46.1 C156.5,46.3 155.1,47.3 155.1,49.1 C155.1,51.1 156.2,52.2 158.5,52.2 C161.7,52.2 164.8,47.3 167.1,36.6 C165.2,39.4 161.9,42.2 158.1,42.2 C154.3,42.2 152.2,39.8 152.2,36.3 C152.2,31.1 156.1,25 156.1,17.8 C156.1,16.6 155.4,15.8 154.1,15.8 C150.4,15.8 147.5,19.9 147.5,23.8 C147.5,25.4 148.4,26.1 149.4,26.1 C150,26.1 150.6,25.7 150.9,25.7 C151.2,25.7 151.4,25.9 151.4,26.2 C151.4,28.1 148.6,31.6 145.1,31.6 C142,31.6 139.8,29.2 139.8,25.9 C139.8,17.7 148.3,12.4 155.7,12.4 C160.3,12.4 163.5,14.5 163.5,18.4 C163.5,24.1 160.2,29.2 160.2,34.4 Z" id="Path" fill="#EEB0B3" fill-rule="nonzero"></path>
        <path d="M192.8,35 C192.8,40.4 189.8,44.7 183.4,44.7 C179.2,44.7 176,42.3 176,38.4 C176,33.7 179.9,29.1 186.5,29.1 C190.5,29.1 192.8,31.7 192.8,35 Z M187.6,35.8 C186.1,35.2 185.8,34.7 185.8,34 C185.8,32.9 186.6,32.4 186.6,32 C186.6,31.8 186.5,31.7 186.3,31.7 C186.1,31.7 185.5,31.9 184.9,32.5 C183.9,33.4 183.2,35 183.2,37.7 C183.2,39.9 184,41.1 185.7,41.1 C187.5,41.1 188.6,39.3 188.6,37.6 C188.6,36.8 188.3,36 187.6,35.8 Z" id="Shape" fill="#EEB0B3" fill-rule="nonzero"></path>
        <path d="M212.4,40.9 C213,40.9 213.3,40.7 213.7,40.4 C214,40.2 214.2,40 214.4,40 C214.7,40 214.9,40.2 214.9,40.5 C214.9,40.9 214.7,41.3 214.3,41.7 C213.2,43.1 211.4,44.4 208.9,44.4 C205.1,44.4 204.3,41.8 204.3,41.8 C204.3,41.8 202.1,44.4 197.5,44.4 C195.1,44.4 193.5,43 193.5,40.7 C193.5,37.7 195.1,34.2 195.1,32.5 C195.1,31.7 194.8,31.6 194.8,31 C194.8,29.9 198.1,29.2 200.9,29.2 C202,29.2 202.5,29.6 202.5,30.4 C202.5,32.6 200.7,35.6 200.7,39.1 C200.7,39.8 201.2,40.3 201.9,40.3 C202.7,40.3 203.1,39.7 203.7,38.6 C204.8,36.7 205.4,34.3 205.4,32.5 C205.4,31.7 205.1,31.6 205.1,31 C205.1,29.9 208.4,29.2 211.2,29.2 C212.3,29.2 212.8,29.6 212.8,30.4 C212.8,32.3 211.1,36.3 211.1,39 C211.2,40.4 211.7,40.9 212.4,40.9 Z" id="Path" fill="#EEB0B3" fill-rule="nonzero"></path>
        <path d="M239.3,35.8 C239.3,28.6 233,26.2 233,20.5 C233,15.3 238.6,12.5 242.6,12.5 C246.5,12.5 249,14.3 249,17.7 C249,20 247.5,21.9 245.5,21.9 C244.2,21.9 243.1,21 243.1,19.6 C243.1,18 244.7,17.4 244.7,16.2 C244.7,15.5 244.3,15 243.4,15 C242.1,15 240.7,16.4 240.7,18.6 C240.7,24.2 247.5,26.8 247.5,33.8 C247.5,40.2 241.5,45 234.6,45 C229.5,45 225,42.3 225,37.6 C225,33.2 230,31.1 233.4,31.1 C235,31.1 235.5,31.5 235.5,32 C235.5,32.5 235.2,32.8 234.6,33.2 C233.3,34.2 232,35.7 232,38 C232,40.3 233.5,41.5 235.5,41.5 C237.8,41.3 239.3,39.1 239.3,35.8 Z" id="Path" fill="#EEB0B3" fill-rule="nonzero"></path>
        <path d="M259.2,40.9 C259.2,38.3 260.7,35.8 260.7,34 C260.7,33.4 260.4,33.1 259.8,33.1 C258.9,33.1 258.1,33.9 257.2,35.8 C256.3,37.4 255.3,42.1 255.3,43.3 C255.3,44.1 255,44.3 254.3,44.3 C252.8,44.3 250.1,44.5 249.3,44.5 C248.7,44.5 248.4,44.3 248.4,43.4 C248.4,39.3 252.6,28.7 252.6,22 C252.6,20.4 252,19.6 251,19.6 C250.6,19.6 250.3,19.4 250.3,19 C250.3,18 253.1,16.4 255.8,16.4 C258.3,16.4 260.1,17.7 260.1,20.1 C260.1,22.8 258,29.7 257.4,31.8 C258.6,30.5 260.8,29.1 263.5,29.1 C266.1,29.1 267.8,30.3 267.8,32.4 C267.8,34.8 266.4,36.7 266.4,39.2 C266.4,39.9 267,40.4 267.6,40.4 C268.4,40.4 268.8,40 269.4,39.4 C269.7,39.1 269.9,38.9 270.2,38.9 C270.6,38.9 270.9,39.3 270.9,39.6 C270.9,40.1 270.6,40.5 270.1,41.1 C269.1,42.4 267,44.3 264,44.3 C261.2,44.5 259.2,43.1 259.2,40.9 Z" id="Path" fill="#EEB0B3" fill-rule="nonzero"></path>
        <path d="M286.3,35 C286.3,40.4 283.3,44.7 276.9,44.7 C272.7,44.7 269.5,42.3 269.5,38.4 C269.5,33.7 273.4,29.1 280,29.1 C284,29.1 286.3,31.7 286.3,35 Z M281.2,35.8 C279.7,35.2 279.4,34.7 279.4,34 C279.4,32.9 280.2,32.4 280.2,32 C280.2,31.8 280.1,31.7 279.9,31.7 C279.7,31.7 279.1,31.9 278.5,32.5 C277.5,33.4 276.8,35 276.8,37.7 C276.8,39.9 277.6,41.1 279.3,41.1 C281.1,41.1 282.2,39.3 282.2,37.6 C282.1,36.8 281.8,36 281.2,35.8 Z" id="Shape" fill="#EEB0B3" fill-rule="nonzero"></path>
        <path d="M297.9,41.9 C297.9,41.9 295.7,44.5 291.1,44.5 C288.7,44.5 287.1,43.1 287.1,40.8 C287.1,37.8 288.7,34.3 288.7,32.6 C288.7,31.8 288.4,31.7 288.4,31.1 C288.4,30 291.7,29.3 294.5,29.3 C295.6,29.3 296.1,29.7 296.1,30.5 C296.1,32.7 294.3,35.7 294.3,39.2 C294.3,39.9 294.8,40.4 295.5,40.4 C296.3,40.4 296.7,39.8 297.3,38.7 C298.4,36.8 299,34.4 299,32.6 C299,31.8 298.7,31.7 298.7,31.1 C298.7,30 302,29.3 304.8,29.3 C305.9,29.3 306.4,29.7 306.4,30.5 C306.4,32.4 304.7,36.1 304.7,38.9 C304.7,39.9 305.3,40.6 306,40.6 C306.8,40.6 307.2,40.2 307.8,39.6 C308.1,39.3 308.3,39.1 308.6,39.1 C309,39.1 309.3,39.5 309.3,39.8 C309.3,40.3 309,40.7 308.5,41.3 C307.5,42.6 305.5,44.5 302.5,44.5 C298.6,44.5 297.9,41.9 297.9,41.9 Z" id="Path" fill="#EEB0B3" fill-rule="nonzero"></path>
        <path d="M307.8,40 C307.8,35.6 311.5,29.5 311.5,22 C311.5,20.4 310.9,19.6 309.9,19.6 C309.5,19.6 309.2,19.4 309.2,19 C309.2,18 312,16.4 314.7,16.4 C317.2,16.4 319,17.7 319,20.1 C319,24.1 315.2,34.2 315.2,38.8 C315.2,39.8 315.7,40.5 316.5,40.5 C317.3,40.5 317.7,40.1 318.3,39.5 C318.6,39.2 318.8,39 319.1,39 C319.5,39 319.8,39.4 319.8,39.7 C319.8,40.2 319.5,40.6 319,41.2 C318,42.5 316,44.4 313,44.4 C309.8,44.5 307.8,42.5 307.8,40 Z" id="Path" fill="#EEB0B3" fill-rule="nonzero"></path>
        <path d="M337.1,40.9 C337.7,40.9 338,40.7 338.4,40.4 C338.7,40.2 338.9,40 339.1,40 C339.4,40 339.6,40.2 339.6,40.5 C339.6,40.9 339.4,41.3 339,41.7 C337.9,43.1 336.1,44.4 333.6,44.4 C330.7,44.4 329.6,42 329.6,42 C329.6,42 327.1,44.4 323.6,44.4 C320.2,44.4 318.2,42.4 318.2,38.8 C318.2,33.4 322.2,29.2 327.6,29.2 C329.3,29.2 330.7,29.7 331.1,30 C331.8,27.2 332.3,24.5 332.3,21.9 C332.3,20.3 331.7,19.5 330.7,19.5 C330.2,19.5 330,19.3 330,18.9 C330,17.9 333,16.3 335.8,16.3 C338.3,16.3 339.9,17.6 339.9,20 C339.9,24.3 335.9,32.6 335.9,38.4 C335.9,40.3 336.5,40.9 337.1,40.9 Z M328.9,32 C327.3,32 325.6,36.3 325.6,39.4 C325.6,40.4 326,41.2 326.8,41.2 C328.5,41.2 329.8,35.9 329.8,32.9 C329.7,32.3 329.4,32 328.9,32 Z" id="Shape" fill="#EEB0B3" fill-rule="nonzero"></path>
        <path d="M369,35.2 C371.4,36.7 373.8,37.8 376.4,37.8 C378.6,37.8 380.1,37 381.1,35.8 C381.5,35.3 381.8,35 382.1,35 C382.6,35 382.8,35.3 382.8,35.9 C382.8,37.9 380.4,44.7 375.5,44.7 C372.2,44.7 369.2,42 366.7,39.2 C364.7,42.6 361.5,44.7 357.2,44.7 C352.1,44.7 348.9,42.1 348.9,37.6 C348.9,33.2 352.8,30.4 356.8,30.4 C359.2,30.4 361.6,31.1 363.6,32.1 C364,31.2 364.2,30.5 364.5,29.3 C358.9,28.4 352.6,25.3 352.6,19.8 C352.6,16.2 355.3,13.4 358.9,13.4 C363.3,13.4 364.9,16.9 364.9,18.5 C364.9,18.9 364.7,19.2 364.2,19.2 C363.8,19.2 363.2,18.9 362.6,18.9 C361.4,18.9 360.3,20.1 360.3,21.6 C360.3,23.7 362.1,25 365.2,26 C367.4,17.1 370.7,12.5 375.8,12.5 C379.7,12.5 381.8,14.6 381.8,18.3 C381.8,23.2 376.9,28.4 370.8,29.4 C370.3,31.4 369.7,33.4 369,35.2 Z M362.3,35.4 C361.1,34.6 359.9,33.7 358.5,33.7 C357.1,33.7 356,34.7 356,35.9 C356,37.1 357.1,38 358.4,38 C360.2,38 361.5,36.8 362.3,35.4 Z M371.7,25.9 C374.6,25.2 377.4,22.2 377.4,20 C377.4,19 376.9,18.6 376.2,18.6 C374.8,18.5 373.4,19.5 371.7,25.9 Z" id="Shape" fill="#EEB0B3" fill-rule="nonzero"></path>
        <path d="M397.6,39 C398,38.6 398.3,38.4 398.6,38.4 C399,38.4 399.3,38.6 399.3,39 C399.3,39.5 399,39.9 398.3,40.6 C396.7,42.2 394.2,44.6 389.4,44.6 C384.9,44.6 381.3,42.6 381.3,38 C381.3,33.3 385.3,29.2 391.7,29.2 C395,29.2 396.7,30.8 396.7,32.9 C396.7,35.8 393.8,38.5 389.2,38.5 C389.2,39.9 390.9,41 393.2,41 C395,41 396.4,40 397.6,39 Z M392.4,32.6 C392.4,32 392.1,31.7 391.6,31.7 C390.3,31.7 388.9,34.1 388.9,36.2 C391.4,35.8 392.4,33.6 392.4,32.6 Z" id="Shape" fill="#EEB0B3" fill-rule="nonzero"></path>
        <path d="M413.2,44.5 C410.5,44.5 409.4,42.2 409.3,42 C409.2,42.1 407.3,44.5 403.5,44.5 C400.5,44.5 397.9,42.6 397.9,38.9 C397.9,34.1 400.8,29.3 407.6,29.3 C410.1,29.3 411.1,30.2 411.9,30.2 C413.1,30.2 415.3,29.3 416.4,29.3 C416.8,29.3 417.1,29.5 417.1,30 C417.1,31.2 415.4,34.9 415.4,38.6 C415.4,39.8 416.2,40.6 417,40.6 C417.8,40.6 418.2,40.2 418.8,39.6 C419.1,39.3 419.3,39.1 419.6,39.1 C420,39.1 420.3,39.5 420.3,39.8 C420.3,40.3 420,40.7 419.5,41.3 C418.5,42.7 416.2,44.5 413.2,44.5 Z M408.4,32 C406.8,32 405.1,36.3 405.1,39.4 C405.1,40.4 405.5,41.2 406.3,41.2 C408,41.2 409.3,35.9 409.3,32.9 C409.2,32.3 408.9,32 408.4,32 Z" id="Shape" fill="#EEB0B3" fill-rule="nonzero"></path>
        <path d="M420.2,31.1 C420.2,30 423.5,29.3 426.2,29.3 C427.3,29.3 427.8,29.7 427.8,30.5 C427.8,32.6 426.1,36.3 426.1,39.2 C426.1,40 426.5,40.4 427.2,40.4 C428.9,40.4 431.2,37.3 431.2,34.9 C431.2,34 430,33.7 430,32 C430,30.3 431.5,29.3 433.1,29.3 C435.1,29.3 436.4,30.5 436.4,32.6 C436.4,37.6 429.5,44.6 423.1,44.6 C420.5,44.6 418.9,43.2 418.9,40.9 C418.9,37.7 420.5,34.4 420.5,32.7 C420.4,31.8 420.2,31.7 420.2,31.1 Z" id="Path" fill="#EEB0B3" fill-rule="nonzero"></path>
        <path d="M447.8,41.5 C449.4,41.5 450.6,40.8 451.4,40.3 C451.9,40 452.2,39.7 452.5,39.7 C452.9,39.7 453.1,40 453.1,40.3 C453.1,40.8 452.8,41.2 452,41.9 C450.9,43 448.4,44.7 444.8,44.7 C440.3,44.7 436.9,42.7 436.9,38.1 C436.9,33.4 440.9,29.3 447.3,29.3 C450.6,29.3 452.3,30.9 452.3,33 C452.3,35.9 449.1,38.6 444.5,38.6 C444.6,40.2 445.9,41.5 447.8,41.5 Z M448.1,32.6 C448.1,32 447.8,31.7 447.3,31.7 C446,31.7 444.6,34.1 444.6,36.2 C447,35.8 448.1,33.6 448.1,32.6 Z" id="Shape" fill="#EEB0B3" fill-rule="nonzero"></path>
        <path d="M473.4,25.4 C474.2,25.4 474.6,24.9 475,24.9 C475.4,24.9 475.5,25.1 475.5,25.4 C475.5,27 473,30.8 468.8,30.8 C465.7,30.8 463.4,28.6 463.4,25.3 C463.4,17.8 473.8,12.5 484.4,12.5 C492.1,12.5 499,15.8 499,24.8 C499,28.8 498.6,32 497.4,35 C494.9,41.4 489.9,44.7 484.9,44.7 C481.7,44.7 478.9,43 478.1,43 C477,43 474.5,44.7 473.2,44.7 C472.7,44.7 472.4,44.5 472.4,44.1 C472.4,43.5 473.1,43 474,40.7 C474.8,38.6 477.1,25.4 478.4,20.2 C479.2,16.9 480.6,15.9 481.9,15 C475.6,15.4 471.3,20.1 471.3,23.4 C471.4,24.9 472.3,25.4 473.4,25.4 Z M487.8,15.5 C487,16.5 486.5,17.7 485.7,20.4 C484.1,26.1 482,38.4 482,39.6 C482,40.8 482.7,41.6 484,41.6 C486.1,41.6 488.4,38.8 489.8,34.4 C490.8,31.1 491.5,27.2 491.5,23.2 C491.4,17.7 489.5,15.7 487.8,15.5 Z" id="Shape" fill="#EEB0B3" fill-rule="nonzero"></path>
        <path d="M507.7,31.1 C508.3,30.4 509.9,29.4 512,29.4 C515,29.4 517.3,30.7 517.3,34.3 C517.3,39 513.7,44.6 507.1,44.6 C502.2,44.6 499.5,42.1 499.5,38.4 C499.5,33.8 502.8,28.4 502.8,22.1 C502.8,20.5 502.2,19.7 501.2,19.7 C500.7,19.7 500.5,19.5 500.5,19.1 C500.5,18.1 503.5,16.5 506.2,16.5 C508.7,16.5 510.3,17.8 510.3,20.2 C510.3,22.7 508.1,28.8 507.7,31.1 Z M507.4,41.7 C508.9,41.7 510.5,36 510.5,34.1 C510.5,33.2 510.2,32.8 509.4,32.8 C508.2,32.8 506.4,37.5 506.4,40.6 C506.4,41.2 506.7,41.7 507.4,41.7 Z" id="Shape" fill="#EEB0B3" fill-rule="nonzero"></path>
    </g>
</svg>